<svg xmlns="http://www.w3.org/2000/svg" xmlns:xlink="http://www.w3.org/1999/xlink" version="1.1" baseProfile="basic" id="Layer_1" x="0px" y="0px" viewBox="-719 419 64 64" xml:space="preserve"><style>.s0{stop-color:#FFFFFF;stop-opacity:0.5;}</style><style type="text/css">
	.st0{fill:url(#SVGID_1_);}
	.st1{fill:url(#SVGID_2_);}
</style><linearGradient id="SVGID_1_" gradientUnits="userSpaceOnUse" x1="-699.2168" y1="481.87" x2="-699.2168" y2="424.2473" gradientTransform="matrix(1 0 0 -1 0 904)"><stop offset="0" stop-color="#FFFFFF"/><stop offset="0.8622" class="s0"/></linearGradient><path class="st0" d="M-689.31 470.75c-9.92-1.16-17.68-9.52-17.68-19.75 0-11.02 8.96-19.99 19.98-19.99 2.45 0 4.44-1.99 4.44-4.44s-1.99-4.44-4.44-4.44c-15.92 0-28.87 12.95-28.87 28.87 0 15.14 11.72 27.57 26.56 28.75V470.75z"/><linearGradient id="SVGID_2_" gradientUnits="userSpaceOnUse" x1="-673.7214" y1="424.13" x2="-673.7214" y2="466.0483" gradientTransform="matrix(1 0 0 -1 0 904)"><stop offset="0.5204" class="s0"/><stop offset="1" style="stop-color:#FFFFFF;stop-opacity:0"/></linearGradient><path class="st1" d="M-658.13 451c0-6.88-2.46-13.53-6.92-18.75 -1.6-1.86-4.4-2.07-6.26-0.49 -1.86 1.6-2.08 4.4-0.49 6.26 3.09 3.61 4.79 8.22 4.79 12.97 0 11.02-8.97 19.99-19.99 19.99 -0.79 0-1.54-0.14-2.31-0.23v9c0.76 0.06 1.53 0.12 2.31 0.12C-671.08 479.87-658.13 466.92-658.13 451z"/></svg>