<svg xmlns="http://www.w3.org/2000/svg" width="32" height="32" viewBox="0 0 32 32"><path d="M29.998 28.12L21.882 20H28v-2H18v10h2v-6.113l8.115 8.115zM20 16h3.107l1.057-.313c-.246-.963-1.2-2.12-1.2-2.12s1.108.703 1.738.52c.622-.183.156-.934.674-1.478.085-.09.327-.13.506-.127.284.955.44 1.966.44 3.014 0 .17-.015.336-.025.503h2.8c.004-.072.01-.143.01-.216 0-7.365-5.97-13.335-13.334-13.335S2.438 8.42 2.438 15.783 8.408 29.12 15.773 29.12c.077 0 .152-.008.228-.012v-1.795l-.218-1.268h-.008c-2.14 0-4.125-.645-5.787-1.74.028-.886.453-1.698 1.54-3.294.853-1.255.015-2.52-.66-2.96s-1.362-1.192-3.28-1.633c-.55-.127-1.906-.376-2.36-.882v-.038c0-.818.095-1.613.27-2.377.543.09 1.123.062 1.477.008 1.01-.156.992-1.192 1.33-2.125S9.97 9.97 10.54 8.88c.384-.73-.272-1.586-.64-2.145 1.68-1.127 3.7-1.786 5.874-1.786 1.194 0 2.34.2 3.41.565.083.5.135 1.2.012 1.676-.137.53-1.133.79-1.415 1.252s-.616 1.747.146 2.045c.76.3 1.613-.09 2.268.333.803.518 1.425 1.633.907 1.71s-2.047-.362-3.058-.362-3.5 1.814-3.344 3.395c.05.51.135.9.254 1.2.066.25.677.812 1.05.854V16h4z"/></svg>