<svg xmlns="http://www.w3.org/2000/svg" width="32" height="32" viewBox="0 0 32 32"><path d="M10.646 20.854L22.716 8.79l-1.334-1.335-12.066 12.06c-1.367 1.366-1.367 3.583 0 4.94 1.36 1.366 3.574 1.366 4.936 0h.002l14.8-14.794c2.21-2.21 2.21-5.794 0-8.003-2.208-2.207-5.788-2.207-8 0L3.587 19.127C.64 22.072.646 26.848 3.588 29.79c2.945 2.947 7.72 2.947 10.664.002L28.986 15.06l-1.334-1.334L12.918 28.46c-2.205 2.207-5.79 2.207-7.996-.004-2.21-2.207-2.21-5.785-.002-7.994l17.467-17.47c1.475-1.472 3.863-1.472 5.334 0 1.474 1.474 1.474 3.86 0 5.33L12.925 23.13c-.293.297-.697.48-1.146.48-.89 0-1.61-.72-1.61-1.61 0-.448.185-.852.48-1.143z"/></svg>