<svg xmlns="http://www.w3.org/2000/svg" width="32" height="32" viewBox="0 0 32 32"><path d="M0 0v14h13.99V0H0zm11.99 11.92V12H7.16c.47-.88 1.043-2.027 1.676-2.792.79 1.11 1.676 2.053 3.154 2.712zM5.95 2.336c.12.233.235.475.312.754.36 1.308.857 3.078 1.738 4.752-.98 1.1-1.85 2.56-2.496 4.158H1.99V6.225c2.49-.862 3.445-2.79 3.96-3.89zM31.99 0H18v14h13.99V0zm-5.73 12c.01-.25.037-.56.084-.805.03-.76.31-1.917.752-2.108.242-.106.46-.163.644-.214.412-.11.877-.24 1.137-.714.266-.487.143-1.064-.053-1.685.088-.142.445-.284 1.166-.345V12h-3.73zm3.73-7.397c-.848.05-1.834.245-2.373.964-.3.402-.377.91-.215 1.43.055.172.084.293.1.375-.053.016-.11.03-.16.045-.242.066-.527.146-.846.284-1.486.644-1.646 2.98-1.648 3.312-.033.16-.105.432-.102.99H22.7c.097-.497.1-.65.08-.83.06-.57.253-3.404-1.558-4.345.158-.056.303-.098.383-.11 2.705-.126 3.348-2.49 3.57-3.696.102-.548.672-.848 1.262-1.02h3.553v2.604zm2 13.397H18v14h13.99V18zm-10.084 8.633L23.6 30h-3.61V20h.338l4.37 2.66-2.69 3.143c-.2.23-.238.56-.102.83zM23.234 20h6.756v4.113L23.234 20zM0 18v14h13.99V18H0zm11.715 3.108c-.004.013-.373 1.148-1.69 1.367-1.224.204-1.837 1.017-2.067 1.85-1.502-.483-2.896-.237-3.86.72-1.14 1.14-1.376 3.014-.57 4.562.046.086.097.253.134.393h-1.67V20h10.01v.127c-.365.515-.27.933-.285.98z"/></svg>