<svg xmlns="http://www.w3.org/2000/svg" width="32" height="32" viewBox="0 0 32 32"><path d="M32 10v22H10v-2h20V10h2zm-6-4v20H6v2h22V6h-2zm-2-4v22H2V2h22zm-2 8.237V4h-5.42c.69 2 .3 2.214.156 2.38-.14.162-.352.274-.572.32-.273.237-.826.98-.976 1.5-.14.486-.453.86-.885 1.06-.772.355-1.637.012-1.842-.082-.093.292-.24.607-.476.935-.518.718-1.152.88-1.594.888-1.168.012-2.232-1.048-2.62-1.502.232.62.4 1.42.163 1.982-.06.138-.14.26-.238.364 1.025-.083 1.873.392 2.266 1.054.458.772.405 1.938-.745 2.8-.3.227-.443.42-.498.577 1.178.183 2.057.843 2.324 1.793.29 1.025-.206 2.09-1.267 2.715-.033.02-.336.217-.684 1.217h8.374c-.002-1-.004-1.126-.012-1.135-.11-.15-.424-.24-.86-.25-1.632-.03-2.384-1.037-2.546-1.97-.215-1.253.477-2.623 1.576-3.23-.543-.703-.203-1.23-.01-1.44.068-.076.182-.183.32-.31.793-.728.97-1.046.975-1.182-.037-.704.244-1.315.773-1.67.348-.237 1.088-.538 2.266-.08l.072-.12c.09-.157 1.053-.272 1.98-.376z"/></svg>