<svg xmlns="http://www.w3.org/2000/svg" width="32" height="32" viewBox="0 0 32 32"><path d="M16 2C7.027 2 0 6.464 0 12.165c0 3.583 2.804 6.8 7.418 8.622-.068.838-.324 2.18-1.09 4.143l-1.952 5.02 4.878-2.288c.185-.086 4.154-1.977 6.56-5.334H16c8.972 0 16-4.464 16-10.163C32 6.465 24.974 2 16 2zm0 18.172c-.455 0-.904-.015-1.348-.04-1.904 3.51-6.315 5.578-6.315 5.578 1.45-3.722 1.33-5.677 1.157-6.478C5.128 17.885 2 15.062 2 12c0-4.423 6.353-8 14-8s14 3.74 14 8.164c0 4.423-6.355 8.008-14 8.008zM8 8h16v2H8V8zm0 4h12v2H8v-2z"/></svg>