<svg xmlns="http://www.w3.org/2000/svg" width="32" height="32" viewBox="0 0 32 32"><path d="M6 4h10v2H6V4zm8 4h10v2H14V8zm-8 8h6V8H6v8zm2-6h2v4H8v-4zm2 12.64l-2.625 2.098.564-2.254c.147-.598.015-1.227-.362-1.71C7.195 20.283 6.615 20 6 20H3.998C2.898 20 2 19.102 2 18V4c0-1.098.898-2 1.998-2h22C27.1 2 28 2.902 28 4v8.122c.094-.015.186-.046.28-.046.476 0 .95.184 1.306.54l.414.415V4c0-2.207-1.79-4-4-4H4C1.79 0 0 1.793 0 4v14c0 2.21 1.79 4 4 4h2l-2 8 6.675-5.34c-.404-.34-.675-.83-.675-1.39v-.63zm22 .698v-2.52l-3.21-.42c-.165-.673-.433-1.3-.778-1.878l2.082-2.674-1.783-1.783-2.68 2.076c-.57-.345-1.204-.608-1.874-.774L23.338 12h-2.52l-.423 3.366c-.67.166-1.297.43-1.88.773l-2.67-2.077-1.782 1.783 2.076 2.67c-.345.582-.608 1.21-.774 1.883L12 20.82v2.518l3.366.422c.166.666.43 1.3.773 1.875l-2.077 2.676 1.78 1.78 2.673-2.082c.582.354 1.21.617 1.88.78l.42 3.212h2.522l.418-3.213c.67-.162 1.303-.426 1.88-.78l2.67 2.083 1.788-1.78-2.082-2.675c.35-.576.613-1.21.78-1.875L32 23.338zm-4.467.05c-.137.546-.352 1.064-.643 1.548-.27.447-.232 1.016.086 1.432l1.41 1.807-.21.213-1.81-1.406c-.23-.182-.506-.27-.783-.27-.225 0-.45.06-.648.183-.482.29-1.006.506-1.553.643-.508.125-.885.555-.95 1.074l-.284 2.275h-.3l-.282-2.275c-.064-.52-.44-.945-.95-1.074-.554-.137-1.073-.354-1.552-.643-.2-.123-.424-.184-.652-.184-.277 0-.553.09-.783.272l-1.81 1.406-.207-.21 1.406-1.806c.32-.42.356-.988.087-1.435-.29-.484-.506-1.002-.64-1.547-.128-.51-.554-.887-1.077-.953l-2.275-.283.002-.305 2.273-.282c.523-.064.95-.443 1.076-.955.135-.54.352-1.06.64-1.543.27-.45.235-1.02-.087-1.432l-1.41-1.813.21-.21 1.814 1.41c.228.177.504.267.777.267.23 0 .456-.06.66-.184.472-.29.99-.502 1.546-.643.508-.13.885-.55.95-1.074l.28-2.27h.3l.286 2.27c.064.524.44.946.947 1.075.552.14 1.075.354 1.546.643.205.123.432.184.656.184.275 0 .553-.09.78-.268l1.812-1.41.21.21-1.41 1.814c-.317.412-.355.98-.085 1.428.292.49.505 1.01.642 1.547.127.512.553.89 1.072.955l2.28.28-.003.306-2.276.283c-.52.066-.945.443-1.072.953zm-5.535-5.197c-2.1 0-3.807 1.712-3.807 3.81S19.9 25.81 22 25.81c2.1 0 3.807-1.712 3.807-3.81s-1.707-3.81-3.807-3.81zm0 6.35c-1.4 0-2.537-1.138-2.537-2.54S20.6 19.46 22 19.46c1.402 0 2.54 1.138 2.54 2.54s-1.138 2.54-2.54 2.54z"/></svg>