<svg xmlns="http://www.w3.org/2000/svg" width="32" height="32" viewBox="0 0 32 32"><path d="M5.73 24.857zm21.253-.3h.003v2.007h-.003v-2.007zm2.726-16.85c.388-.39.388-1.026 0-1.415s-1.026-.39-1.416 0L18.02 16.566C17.425 16.216 16.74 16 16 16c-2.21 0-4 1.79-4 4s1.79 4 4 4 4-1.79 4-4c0-.74-.215-1.425-.566-2.02L29.708 7.706zM31.58 16c0-1.377-.197-2.705-.533-3.976L29.37 13.7c.127.75.21 1.515.21 2.3 0 3.38-1.25 6.468-3.302 8.846l1.413 1.425c2.413-2.743 3.888-6.33 3.888-10.27zm-5.3 8.846l-2.796-2.82c-.39-.39-1.027-.393-1.418-.002l-.006.006c-.387.387-.388 1.022-.003 1.41l4.215 4.25c.502-.44.975-.913 1.417-1.415l-1.42-1.418.005-.006.004-.004zM7.79 5.208C10.075 3.468 12.915 2.42 16 2.42V7c0 .55.45 1 1 1s1-.45 1-1V2.583c2.19.33 4.21 1.174 5.93 2.417l1.432-1.43C23.234 1.963 20.676.922 17.9.58c-.562-.07-1.125-.136-1.703-.143-.067 0-.13-.016-.197-.016-3.64 0-6.98 1.26-9.633 3.352-.527.416-1.03.86-1.5 1.34C2.534 7.5.966 10.634.546 14.124.48 14.674.44 15.232.432 15.8c0 .067-.01.132-.01.2 0 3.942 1.476 7.53 3.89 10.275l1.418-1.418C3.674 22.477 2.42 19.385 2.42 16H7c.55 0 1-.45 1-1s-.45-1-1-1H2.586c.428-2.88 1.753-5.47 3.696-7.463l2.705 2.727c.39.392 1.027.394 1.417.003l.006-.006c.387-.386.388-1.02.003-1.41L7.793 5.21zM4.31 26.275c.442.5.914.973 1.415 1.414l4.224-4.225c.388-.39.388-1.025 0-1.414s-1.026-.388-1.415 0l-4.223 4.225z"/></svg>