<svg xmlns="http://www.w3.org/2000/svg" width="32" height="32" viewBox="0 0 32 32"><path d="M24 24l-8 8-8-8h6V14h4v10h6zm3.08-15.207C26.428 4.045 22.596.396 17.95.396c-3.48 0-6.503 2.045-8.08 5.062-.435-.117-.882-.2-1.345-.2-2.563 0-4.47 1.91-4.646 4.327C1.706 10.7.2 12.953.2 15.557.2 19.094 3.09 22 6 22h4v-2.4H6c-1.54 0-3.4-1.803-3.4-4.043 0-1.614.91-3.084 2.375-3.837l1.2-.616.1-1.345c.09-1.237 1.015-2.1 2.25-2.1.194 0 .43.036.718.114l1.86.503.893-1.707c1.217-2.328 3.5-3.774 5.955-3.774 3.354 0 6.257 2.718 6.753 6.323l.203 1.483 1.424.468c1.836.607 3.07 2.33 3.07 4.293 0 2.347-1.86 4.235-3.4 4.235h-4v2.4h4c2.838 0 5.8-2.936 5.8-6.636 0-3.07-1.98-5.67-4.72-6.57z"/></svg>