<svg xmlns="http://www.w3.org/2000/svg" width="32" height="32" viewBox="0 0 32 32"><path d="M16.047 22.746c-3.693 0-6.7-3.006-6.7-6.7s3.007-6.698 6.7-6.698 6.7 3.006 6.7 6.7-3.007 6.698-6.7 6.698zm0-17c1.094 0 2.127.22 3.117.535L16.047.048 12.93 6.28c.99-.315 2.024-.534 3.117-.534zm9.11 5.598l2.204-6.61-6.61 2.204c1.89.98 3.426 2.516 4.406 4.406zM11.343 6.937l-6.61-2.205 2.204 6.61c.98-1.89 2.516-3.425 4.406-4.405zm20.703 9.11l-6.234-3.117c.316.99.535 2.024.535 3.117s-.22 2.127-.535 3.117l6.234-3.117zm-26.3 0c0-1.094.218-2.127.534-3.117L.048 16.047l6.234 3.117c-.315-.99-.534-2.023-.534-3.117zm15.003 9.11l6.61 2.204-2.204-6.61c-.98 1.89-2.516 3.426-4.406 4.406zM6.938 20.75l-2.203 6.61 6.61-2.204c-1.892-.98-3.427-2.516-4.407-4.406zm9.11 5.598c-1.095 0-2.128-.22-3.118-.535l3.117 6.234 3.117-6.234c-.99.317-2.023.535-3.117.535z"/></svg>