<svg xmlns="http://www.w3.org/2000/svg" width="32" height="32" viewBox="0 0 32 32"><path d="M15.7 2.383l12.937 11.633-12.608 5.19c-.124.044-.247.07-.36.07-.254 0-.482-.095-.656-.272L2.032 5.572l12.264-3.504c.137-.05.28-.068.426-.068.355 0 .707.133.978.383zM31.106 23.74L17.63 29.287c-.172.07-.355.107-.54.107-.374 0-.74-.15-1.015-.432L2.087 14.5c-.137-.142-.242-.308-.31-.495C1.18 12.392-.065 9.482.002 7.59l13.274 13.724c.627.648 1.506 1.025 2.404 1.025.432 0 .86-.09 1.272-.257l13.586-5.604c.916 2.4 2.453 6.493.57 7.26z"/></svg>