<svg xmlns="http://www.w3.org/2000/svg" width="32" height="32" viewBox="0 0 32 32"><path d="M13.643 5.55c-.824.043-.71-.868-.756-1.156 0 0 .31-.222.488-.288.178-.067.756-.067.867.288.11.355.223 1.11-.6 1.155zm2.02 1.797c.487-.354 1.044.023 1.444 0 .398-.02.486-.533.666-.8.178-.267.953-.62.576-.998-.38-.378-2.2-.645-2.665-.046-.238.308-.98 1.156-1.356 1.332s-.18.866.065.91c.246.045.777-.044 1.266-.4zm2.222 2.2c-.133.156.068.49.51.49 0 .333.09.866.533.754s.49-.755-.066-1.11c-.26-.165-.53-.91-.977-.133zm13.412 6.5c0 8.423-6.828 15.25-15.25 15.25S.797 24.47.797 16.047c0-8.422 6.828-15.25 15.25-15.25s15.25 6.828 15.25 15.25zm-15.25 12.81c1.31 0 2.574-.2 3.766-.566-.03-.097-.068-.2-.13-.312-.354-.644-.513-1.954-.157-2.287.354-.333.51-1.198.244-1.42-.266-.222.18-.602.223-.844.246-.912-.244-.955-.998-1.18-.756-.22-1.51.09-2.486.113-.98.02-1.38-1.38-1.49-1.62-.355-.224-.843-.56-.776-1.046.066-.49.51-.91.53-1-.087-.29 0-.82.136-1 .22-.843 1.31-1.398 1.666-1.555.133-.578 1.266-1.133 1.53-1.02.267.11.513.532.935 0 .42-.534.69-.378 1.333-.378s.842.312 1.043.91c.2.6 1.6.687 1.62.556.288-.954 1.09-.223 1.245-.223.935-.065 1.044-.466.935-1.022-.11-.555-1.045-.267-1.156-.51-.087-.192-.29-.622-.4-.4-.11.222-.487.688-.733.065-.244-.62-.932-1.33-1.11-1.22-.267.378-.6.376-.755.266-.62-.467-1.086.023-1.355.29-.266.266-.668.705-1.246.862-.575.154-.954-.245-1.02-.822-.066-.578.447-1.062.96-.797.51.267.952.045.73-.177s-.376-.845-.087-.954c.287-.11.488 0 .977-.667s1.043-.445 1.688-.334c.644.11.467-.955.422-1.155s-.822-.643-.89-.488c-.064.155.112.866-.265 1.045-.38.18-.756-.424-1.067-.778-.312-.355.29-.688.356-.867.178-.644.912-1.177 1.6-.82s.82.09.777-.024c-.357-.423-.345-1.184 0-1.555.216-.23.42-.38.608-.47-2.053-1.398-4.53-2.22-7.197-2.22-2.696 0-5.196.842-7.263 2.27.664-.296 2.156-.42 2.195-.114.043.357.043 1.29.353 1.11.266-.133.578-.888 1.29-.354.708.532-.136 1.198-.356 1.554-.224.357-.313.933-1.067.666-.756-.267-.89.09-.934.355s-.532.49-1.155.313c-.623-.178-1.64.797-2.13 1.287-.27.267-2.372.923-2.065-.467.018-.08.037-.14.055-.215-.81 1.397-1.36 2.96-1.596 4.625.593.18 1.83.518 2.05 1.475.266.4.797 1.644 1.332 2.31.857 1.073.27 1.593.355 2.443.443.223 1.11.71 1.775 1.068.666.354 1.156 1.287.135 1.643-.223.18.043 1.023-.4 1.2-.367.146-.87.754-1.334.968 2.293 2.155 5.37 3.487 8.758 3.487zm12.81-12.81c0-.194-.02-.383-.03-.575-.31-.01-.714-.084-.974-.15-.42-.113-.733.33-.533.487.2.153.668.33.71.62.046.29-.442 1.6-.71 2.086-.266.49-.576.533-.733.313-.154-.224-.443-1.31-.777-1.934-.334-.62-.377-.134-.266.267.11.4.62 1.932.777 2.376.646.133.733.2.935.4.197.198-.045.466-.4.975-.355.512-1.62 2.844-1.687 3.265-.03.203.006.516-.014.863 2.287-2.315 3.703-5.492 3.703-8.996z"/></svg>