<svg xmlns="http://www.w3.org/2000/svg" width="32" height="32" viewBox="0 0 32 32"><path d="M4 26V4H2v24h28v-2zm6-8.2c1.02 0 1.94-.407 2.623-1.06l3.733 2.24c-.09.327-.156.664-.156 1.02 0 2.1 1.7 3.8 3.8 3.8s3.8-1.7 3.8-3.8c0-1.203-.57-2.263-1.444-2.96l3.125-7.292c.172.024.342.052.52.052 2.098 0 3.8-1.7 3.8-3.8S28.097 2.2 26 2.2 22.2 3.9 22.2 6c0 1.204.57 2.263 1.443 2.96l-3.125 7.292c-.17-.024-.34-.052-.518-.052-1.02 0-1.94.407-2.623 1.06l-3.733-2.24c.09-.327.156-.664.156-1.02 0-2.1-1.7-3.8-3.8-3.8S6.2 11.9 6.2 14s1.7 3.8 3.8 3.8z"/></svg>