<svg xmlns="http://www.w3.org/2000/svg" width="32" height="32" viewBox="0 0 32 32"><path d="M28.633 17.945l-4.118-4.426c.076 1.13-.034 2.26-.355 3.24l2.83 2.827c2.056 2.056 2.056 5.403 0 7.46-.99.993-2.316 1.54-3.723 1.54-1.41 0-2.735-.547-3.728-1.543l-5.46-5.46c-2.054-2.055-2.054-5.397 0-7.45.607-.61 1.36-1.05 2.1-1.23-.083-.152-.164-.296-.28-.414l-1.343-1.46c-.845.403-1.54.88-2.12 1.46-1.432 1.434-2.223 3.342-2.223 5.37s.79 3.935 2.223 5.367l5.46 5.46c1.433 1.434 3.34 2.224 5.37 2.224 2.025 0 3.932-.79 5.366-2.222 2.962-2.962 2.962-7.782 0-10.745zM8.71 3.497c1.41 0 2.733.546 3.727 1.54l5.46 5.457c2.053 2.054 2.053 5.398 0 7.454-.606.605-1.357 1.043-2.106 1.222.087.154.167.3.288.42l1.422 1.423c.808-.394 1.476-.862 2.04-1.422 2.96-2.96 2.96-7.776 0-10.74l-5.46-5.456C12.646 1.96 10.738 1.17 8.71 1.17s-3.933.79-5.368 2.224c-1.434 1.434-2.225 3.342-2.225 5.37s.79 3.933 2.225 5.368L7.46 18.56c-.076-1.13.034-2.262.355-3.24l-2.83-2.832c-.994-.99-1.542-2.316-1.542-3.726S3.99 6.03 4.985 5.036c.994-.994 2.316-1.54 3.726-1.54z"/></svg>