<svg xmlns="http://www.w3.org/2000/svg" width="32" height="32" viewBox="0 0 32 32"><path d="M27.518 8.338c.324.37.772.94 1.26 1.727.955 1.557 2.077 4.122 1.987 7.41-.02 3.243-1.41 7.185-4.56 10.08-3.084 2.903-7.94 4.493-12.61 3.567-4.697-.832-8.864-4.16-10.853-8.38C.7 18.512.88 13.707 2.37 10.095c1.462-3.672 4.05-6.09 6.097-7.42C10.55 1.334 12.092.888 12.39.8c1.233-.356 2.456-.18 3.28.31.84.51 1.282 1.258 1.277 2.104-.08 1.717-1.406 3.04-2.86 3.478-.19.05-1.158.258-2.564.99-1.375.735-3.223 2.144-4.43 4.522-1.216 2.318-1.698 5.672-.504 8.872 1.157 3.185 4.04 6.06 7.692 7.058 3.63 1.078 7.773.2 10.67-2.06 2.945-2.244 4.564-5.648 4.856-8.66.37-3.046-.465-5.615-1.26-7.222-.408-.812-.798-1.416-1.085-1.812l-.45-.6.504.558z"/></svg>