<svg xmlns="http://www.w3.org/2000/svg" width="32" height="32" viewBox="0 0 32 32"><path d="M0 0v32h32V0H0zm17.028 11.947l.022.106c.175.863.272 1.67-.46 2.066-.52.28-.793.765-1.014 1.155-.28.497-.414.684-.715.684-.158 0-.283-.085-.486-.242-.25-.19-.56-.425-1.03-.425-.692 0-1.255.606-1.255 1.35 0 .475-.422 1.353-1.022 1.353-.49 0-.652-.172-.763-.37-.297-.53-.666-1.193-1.512-1.193-.85 0-1.54.734-1.54 1.634 0 .288.058.51.11.703.043.166.082.31.082.478 0 .244-.102.428-.23.666-.152.278-.34.622-.34 1.09 0 .613.563 1.113 1.256 1.113.393 0 .654-.103.864-.184.195-.078.332-.125.56-.103.103.01.21.3.21.5 0 .322-.274.597-.59.912-.514.513-1.22 1.213-.638 2.37.22.443.758.568 1.277.69.24.056.416.094.56.13 0 0 .255.34.32.537-.018.126.012.23.012.23-.005.15-.04.313-.17.505-.253.38-.548.597-.862.825-.623.456-1.14.534-1.156 1.47H2V2h21.48c.03.577-.903 1.218-.903 1.218l-.98.58c-1.054.673-2.254 1.704-2.254 2.56 0 .378.15.647.27.86.1.177.156.283.156.418 0 .19-.127.316-.412.56-.248.215-.533.452-.662.84-.043.13-.064.263-.064.4s.03.306.063.488c.028.153.09.472.042.547 0 0-.055.042-.26.042l-.172-.006c-.37 0-.75.303-.98.58-.172.207-.363.53-.298.86zM30 30h-9.23c-.207-1.22-1.35-1.258-2.168-1.556-.288-.106-.584-.212-.858-.353-.354-.183-.35-.585-.295-.89 0 0 .1-.303.09-.37l.002-.002-.002-.002c-.005-.034-.012-.066-.012-.11 0-.23.212-.338.698-.572.508-.248 1.2-.576 1.2-1.39 0-.293-.128-.49-.215-.62-.053-.08-.07-.11-.07-.133 0-.17.068-.285.332-.523.283-.253.628-.6.628-1.19v-.93c0-.093.27-.196.605-.03.166.078.41.188.715.188.673 0 1.04-.494 1.3-.853.24-.33.33-.516.565-.478.234.04.148.05.324.41.12.25.26.536.52.762.453.397.978.528 1.505.57.525.083 1.237.137 1.996.005l.17-.027c.366-.066.686-.084.98-.067 0 0 .09.022.137.006.39.044.72.176.98.458l.1.248c.004.005-.002.01 0 .014V30z"/></svg>