<svg xmlns="http://www.w3.org/2000/svg" width="32" height="32" viewBox="0 0 32 32"><path d="M14 9.2c0-.663.537-1.2 1.2-1.2h1.6c.663 0 1.2.537 1.2 1.2v7.6c0 .663-.537 1.2-1.2 1.2h-1.6c-.663 0-1.2-.537-1.2-1.2V9.2zm4 12c0-.663-.537-1.2-1.2-1.2h-1.6c-.663 0-1.2.537-1.2 1.2v1.6c0 .663.537 1.2 1.2 1.2h1.6c.663 0 1.2-.537 1.2-1.2v-1.6zM31.6 16c0 8.615-6.982 15.6-15.6 15.6C7.385 31.6.4 24.616.4 16S7.384.4 16 .4C24.617.4 31.6 7.384 31.6 16zm-2.4 0c0-7.28-5.92-13.2-13.2-13.2S2.8 8.72 2.8 16 8.72 29.2 16 29.2c7.28 0 13.2-5.92 13.2-13.2z"/></svg>