<svg xmlns="http://www.w3.org/2000/svg" width="32" height="32" viewBox="0 0 32 32"><path d="M10.52.216c-2.377 1.787-4.182 4.1-5.345 6.686 1.613 4.332 3.585 8.592 5.973 12.73s5.092 7.973 8.037 11.536c2.82.286 5.727-.12 8.463-1.287.675-.287.866-1.144.375-1.69-1.503-1.665-2.938-3.41-4.307-5.23-.35-.465-1.008-.563-1.474-.21l-1.596 1.207c-.48.364-1.17.224-1.473-.298L11.67 10.664c-.3-.522-.076-1.19.48-1.425l1.843-.778c.538-.227.782-.845.553-1.382-.89-2.095-1.684-4.21-2.375-6.345-.225-.698-1.063-.96-1.65-.52z"/></svg>