<svg xmlns="http://www.w3.org/2000/svg" width="32" height="32" viewBox="0 0 32 32"><path d="M15.71 30.89c-6.4-.003-12.074-4.075-14.12-10.134-1.675-4.96-.607-10.46 2.777-14.438l9.66 10.857 5.733 13.148c-1.323.375-2.686.564-4.052.564zM7.404 3.61c1.104-.74 2.29-1.327 3.53-1.745 1.55-.525 3.155-.79 4.77-.79 3.552 0 6.975 1.265 9.678 3.57L15.86 13.13 7.407 3.61zm12.66 17.302l7.334 4.295c-1.098 1.393-2.414 2.56-3.923 3.482l-3.412-7.778zm-.93-5.258l8.95-7.97c.735 1.1 1.32 2.284 1.743 3.526 1.16 3.438 1.027 7.15-.372 10.494l-10.32-6.05z"/></svg>