<svg xmlns="http://www.w3.org/2000/svg" width="32" height="32" viewBox="0 0 32 32"><path d="M16 0C7.162 0 0 7.162 0 16s7.162 16 16 16c8.838 0 16-7.162 16-16S24.838 0 16 0zm2 28h-4v-4h4v4zm1.164-12.39C17.787 16.917 18 16.85 18 18.55V20h-4.21v-1.45c0-1.766.99-2.508 2.085-3.477.303-.27.625-.56.957-.887l.586-.555c1.148-1.147 2.23-2.226 2.23-3.91 0-1.972-1.238-3.245-3.156-3.245-1.664 0-2.477.773-2.898 2.758l-.156.766H10l.078-1.056C10.504 5.807 12.853 4 16.523 4c3.625 0 5.97 2.21 5.97 5.632 0 2.66-1.442 4.22-3.33 5.977z"/></svg>