<svg xmlns="http://www.w3.org/2000/svg" width="32" height="32" viewBox="0 0 32 32"><path d="M28 22h-7.28c-.323-.23-.665-.426-1.038-.545.2-.476.356-.964.49-1.455H28v2zm0-6h-7.475c.057.666.068 1.333.008 2H28v-2zm0-4h-8.55c.308.646.544 1.315.726 2H28v-2zm4-4.8V26h-7.18l-1.998-2H30V10h-8V2h-8v4.58c-.646-.3-1.31-.563-2-.748V0h12.8L32 7.2zm-2 .18L24.62 2H24v6h6v-.62zm-6.36 22.834l-1.43 1.43c-.396.397-1.036.397-1.433 0l-4.41-4.407c-.387-.39-.387-1.007-.02-1.403l-1.928-1.93.022-.024-.002-.003c-3.46 2.74-8.477 2.55-11.672-.644-3.44-3.44-3.44-9.02 0-12.46s9.02-3.44 12.46 0c3.21 3.208 3.384 8.25.61 11.71l.01-.01 1.926 1.925.025-.027c.394-.394 1.034-.394 1.433 0l4.406 4.41c.397.396.396 1.037 0 1.435zM13.415 12.59c-2.437-2.438-6.39-2.438-8.826-.003-2.437 2.437-2.437 6.39 0 8.827 2.436 2.438 6.39 2.438 8.826 0s2.436-6.39 0-8.824z"/></svg>