<svg xmlns="http://www.w3.org/2000/svg" width="32" height="32" viewBox="0 0 32 32"><path d="M31.607 27.838L25.474 21.7c-.523-.52-1.367-.52-1.887 0l-.035.036-2.533-2.533-.015.014c3.652-4.556 3.422-11.195-.803-15.42-4.53-4.527-11.875-4.53-16.404 0-4.53 4.53-4.53 11.875 0 16.406 4.205 4.204 10.81 4.455 15.365.848l.004.004-.033.033 2.54 2.54c-.485.52-.483 1.336.026 1.848l6.135 6.133c.52.523 1.365.523 1.887 0l1.885-1.883c.522-.523.523-1.367 0-1.887zM17.81 17.808c-3.208 3.21-8.41 3.21-11.618 0-3.21-3.208-3.21-8.41 0-11.62 3.207-3.206 8.41-3.206 11.62.003 3.206 3.207 3.208 8.41 0 11.62z"/></svg>