<svg xmlns="http://www.w3.org/2000/svg" width="32" height="32" viewBox="0 0 32 32"><path d="M19.086 10.254l2.96-2.674-.77-1.86-3.984.204-1.12-1.12.202-3.985-1.86-.773-2.673 2.96h-1.585L7.58.048 5.723.82l.203 3.983-1.12 1.12-3.987-.202-.77 1.86 2.96 2.674v1.586L.05 14.514l.77 1.86 3.986-.204 1.12 1.12-.202 3.985 1.86.77 2.673-2.96h1.586l2.675 2.96 1.86-.77-.204-3.984 1.122-1.12 3.984.203.77-1.86-2.96-2.673v-1.586zm-8.04 4.594c-2.097 0-3.8-1.703-3.8-3.8s1.703-3.802 3.8-3.802c2.1 0 3.802 1.703 3.802 3.8s-1.703 3.802-3.8 3.802zm16.302 8.277l-.484-.842.313-2.883-1.303-.754-2.34 1.713h-.973l-2.34-1.714-1.302.754.312 2.883-.486.842-2.652 1.17V25.8l2.652 1.17.486.84-.312 2.884 1.303.754 2.34-1.713h.974l2.34 1.713 1.303-.754-.313-2.883.484-.84 2.654-1.17v-1.505l-2.654-1.17zm-4.3 4.922c-1.657 0-3-1.344-3-3s1.343-3 3-3c1.655 0 3 1.344 3 3s-1.345 3-3 3z"/></svg>