<svg xmlns="http://www.w3.org/2000/svg" width="32" height="32" viewBox="0 0 32 32"><path d="M28.2 14.818l3.384-2.318-.883-2.717-4.1.113-1.444-1.986 1.375-3.865-2.31-1.678-3.25 2.5-2.335-.758-1.16-3.935H14.62L13.46 4.11l-2.336.757-3.25-2.5-2.31 1.678L6.94 7.91 5.493 9.896l-4.1-.113L.51 12.5l3.384 2.318v2.457L.51 19.593l.884 2.717 4.1-.113 1.445 1.986-1.376 3.865 2.31 1.678 3.25-2.5 2.336.758 1.16 3.934h2.855l1.16-3.934 2.336-.758 3.25 2.5 2.31-1.678-1.374-3.865 1.445-1.986 4.1.113.884-2.717-3.385-2.318v-2.457zm-12.153 7.03c-3.203 0-5.8-2.598-5.8-5.8s2.597-5.802 5.8-5.802 5.8 2.598 5.8 5.8-2.597 5.802-5.8 5.802z"/></svg>