<svg xmlns="http://www.w3.org/2000/svg" width="32" height="32" viewBox="0 0 32 32"><path d="M22.79 10l-1.983 2.12 1.416 1.415L23.637 12h1.275l.707.967-7.866 7.865c-.524-.348-1.115-.602-1.754-.73V5.196h1L18 6v2h2V5.197L15 0l-5 5.196V8h2V6l1-.804h1v14.906c-.64.13-1.23.383-1.754.73L4.38 12.967 5.09 12h1.275l1.414 1.535L9.19 12.12 7.21 10H0v7.21l2.12 1.983 1.415-1.416L2 16.363v-1.275l.967-.707 7.865 7.866C10.31 23.036 10 23.98 10 25c0 2.762 2.238 5 5 5s5-2.238 5-5c0-1.02-.31-1.965-.832-2.754l7.865-7.865.967.708v1.275l-1.535 1.414 1.414 1.416L30 17.21V10h-7.21zM15 28c-1.656 0-3-1.344-3-3s1.344-3 3-3 3 1.344 3 3-1.344 3-3 3z"/></svg>