<svg xmlns="http://www.w3.org/2000/svg" width="32" height="32" viewBox="0 0 32 32"><path d="M7.1 12c-.036-.333-.1-.658-.1-1 0-4.963 4.04-9 9.006-9C20.966 2 25 6.037 25 11s-4.035 9-8.994 9c-.552 0-1 .448-1 1s.448 1 1 1c5.022 0 9.258-3.39 10.568-8h1.716c.91 0 1.65-.74 1.65-1.65v-2.7c0-.91-.74-1.65-1.65-1.65h-1.716c-1.31-4.61-5.546-8-10.568-8C9.938 0 5 4.936 5 11c0 .338.02.67.05 1h2.052zM23 11c0-3.868-3.136-7-6.994-7C12.134 4 9 7.132 9 11c0 3.863 3.134 7 7.006 7C19.864 18 23 14.863 23 11zm8.666 19.848C31.258 25.4 21.446 24 16 24 10.57 24 .74 25.407.332 30.848c-.03.402-.057.78-.083 1.152h31.5l-.084-1.152z"/></svg>