<svg xmlns="http://www.w3.org/2000/svg" width="32" height="32" viewBox="0 0 32 32"><path d="M8 20h6v10h4V20h6l-8-8zM27.08 8.793C26.428 4.045 22.596.397 17.95.397c-3.48 0-6.503 2.045-8.08 5.062-.435-.118-.882-.2-1.345-.2-2.563 0-4.47 1.91-4.646 4.326C1.706 10.7.2 12.954.2 15.558.2 19.095 3.09 22 6 22v-2.4c-1.54 0-3.4-1.802-3.4-4.042 0-1.614.91-3.084 2.375-3.837l1.2-.615.1-1.345c.09-1.236 1.015-2.1 2.25-2.1.194 0 .43.037.718.115l1.86.503.894-1.707c1.217-2.327 3.5-3.773 5.955-3.773 3.354 0 6.256 2.718 6.752 6.323l.203 1.484 1.424.468c1.837.606 3.07 2.33 3.07 4.292 0 2.347-1.858 4.235-3.4 4.235V22c2.84 0 5.802-2.937 5.802-6.637 0-3.07-1.982-5.67-4.72-6.57z"/></svg>