<svg xmlns="http://www.w3.org/2000/svg" xmlns:xlink="http://www.w3.org/1999/xlink" width="942" height="402" viewBox="0 0 942 402"><defs><filter id="a" filterUnits="userSpaceOnUse" x=".208" y=".114" width="401.769" height="401.772"><feColorMatrix values="1 0 0 0 0 0 1 0 0 0 0 0 1 0 0 0 0 0 1 0"/></filter></defs><mask maskUnits="userSpaceOnUse" x=".208" y=".114" width="401.769" height="401.772" id="e"><g filter="url(#a)"><path d="M.212.114h401.765v401.758H.212z"/><g enable-background="new"><defs><path id="b" d="M.212 186.03v33.108c7.606 93.503 79.06 168.98 170.685 182.748h60.387c91.684-13.78 163.122-89.29 170.684-182.854v-32.904C393.605 82.508 306.874 1.03 201.084 1.03 95.38 1.03 8.644 82.464.212 186.03"/></defs><clipPath id="c"><use xlink:href="#b" overflow="visible"/></clipPath><radialGradient id="d" cx="78.524" cy="487.728" r="9.319" gradientTransform="matrix(21.626 0 0 -21.626 -1497.063 10750.234)" gradientUnits="userSpaceOnUse"><stop offset="0" stop-color="#FFF"/><stop offset=".659" stop-color="#FFF"/><stop offset=".667" stop-color="#EAE8E8"/><stop offset=".712" stop-color="#A39E9E"/><stop offset=".759" stop-color="#726B6B"/><stop offset=".806" stop-color="#514A4A"/><stop offset=".853" stop-color="#3B3435"/><stop offset=".901" stop-color="#2C2626"/><stop offset=".949" stop-color="#221C1D"/><stop offset="1" stop-color="#1F191A"/></radialGradient><path clip-path="url(#c)" fill="url(#d)" d="M.212 1.03h401.755v400.856H.212z"/></g></g></mask><g mask="url(#e)"><defs><path id="f" d="M.208.114H401.97v401.772H.21z"/></defs><clipPath id="g"><use xlink:href="#f" overflow="visible"/></clipPath><g clip-path="url(#g)"><defs><path id="h" d="M.212.114h401.765v401.772H.212z"/></defs><clipPath id="i"><use xlink:href="#h" overflow="visible"/></clipPath><path clip-path="url(#i)" fill="#FFF" d="M401.97 200.995c0 110.927-89.933 200.892-200.88 200.892C90.142 401.887.207 311.922.207 200.995.208 90.055 90.143.115 201.088.115c110.95 0 200.883 89.94 200.883 200.88"/></g></g><defs><filter id="j" filterUnits="userSpaceOnUse" x="49.418" y="52.609" width="298.428" height="298.419"><feColorMatrix values="1 0 0 0 0 0 1 0 0 0 0 0 1 0 0 0 0 0 1 0"/></filter></defs><mask maskUnits="userSpaceOnUse" x="49.418" y="52.609" width="298.428" height="298.419" id="n"><g filter="url(#j)"><path d="M49.43 52.61h298.416v298.418H49.43z"/><g enable-background="new"><defs><path id="k" d="M53.482 202.99c0 80.177 64.99 145.163 145.138 145.163 80.172 0 145.167-64.986 145.167-145.163 0-80.164-64.995-145.147-145.167-145.147-80.147 0-145.138 64.983-145.138 145.147"/></defs><clipPath id="l"><use xlink:href="#k" overflow="visible"/></clipPath><radialGradient id="m" cx="79.379" cy="483.346" r="9.32" gradientTransform="matrix(15.575 0 0 -15.575 -1037.68 7730.945)" gradientUnits="userSpaceOnUse"><stop offset="0" stop-color="#FFF"/><stop offset=".945" stop-color="#FFF"/><stop offset=".945" stop-color="#F5F4F4"/><stop offset=".95" stop-color="#B0ABAB"/><stop offset=".955" stop-color="#807979"/><stop offset=".961" stop-color="#5D5656"/><stop offset=".967" stop-color="#463F3F"/><stop offset=".973" stop-color="#352E2F"/><stop offset=".98" stop-color="#292323"/><stop offset=".988" stop-color="#211B1C"/><stop offset="1" stop-color="#1F191A"/></radialGradient><path clip-path="url(#l)" fill="url(#m)" d="M53.482 57.843h290.3v290.31h-290.3z"/></g></g></mask><g mask="url(#n)"><defs><path id="o" d="M49.423 52.61h298.42v298.418H49.422z"/></defs><clipPath id="p"><use xlink:href="#o" overflow="visible"/></clipPath><g clip-path="url(#p)"><defs><path id="q" d="M49.43 52.61h298.416v298.418H49.43z"/></defs><clipPath id="r"><use xlink:href="#q" overflow="visible"/></clipPath><path clip-path="url(#r)" fill="#FFF" d="M347.835 201.82c0 82.384-66.796 149.208-149.212 149.208-82.397 0-149.205-66.824-149.205-149.208 0-82.414 66.808-149.21 149.205-149.21 82.416 0 149.212 66.796 149.212 149.21"/></g></g><path fill="#FFF" d="M875.005 39.35c15.775 0 27.962 11.428 27.962 26.534 0 15.126-12.187 26.563-27.962 26.563-15.774 0-27.23-12.557-27.23-26.563 0-14 11.455-26.534 27.23-26.534M854.62 123.1h41.505v166.06H854.62zM519.204 242.485c-9.777 10.288-22.33 17.61-40.32 17.61-23.197 0-41.872-14.898-44.655-39.435h126.63v-11.416c0-57.795-31.475-90.29-77.865-90.29-50.143 0-90.263 34.924-90.263 87.168 0 52.235 40.12 87.185 90.263 87.185 22.875 0 44.417-7.11 62.393-24.628l-26.184-26.195zm-42.076-92.42c25.957 0 41.864 15.237 42.227 39.442H434.23c3.125-23.876 18.354-39.443 42.898-39.443M618.765 169.8c0-12.457 13.14-17.65 24.234-17.65 14.08 0 24.448 5.84 32.395 16.812l26.39-26.372c-13.67-17.07-36.32-23.64-57.76-23.64-33.56 0-66.784 16.595-66.784 53.624 0 63.32 89.596 36.317 89.596 70.566 0 13.143-15.562 19.02-27.666 19.02-17.593 0-28.655-8.59-39.347-20.312l-26.812 26.796c16.825 18.257 38.6 24.664 63.745 24.664 33.887 0 71.62-13.834 71.62-53.278 0-64.707-89.61-40.488-89.61-70.23M833.57 121.333c-4.8-1.36-9.613-2.384-14.75-2.384-21.81 0-40.16 11.406-49.155 30.416h-.672v-26.27H727.49v166.062h41.503v-88.926c0-8.99 5.516-41.858 44.63-41.858 6.02 0 12.016 1.194 18.314 2.693l1.632-39.734zM928.34 122.27c7.4 0 13.452 6.054 13.452 13.457 0 7.404-6.053 13.433-13.45 13.433-7.41 0-13.434-6.028-13.434-13.433 0-7.404 6.025-13.457 13.433-13.457m0 24.515c6.12 0 11.068-4.954 11.068-11.06 0-6.113-4.95-11.06-11.067-11.06-6.107 0-11.048 4.947-11.048 11.06 0 6.106 4.94 11.06 11.05 11.06m-5.173-18.826h5.924c3.705 0 5.417 1.652 5.417 4.63 0 2.662-1.564 3.957-3.656 4.212l3.985 6.508h-2.956l-3.837-6.296h-2.044v6.296h-2.834v-15.35zm2.833 6.68h2.044c1.73 0 3.658-.103 3.658-2.18 0-2.063-1.928-2.174-3.658-2.128h-2.044v4.31z"/><defs><path id="s" d="M71.378 203.257c0 71.03 57.59 128.585 128.582 128.585 71.023 0 128.605-57.556 128.605-128.585 0-71.006-57.582-128.583-128.605-128.583-70.992 0-128.582 57.577-128.582 128.583"/></defs><clipPath id="t"><use xlink:href="#s" overflow="visible"/></clipPath><radialGradient id="u" cx="77.734" cy="476.214" r="9.319" gradientTransform="matrix(9.784 0 0 -9.784 -601.72 4838.906)" gradientUnits="userSpaceOnUse"><stop offset="0" stop-color="#A9E0F6"/><stop offset="1" stop-color="#147BC1"/></radialGradient><path clip-path="url(#t)" fill="url(#u)" d="M71.378 74.674H328.56v257.168H71.378z"/><defs><path id="v" d="M145.685 102.084c-9.915.42-19.413 1.73-28.882 3.143-26.823 22.777-44.155 56.33-45.33 93.988 7.586 7.99 17.592 26.043 29.146 36.488 1.526-.69 3.183-1.267 4.954-1.81-5.673-6.582-13.59-15.308-14.784-19.314-5.834-19.683.916-38.098 15.52-39.55 13.082-1.318 24.304-20.776 33.534-33.556 18.982-26.25 48.138-21.86 46.68-35.008-1.675-7.684-6.224-10.027-12.014-10.027-8.704-.003-20.188 5.31-28.825 5.644"/></defs><clipPath id="w"><use xlink:href="#v" overflow="visible"/></clipPath><radialGradient id="x" cx="77.055" cy="480.356" r="9.325" gradientTransform="matrix(12.004 0 0 -12.004 -771.234 5946.844)" gradientUnits="userSpaceOnUse"><stop offset="0" stop-color="#A4CD39"/><stop offset=".961" stop-color="#0F9F49"/><stop offset="1" stop-color="#0F9F49"/></radialGradient><path clip-path="url(#w)" fill="url(#x)" d="M71.48 96.437H187.98v139.26H71.48z"/><g><defs><path id="y" d="M111.075 232.326c-1.895.547-3.742 1.047-5.502 1.568-1.585.426-2.824 1.055-4.955 1.81-4.732 2.094-8.138 5.33-8.938 12.206-1.44 12.504 10.44 22.298 20.455 25.18 12.688 3.634 13.767-.626 20.414 8.388 4.66 6.29 5.568 17.967 7.94 25.647 1.337 4.297 3.123 8.55 5.284 12.744 9.073 4.218 18.71 7.44 28.785 9.45 2.492-14.806 1.37-34.804 4.675-43.44 6.798-17.692 10.623-25.48 1.454-43.738-20.194-5.715-26.334-7.522-46.673-11.697-4.16-.847-6.74-1.275-9.068-1.275-3.618 0-6.6 1.027-13.875 3.156"/></defs><clipPath id="z"><use xlink:href="#y" overflow="visible"/></clipPath><radialGradient id="A" cx="78.452" cy="484.728" r="9.334" gradientTransform="matrix(15.257 0 0 -15.257 -1015 7568.836)" gradientUnits="userSpaceOnUse"><stop offset="0" stop-color="#A4CD39"/><stop offset=".961" stop-color="#0F9F49"/><stop offset="1" stop-color="#0F9F49"/></radialGradient><path clip-path="url(#z)" fill="url(#A)" d="M90.24 229.17h99.62v100.15H90.24z"/></g><g><defs><path id="B" d="M236.13 129.81c-5.96 8.51-26.857 10.842-33.553 20.417-5.223 7.47.167 22.155-4.378 30.627-2.096 3.907-1.13 15.242 1.432 18.947 8.042 11.703 21.406 5.2 31.463 9.404 12.283 5.122 13.68 19.375 23.866 29.78 10.188 10.43-13.003 26.49 5.94 64.405 2.02 4.077 4.382 7.055 6.906 9.104 12.814-7.977 24.094-18.132 33.364-29.966 2.87-19.15-3.598-25.272 4.495-42.804 4.98-10.81 13.518-29.525 22.737-42.218-1.553-35.504-17.5-67.272-42.16-89.6-2.312.643-5.26.754-9.277.03-3.446-.637-6.554-.916-9.372-.916-19.014.002-24.682 13.094-31.463 22.79"/></defs><clipPath id="C"><use xlink:href="#B" overflow="visible"/></clipPath><radialGradient id="D" cx="78.33" cy="490.897" r="9.32" gradientTransform="matrix(20.167 0 0 -20.167 -1387.172 10012.484)" gradientUnits="userSpaceOnUse"><stop offset="0" stop-color="#A4CD39"/><stop offset=".961" stop-color="#0F9F49"/><stop offset="1" stop-color="#0F9F49"/></radialGradient><path clip-path="url(#C)" fill="url(#D)" d="M196.104 107.022h132.298v205.473H196.104z"/></g><path fill="#1F191A" d="M158.752 174.55c21.882-9.293 45.602-16.738 77.575-19.415-8.143-19.544-17.136-33.35-27.712-45.997-23.574 1.893-45.093 8.25-63.695 15.937 2.733 14.483 7.9 32.01 13.832 49.474m102.013 53.882c-30.272-.36-56.694 6.88-74.756 15.762 7.655 16.483 22.792 38.322 28.444 47.314 9.844-3.67 20.42-6.42 28.624-7.7 8.21-1.278 19.146-2.486 26.56-2.35-1.34-19.197-3.583-32.136-8.873-53.026m-80.232 4.77c24.194-11.122 50.753-16.127 77.494-15.4-7.297-25.288-11.482-37.018-17.692-52.408-29.71 1.286-55.056 8.613-78.152 19.555 0-.002 8.507 27.356 18.35 48.253m92.99-122.05c-14.822-2.69-36.457-4.4-52.506-3.433 10.942 15.152 18.963 28.35 26.495 47.156 20.302.508 47.888 6.564 59.198 11.013-6.743-18-19.566-40.852-33.186-54.738m46.14 119.52c-.917-16.71-3.473-39.033-9.667-54.57-16.418-6.587-38.837-10.708-58.532-10.896 6.076 14.17 13.142 37.852 16.594 53.088 14.22 1.71 36.465 5.73 51.603 12.38m-13.555-116.83c-21.158-25.91-69.042-47.95-122.354-44.632 11.913 7.854 21.828 19.715 30.52 29.48 13.303-1.22 41.265.978 51.78 3.886-1.79-2.12-3.993-4.215-4.56-5.46-1.494-3.21 2.094-3.897 4.98-2.064 3.647 2.333 7.853 5.12 11.187 8.52 6.183 1.388 21.392 6.598 28.448 10.27m25.528 124.718c-.605 2.083-4.26 4.17-5.96 3.647.247 3.69-.614 22.03-1.58 29.108 2.545-5.233 7.41-18.224 8.872-23.7l2.06-8.064c2.05-6.862 8.7-30.542 2.677-61.696-6.674-34.62-19.2-46.974-23.582-52.475-11.125-6.048-27.957-11.54-27.957-11.54 15.26 20.653 20.543 30.37 29.667 54.97 5.29 2.75 14.895 8.072 16.084 9.537.97 1.142.98 3.21-2.036 3.167-2.504-.02-7.366-2.415-11.132-3.422 4.008 13.4 7.11 38.43 6.878 55.197 0 0 6.613 3.203 6.01 5.27m-19.452 50.94c2.19-2.186 5.47-6.825 6.75-9.53 1.275-10.984 1.316-33.52.845-40.09-13.25-5.37-33.726-9.62-48.69-10.724 4.87 17.852 7.303 44.11 7.667 52.662 7.175.73 25.284 4.398 33.427 7.683m-34.036 30.187c11.596-7.232 22.492-15.54 30.39-25.545-6.8-1.703-22.002-3.768-29.543-3.285 0 0-.24 18.066-.847 28.83m-31.66 14.92c5.767-1.846 20.456-8.516 23.513-10.522.73-11.846.61-25.304.123-33.346-15.44 0-37.197 4.515-49.656 9.737 7.232 11.63 17.2 24.464 26.022 34.13m-69.42-10.122c4.317 4.354 21.423 15.682 21.423 15.682 11.377.49 25.75-.844 36.013-2.64-5.657-6.453-19.788-26.457-24.074-33.194-10.943 4.59-24.794 13.037-33.362 20.152m-46.746-47.606c10.882 13.952 27.916 31.66 39.767 41.438 11.222-9.015 23.94-17.44 34.517-22.572-9.125-14.154-22.61-34.704-28.26-47.347-20.243 8.977-31.736 16.503-46.023 28.482m-28.927-55.958c6.933 19.78 13.634 34.87 22.388 47.318 10.233-8.9 31.222-22.957 47.27-30.653-5.285-11.36-12.916-32.598-18.235-48.503-20.668 10.148-36.104 20.036-51.423 31.837m-16.59-59.376c1.65 11.377 7.112 35.916 12.03 48.37 11.682-8.79 38.107-25.102 53.07-31.7-5.23-19.06-8.752-31.095-11.678-50.33-21.15 9.408-43.508 24.017-53.422 33.66m-2.565-40.542c-.734 5.734.03 16.336 1.47 28.993 11.67-10.442 34.218-24.06 53.064-32.37-2.188-14.36-4.505-37.268-4.262-43.365-17.428 9.56-36.564 28.784-50.583 48.502m57.032-59.774c25.06-10.367 49.453-16.068 77.617-12.216 3.132.425 2.875 3.082-.455 3.112l-3.973.106c-22.683.353-56.05 7.555-73.31 17.33-.364 11.51 1.82 29.804 4.135 44.222 15.678-6.598 39.93-13.374 58.345-15.394-10.456-11.113-24.676-21.624-26.376-22.845-1.7-1.22-2.553-3.3-2.553-5.983.244-5.015 4.55-5.64 6.86-5.046 7.66-1.496 15.286-3.156 28.27-2.77 54.868-2.4 104.998 28.638 124.128 64.023 48.48 76.655.022 182.41-63.445 210.573-27.142 12.05-50.42 17.246-93.33 11.264-42.99-6.005-78.138-27.018-105.437-71.198-33.624-54.44-14.695-117.86-9.97-131.153 20.244-47.74 53.42-73.034 79.496-84.027m-64.733 94.34c-.54-8.246-1.203-19.547-1.203-19.547-6.058 13.18-9.682 21.12-11.372 36.503 4.24-7.506 12.576-16.958 12.576-16.958m88.56 167.12c-9.126-6.805-31.702-28.212-41.06-41.118-3.434 2.02-7.266 7.526-12.245 8.47-1.953.366-6.357.904-7.657.366-1.297-.536.293-3.283 1.698-5.126 2.435-3.172 5.99-7.31 11.186-11.33-11.122-16.306-16.408-28.226-23.977-47.88-4.373 2.728-7.547 5.157-11.364 8.187-1.282 1.014-4.814 1.66-6.53.125-3.11-2.794-3.16-7.713 1.215-10.828 1.795-1.278 10.687-7.422 12.762-9.152-5.47-15.774-10.04-36.498-11.26-47.248-3.64 3.168-8.766 6.776-10.207 7.757-2.076.588-3.46-.08-4.06-.177-2.08 22.304.32 46.857 6.953 69.03 11.397 38.126 43.366 74.482 86.51 88.01 1.003-1.505 5.966-7.246 8.037-9.085m22.49 15.275c-4.263-2.438-9.605-6.226-14.59-9.53-2.066 1.828-3.736 4.514-5.386 6.672 5.715 1.944 13.412 2.12 19.975 2.857"/></svg>