<svg baseProfile="basic" id="Layer_1" xmlns="http://www.w3.org/2000/svg" viewBox="90 -35 210 100"><style>.st0{opacity:0.6;fill:#7BB974;} .st1{fill:none;stroke:#31872E;stroke-width:0.5241;stroke-linecap:round;stroke-linejoin:round;stroke-miterlimit:10;} .st2{fill:#939598;}</style><path class="st0" d="M300 11.46l-2.81 1.87-2.8-.91-2.8-6.33-2.8-5.97-2.81 8.51-2.79-5.94-2.8 5.37-2.81-3.39-2.8 4.39-2.8-1.85-2.8-5.37-2.8-1.62-2.8 3.2-2.8 4.73-2.8-3.61-2.8 2.29-2.8-.43-2.8 2.79-2.8-1.18-2.81-5.34-2.79-6.64L238.37.6l-2.79-1.79-2.8 1.98-2.81-.57-2.8 1.23-2.8-1.6-2.8 8.04-2.8 2.62-2.8-4.44-2.8 11.59-2.8 1.35-2.8-7.18-2.8-2.36-2.8-6.6-2.8-6.97-2.8 10.27-2.8 8.68-2.8-4.81-2.81-3.96-2.8 4.05-2.8-4.33-2.8 5.56-2.8 1.91-2.8-.87-2.8-6.32-2.8-5.97-2.8 8.51-2.8-5.94-2.8 5.38-2.8-3.4-2.8 4.4-2.8-1.85-2.8-5.37-2.81-1.62-2.8 3.2-2.8 4.73-2.8-3.61-2.8 2.29-2.8-.43-2.8 2.79-2.8-1.18-2.8 3.07-2.8-6.65-2.8 4.57-2.8-1.79-2.8 1.98-2.8-.57-2.8 1.23-2.8-1.6-2.81-.36-2.8 2.62-2.84-4.64L90 17.66v7.62h210z"/><path class="st1" d="M90.08 17.66l5.46-11.59 2.8 4.44 2.8-2.62 2.81.36 2.8 1.6 2.8-1.23 2.8.57 2.8-1.98 2.8 1.79 2.8-4.57 2.8 6.65 2.8-3.07 2.8 1.18 2.8-2.79 2.8.43 2.8-2.29 2.8 3.61 2.8-4.73 2.8-3.2 2.81 1.62 2.8 5.37 2.8 1.85 2.8-4.4 2.8 3.4 2.8-5.38 2.8 5.94 2.8-8.51 2.8 5.97 2.8 6.32 2.8.87 2.8-1.91 2.8-5.56 2.8 4.33 2.8-4.05 2.81 3.96 2.8 4.81 2.8-8.68 2.8-10.27 2.8 6.97 2.8 6.6 2.8 2.36 2.8 7.18 2.8-1.35 2.8-11.59 2.8 4.44 2.8-2.62 2.8-8.04 2.8 1.6 2.8-1.23 2.81.57 2.8-1.98L238.37.6l2.81-4.57 2.79 6.64 2.81 5.34 2.8 1.18 2.8-2.79 2.8.43 2.8-2.29 2.8 3.61 2.8-4.73 2.8-3.2 2.8 1.62 2.8 5.37 2.8 1.85 2.8-4.4 2.81 3.4 2.8-5.38 2.79 5.94 2.81-8.51 2.8 5.97 2.8 6.32 2.8.87 2.8-1.91"/><g><path class="st2" d="M91.14 29.74h.75l1.44 3.33h.01l1.45-3.33h.73v4.25h-.5v-3.56h-.01l-1.52 3.56h-.31l-1.52-3.56h-.01v3.56h-.5l-.01-4.25zM128.08 30.21h-1.4v3.78h-.5v-3.78h-1.4v-.47h3.31l-.01.47zM158.83 29.74h.56l.97 3.53h.01l1.04-3.53h.56l1.04 3.53h.01l.98-3.53h.53l-1.25 4.25h-.55l-1.05-3.6h-.01l-1.06 3.6h-.55l-1.23-4.25zM193.42 29.74h1.09c.2 0 .41.01.61.04.2.02.38.08.54.16s.29.2.39.35.15.36.15.63c0 .31-.09.56-.28.76-.19.19-.45.31-.78.37l1.21 1.96h-.62l-1.15-1.91h-.65v1.91h-.5v-4.27h-.01zm.5 1.87h.45c.14 0 .29 0 .44-.01s.29-.03.41-.08.23-.11.31-.21.12-.23.12-.41c0-.15-.03-.27-.09-.37-.06-.09-.14-.16-.24-.21s-.21-.08-.33-.1-.25-.02-.37-.02h-.71v1.41h.01zM227.51 29.74h2.63v.47h-2.13v1.4h1.98v.47h-1.98v1.91h-.5v-4.25zM263.62 30.49c-.08-.14-.2-.24-.34-.3s-.29-.09-.44-.09c-.11 0-.22.01-.33.04-.11.03-.21.07-.29.13-.09.06-.15.13-.21.22-.05.09-.08.2-.08.32 0 .1.02.18.05.25.03.07.08.14.15.2.07.06.16.12.28.17s.26.1.43.16c.16.05.32.11.48.17.15.06.29.14.41.23s.21.21.28.34c.07.14.1.31.1.52s-.04.4-.13.55c-.09.15-.19.29-.33.39-.14.1-.3.18-.48.23s-.37.08-.56.08c-.12 0-.25-.01-.37-.03s-.24-.06-.36-.1-.22-.11-.32-.18c-.1-.07-.19-.17-.26-.27l.43-.35c.09.16.22.27.38.35.16.08.34.12.52.12.11 0 .22-.02.33-.05s.21-.08.3-.14c.09-.06.16-.14.22-.23s.08-.2.08-.32c0-.13-.02-.24-.07-.32-.05-.08-.11-.15-.2-.21-.09-.06-.21-.11-.35-.16-.14-.05-.3-.1-.49-.17-.15-.05-.29-.1-.42-.17s-.24-.14-.33-.23-.17-.2-.22-.32c-.05-.13-.08-.28-.08-.45 0-.2.04-.38.12-.53.08-.15.19-.28.32-.38.14-.1.29-.18.46-.23.17-.05.35-.08.54-.08.24 0 .46.04.66.11s.38.2.53.39l-.41.34zM298.88 32.37c0 .23-.03.45-.09.66s-.15.39-.28.55c-.12.16-.29.28-.49.38-.21.09-.45.14-.74.14s-.54-.05-.74-.14c-.2-.09-.37-.22-.5-.38s-.22-.34-.28-.55-.09-.43-.09-.66v-2.63h.5v2.56c0 .17.02.34.05.5.04.16.1.3.18.43s.2.22.34.3c.14.08.32.11.53.11s.39-.04.53-.11.25-.17.34-.3c.09-.13.14-.27.18-.43.04-.16.05-.33.05-.5v-2.56h.5v2.63h.01z"/></g></svg>