<svg xmlns="http://www.w3.org/2000/svg" width="24" height="24" viewBox="244 244 24 24"><g fill="#939598"><path d="M263.574 253.363c-.087-.24-.186-.482-.297-.717-.34-.71-.778-1.36-1.31-1.94-.08-.086-.16-.166-.235-.24-.092-.093-.197-.192-.296-.285-.588-.53-1.247-.968-1.964-1.296-.234-.11-.475-.197-.673-.266 0 0-.43-.147-.65-.203-.228-.056-.513-.117-.513-.117-.382-.074-.766-.118-1.155-.136-.234-.013-.47-.013-.698 0-.797.037-1.58.19-2.33.463-.24.086-.48.185-.715.296-.693.334-1.335.76-1.91 1.28-.1.086-.19.18-.278.266-.086.086-.18.18-.265.278-.538.593-.982 1.26-1.316 1.983-.09.204-.178.42-.258.636-.272.747-.426 1.53-.463 2.33-.013.227-.013.462 0 .697.017.376.06.753.13 1.13 0 0 .048.24.16.647.11.415.19.618.19.618.074.203.155.4.248.593.333.717.765 1.377 1.296 1.964.093.105.186.204.284.298.075.073.155.147.24.233.58.532 1.236.977 1.94 1.31.228.11.47.21.716.297.735.266 1.5.42 2.285.457.265.013.53.013.79 0 .777-.038 1.544-.186 2.273-.45.192-.068.42-.148.66-.26.643-.297 1.29-.71 1.84-1.186 0 0 .16-.148.397-.383.234-.235.396-.42.396-.42.476-.543.852-1.112 1.167-1.773.136-.283.248-.537.32-.76.26-.733.414-1.5.452-2.278.013-.26.013-.53 0-.79-.048-.773-.195-1.538-.46-2.273zm-14.238 3.978c-.056-.327-.093-.66-.105-.994-.005-.204-.005-.408 0-.612.03-.69.168-1.383.402-2.038.068-.186.143-.37.23-.556.283-.617.672-1.205 1.148-1.735.074-.08.155-.167.234-.24.08-.08.16-.155.24-.236.508-.464 1.076-.835 1.67-1.12.203-.097.413-.185.624-.258.66-.234 1.346-.37 2.038-.4.204-.007.408-.013.61 0 .34.01.674.055 1.008.116l.945.253c.024.007.055.02.08.025.196.068.4.143.593.235.61.284 1.19.66 1.717 1.136.086.08.174.16.26.247.067.068.136.142.203.216.476.518.86 1.092 1.15 1.697.098.204.185.415.26.624.232.65.362 1.323.4 2.002.012.222.012.457.007.686-.033.672-.162 1.345-.396 1.995-.08.223-.19.463-.29.674-.26.543-.575 1.044-1.026 1.556l-.696.698c-.47.41-1.03.772-1.613 1.038-.192.088-.372.155-.568.224-.644.228-1.315.357-1.99.388-.228.013-.463.007-.69 0-.68-.036-1.354-.166-1.996-.4-.21-.074-.42-.16-.625-.26-.604-.29-1.18-.674-1.697-1.15-.075-.066-.143-.136-.21-.203-.086-.086-.167-.172-.247-.26-.476-.523-.853-1.104-1.137-1.716-.088-.19-.168-.388-.242-.586-.013-.03-.02-.042-.025-.074l-.267-.97z"/><path d="M267.953 257.024v-1.976l-2.057-.537c-.044-.27-.1-.543-.16-.815l1.703-1.29-.754-1.83-2.125.297c-.14-.23-.3-.432-.46-.655l1.09-1.834-1.395-1.396-1.865 1.074c-.216-.16-.433-.314-.66-.45l.326-2.16-1.822-.76-1.334 1.747c-.254-.062-.506-.117-.76-.16l-.536-2.143h-1.977l-.568 2.156c-.25.037-.5.093-.75.147l-1.327-1.79-1.828.76.297 2.204c-.235.144-.495.28-.723.446l-1.935-1.155-1.395 1.397 1.16 1.946c-.147.21-.277.432-.412.648l-2.193-.308-.754 1.828 1.786 1.34c-.06.248-.11.5-.147.754l-2.15.55v1.976l2.143.55c.037.26.093.513.148.77l-1.753 1.316.76 1.82 2.162-.307c.14.233.276.475.437.697l-1.105 1.89 1.396 1.396 1.865-1.125c.223.16.458.31.692.45l-.278 2.12 1.828.753 1.272-1.717c.272.07.55.112.828.156l.544 2.043h1.976l.512-2.044c.285-.045.562-.095.84-.162l1.278 1.673 1.828-.752-.308-2.082c.222-.135.42-.303.63-.456l1.79 1.044 1.397-1.396-1.037-1.786c.173-.232.34-.455.487-.703l2.09.296.76-1.822-1.682-1.267c.07-.278.124-.55.168-.834l2.055-.53zm-2.817 2.157l1.07.81-.174.414-1.327-.185-.644-.095-.34.556c-.14.23-.295.452-.438.638l-.388.525.314.55.655 1.125-.32.32-1.138-.66-.55-.32-.52.38c-.035.025-.067.05-.098.076-.168.122-.32.234-.47.326l-.556.342.1.646.197 1.316-.413.173-.815-1.07-.397-.512-.63.155c-.24.062-.5.11-.754.147l-.648.1-.156.63-.327 1.297h-.446l-.352-1.31-.167-.624-.636-.1c-.254-.035-.508-.086-.742-.146l-.636-.154-.39.525-.814 1.104-.414-.175.185-1.37.086-.635-.55-.335c-.234-.143-.432-.28-.618-.41l-.53-.387-.575.353-1.205.73-.315-.315.724-1.234.327-.562-.376-.525c-.124-.173-.247-.363-.402-.617l-.34-.562-.647.092-1.403.198-.167-.407 1.143-.86.52-.388-.15-.63c-.055-.23-.098-.464-.135-.693l-.1-.643-.635-.16-1.402-.363v-.444l1.41-.358.63-.16.104-.643c.037-.234.08-.463.136-.68l.148-.63-.52-.39-1.166-.876.167-.41 1.438.205.643.093.34-.556c.118-.19.242-.395.377-.574l.383-.525-.346-.568-.766-1.284.31-.31 1.27.76.57.34.53-.382c.16-.118.352-.235.55-.353l.092-.055.55-.333-.086-.636-.19-1.45.413-.174.865 1.167.39.525.636-.15c.222-.048.444-.098.673-.128l.637-.1.167-.628.376-1.42h.445l.353 1.4.16.637.65.104c.227.037.455.08.685.136l.623.15.39-.515.853-1.142.406.173-.21 1.396-.1.648.562.34c.192.117.39.247.6.4l.52.378.543-.31 1.205-.69.315.313-.698 1.175-.333.556.388.526c.167.23.297.42.408.593l.34.55.64-.094 1.367-.192.172.414-1.1.828-.518.39.154.63c.057.233.106.48.15.734l.097.642.625.16 1.31.34v.446l-1.31.338-.63.16-.1.644c-.036.253-.086.506-.148.746l-.153.632.536.413z"/></g><circle fill="none" stroke="#939598" stroke-miterlimit="10" cx="256.091" cy="255.991" r="1.707"/></svg>