<svg xmlns="http://www.w3.org/2000/svg" width="170" height="43.793" viewBox="0 0 170 43.793"><path opacity=".6" fill="#9BC29C" d="M169.996 12.816l-2.268 1.508-2.27-.732-2.267-5.125-2.266-4.838-2.27 6.89-2.265-4.81-2.268 4.35-2.268-2.748-2.267 3.555-2.267-1.494-2.267-4.35-2.268-1.31-2.266 2.592-2.27 3.83-2.267-2.927-2.266 1.86-2.268-.348-2.268 2.255-2.267-.953-2.268-4.322-2.265-5.38-2.268 3.7-2.267-1.45-2.267 1.604-2.268-.458-2.267.992-2.267-1.297-2.267 6.51-2.267 2.124-2.266-3.595-2.268 9.378-2.27 1.095-2.265-5.81-2.27-1.908-2.265-5.343L88.373.214l-2.268 8.318-2.266 7.022-2.268-3.89-2.268-3.207-2.267 3.282-2.267-3.512-2.268 4.502-2.267 1.55-2.267-.71L65.7 8.457l-2.266-4.833-2.267 6.893L58.9 5.71l-2.268 4.35-2.266-2.75-2.268 3.557-2.267-1.494-2.266-4.35-2.268-1.31-2.267 2.592-2.268 3.83-2.267-2.927-2.267 1.86-2.268-.348-2.267 2.255-2.267-.953-2.267 2.48-2.268-5.38-2.267 3.7-2.268-1.45-2.267 1.603-2.267-.458-2.267.993-2.267-1.298-2.27-.293-2.266 2.124-2.3-3.76L0 17.83V24h170"/><path fill="none" stroke="#9BC29C" stroke-width=".524" stroke-linecap="round" stroke-linejoin="round" stroke-miterlimit="10" d="M.066 17.828l4.42-9.38 2.268 3.596L9.02 9.92l2.27.292 2.266 1.298 2.267-.993 2.267.458 2.267-1.602 2.268 1.45 2.267-3.7L27.16 12.5l2.266-2.478 2.267.953L33.96 8.72l2.268.347 2.267-1.86 2.267 2.928 2.267-3.83 2.266-2.592 2.268 1.31 2.267 4.35 2.268 1.494 2.268-3.556 2.266 2.75L58.9 5.71l2.267 4.807 2.267-6.893L65.7 8.457l2.268 5.113 2.267.71 2.267-1.55 2.268-4.502 2.267 3.51 2.267-3.28 2.268 3.205 2.267 3.89 2.265-7.02 2.268-8.32 2.267 5.65 2.266 5.342 2.27 1.907 2.265 5.81 2.27-1.094 2.267-9.38 2.266 3.596 2.268-2.125 2.268-6.51 2.267 1.298 2.267-.992 2.268.458 2.267-1.603 2.267 1.45 2.268-3.7 2.265 5.38 2.268 4.322 2.267.953 2.267-2.255 2.267.347 2.266-1.86 2.268 2.928 2.27-3.83 2.265-2.592 2.268 1.31 2.267 4.35 2.267 1.494 2.267-3.556 2.268 2.75 2.267-4.35 2.265 4.807 2.27-6.893 2.265 4.833 2.267 5.113 2.27.71 2.265-1.55"/><path fill="none" d="M0 30.588h14.43v9.966H0z"/><text transform="translate(0 35.124)" fill="#939598" font-family="'Avenir-Roman'" font-size="6">J</text><path fill="none" d="M21.308 30.588h14.43v9.966h-14.43z"/><text transform="translate(21.308 35.124)" fill="#939598" font-family="'Avenir-Roman'" font-size="6">F</text><path fill="none" d="M42.615 30.588h14.43v9.966h-14.43z"/><text transform="translate(42.615 35.124)" fill="#939598" font-family="'Avenir-Roman'" font-size="6">M</text><path fill="none" d="M63.923 30.588h14.43v9.966h-14.43z"/><text transform="translate(63.923 35.124)" fill="#939598" font-family="'Avenir-Roman'" font-size="6">A</text><path fill="none" d="M85.23 30.588h14.43v9.966H85.23z"/><text transform="translate(85.23 35.124)" fill="#939598" font-family="'Avenir-Roman'" font-size="6">M</text><path fill="none" d="M106.54 30.588h14.43v9.966h-14.43z"/><text transform="translate(106.54 35.124)" fill="#939598" font-family="'Avenir-Roman'" font-size="6">J</text><path fill="none" d="M127.848 30.588h14.43v9.966h-14.43z"/><text transform="translate(127.848 35.124)" fill="#939598" font-family="'Avenir-Roman'" font-size="6">J</text><path fill="none" d="M149.155 30.588h14.43v9.966h-14.43z"/><text transform="translate(149.155 35.124)" fill="#939598" font-family="'Avenir-Roman'" font-size="6">A</text></svg>