<svg xmlns="http://www.w3.org/2000/svg" width="16" height="16" viewBox="0 0 16 16"><path clip-rule="evenodd" fill="none" d="M0 0h16v16H0z"/><path fill="#E5D255" d="M16 14.4s-3.2-1.6-8 0-8 0-8 0L2.1 1.6s3.2 1.1 5.9 0 5.9 0 5.9 0L16 14.4z"/><path fill="#6D6E71" d="M4 7h4v9H4zM7 5H5L4 7h4"/><path fill="#E0E0E0" d="M5 7l.5-1h1L7 7M5 8h2v7H5z"/><path fill="#F8F8F8" d="M5 8h1v7H5z"/><path fill="#6D6E71" d="M9 10h4v6H9z"/><path fill="#E0E0E0" d="M10 11h2v4h-2z"/><path fill="#F8F8F8" d="M10 11h1v4h-1z"/><path fill="#6D6E71" d="M12 8h-2l-1 2h4"/><path fill="#E0E0E0" d="M10 10l.5-1h1l.5 1"/></svg>