<svg xmlns="http://www.w3.org/2000/svg" width="16" height="16" viewBox="0 0 16 16"><path fill="none" d="M0 0h16v16H0z"/><path fill="#57A6D9" d="M1 0h3v3H1z"/><path fill="#C96B4B" d="M1 8h3v3H1z"/><path fill="#D3EAF9" d="M2 1h1v1H2z"/><linearGradient id="a" gradientUnits="userSpaceOnUse" x1="3.494" y1="6.49" x2="1.994" y2="4.99"><stop offset="0" stop-color="#003068"/><stop offset=".494" stop-color="#0066CF"/><stop offset="1" stop-color="#00C0FF"/></linearGradient><path fill="url(#a)" d="M2 5h1.5v1.5H2z"/><path fill="#F4DFD8" d="M2 9h1v1H2z"/><path fill="#5B945A" d="M2.5 7C1.7 7 1 6.3 1 5.5S1.7 4 2.5 4 4 4.7 4 5.5 3.3 7 2.5 7z"/><circle fill="#DDEEDB" cx="2.5" cy="5.5" r=".6"/><path fill="#9182BD" d="M3.3 15.2H1.7c-.4 0-.7-.2-.9-.5-.2-.3-.2-.7 0-1l.4-.7.4-.7c.2-.3.5-.5.9-.5s.7.2.9.5l.4.7.4.7c.2.3.2.7 0 1-.2.3-.5.5-.9.5z"/><path fill="#E6E2F0" d="M3.3 14.2H1.7l.4-.7.4-.7.4.7.4.7"/><path fill="#57A6D9" d="M6 1h8v1H6zM6 5h6v1H6zM6 9h4v1H6zM6 13h1v1H6z"/><path fill="#6D6E71" d="M16 11h-3V8h-2v3H8v2h3v3h2v-3h3"/></svg>