<svg xmlns="http://www.w3.org/2000/svg" width="16" height="16" viewBox="0 0 16 16"><path fill="#6D6E71" d="M1 1h14v14H1z"/><path fill="#D3EAF9" d="M2 2h12v12H2z"/><path fill="#F8F8F8" d="M13.1 9.9s0-.1-.1-.1c0-.3-.3-.8-1-.8-.6 0-.9.4-1.1.7-.1 0-.3-.1-.5-.1-.6 0-1.1.4-1.1 1v.4h-.1c-.2.2-.5.5-.5 1 0 .1 0 .2.1.3-.2.2-.8.5-.8 1.2 0 .2 0 .3.1.4v.1h6v-4h-.4c-.4 0-.5-.1-.6-.1z"/><path fill="#9BC29C" d="M14 10.7h-.4c-.3 0-.6 0-.9-.3-.3-.2-.3-.7-.6-.7-.5 0-.5.7-1 .7-.2 0-.3-.2-.5-.2s-.4.1-.4.3v.5c0 .4-.6.5-.6.9 0 .2.2.2.2.4 0 .6-1 .5-1 1.1 0 .2.1.3.1.5H14v-3.2z"/><path fill="#F8F8F8" d="M2 2v12h5.1c0-.1.1-.3.1-.5 0-.9-.8-1.1-1.2-1.2l.1-.1c.2-.2.6-.6.6-1.2 0-.5-.3-1.1-1-1.2h-.4c0-.1.1-.3.1-.5v-.1c.2.2.5.4 1 .4.8 0 1.3-.7 1.4-1.3.2.2.4.3.7.3.7 0 1-.6 1.2-.9.1-.1.1-.2.2-.3.8-.5.9-1.3.8-1.9.3 0 .6-.2.7-.4.3-.4.2-.8.2-1.1.2-.2.6-.5.6-1 0-.3-.1-.5-.2-.7 0 0 .1-.1.1-.3H2z"/><path fill="#9BC29C" d="M2 2v12h4.4c0-.2.1-.3.1-.5 0-.5-1-.4-1.2-.7-.4-.8.7-1 .7-1.7 0-.2-.1-.5-.3-.5-.4 0-.4.2-.8.2-.2 0-.4-.1-.4-.4 0-.4.3-.6.3-1 0-.2-.1-.4-.1-.6 0-.3.3-.6.6-.6s.5.3.6.5c0 .2.3.3.5.3.5 0 .8-.6.8-1 0-.2.2-.5.4-.5.3 0 .5.4.8.4.6 0 .6-.8 1.1-1 .6-.3.4-1.1.4-1.4 0-.2.3-.5.5-.5.7.1.4-.5.4-.8v-.1c.1-.3.6-.4.6-.8 0-.3-.2-.4-.2-.7 0-.2.1-.3.2-.4H2z"/><path clip-rule="evenodd" fill="none" d="M0 0h16v16H0z"/><path fill="#F0E498" d="M14 11.9c-.3 0-.7.1-1 0-.9-.1-1.6-.4-1.6.8 0 .2.1.6 0 .9-.2.4-.3.2-.5.4H14v-2.1zM2 2v12h1.7v-1.1c0-.5.1-.4-.4-.7-.4-.3-.5 0-.6-.7-.1-.9.3-1.8.4-2.7.1-.7-.1-2.2.9-2.5.6-.1 1.8.9 2.3.7.4-.1 1.4-.5 1.7-.8.3-.3 0-1 .2-1.4.1-.3.6-.4.7-.7.1-.4-.3-.8-.2-1.3 0-.3.3-.5.5-.8H2z"/><path fill="#EEAA5A" d="M2 4.2c.6-.4 1.4-.4 2.1-.1.4.2 1 1 1.6.4.2-.2.2-1.9.2-2.4v-.2H2v2.3z"/><path fill="#6D6E71" d="M3 5h2v2H3zM4 10h2v2H4zM7 3h2v2H7zM11 11h2v2h-2z"/></svg>