<svg xmlns="http://www.w3.org/2000/svg" width="16" height="16" viewBox="0 0 16 16"><path fill="none" d="M0 0h16v16H0z"/><path fill="#808284" d="M0 0h7v7H0zM9 0h7v7H9zM0 8h7v7H0zM9 8h7v7H9z"/><path fill="#F0E498" d="M1 1h5v5H1z"/><g fill="#9BC29C"><path d="M4.2 5c.2 0 0 .3-.2.3-.1 0-.2-.1-.3-.2-.1-.1-.2 0-.3 0-.4 0-.1-.2 0-.4.1-.1.2-.2.3-.1.1.1.3.2.5.4zM5 2.3c-.1 0-.4.1-.5.3-.1.1.1.3.1.4.1.2.2.2.2.4s.1.6.3.4c.2-.1.2-.5.2-.7 0-.2.3-.3.4-.5 0-.2-.1-.5-.4-.5-.1 0-.2.1-.3.1v.1zM2.9 4.2c.1-.2-.7-.4-.8-.3-.3 0-.4.6-.2.8.2.2.4-.1.5-.2.1-.1 0-.1.2-.1h.2l.1-.2z"/></g><path fill="#D3B490" d="M6 4.1c-.2.2-.5.3-.7.5-.7-.4-1.4-.7-1.8-1.4-.1-.3-.3-.4-.4-.6.2-.1.3-.3.4-.5.1-.4.3-.7.4-1.1h-.3c-.2.3-.3.6-.4.9-.1.2-.2.4-.3.5-.6-.5-1.2-.8-1.9-.8v.3c.6 0 1.1.2 1.6.6l-.6.3c-.4.2-.7.4-1 .5v.4c.4-.2.7-.4 1.1-.6.3-.1.5-.2.7-.3.2.1.3.3.4.5.4.8 1.1 1.2 1.9 1.6H5c-.2.3-.4.7-.6 1.1h.4c.2-.4.3-.7.5-.9l.1-.1c.1 0 .1 0 .2.1.1 0 .2.1.4.2v-.4c-.1 0-.2-.1-.3-.1l.3-.3v-.4zM1.6 5c-.2-.1-.4-.3-.6-.4V5c.1.1.3.2.4.3.2.2.2.1.2.2v.2c0 .1 0 .3-.1.4h.3c0-.1.1-.2.1-.4v-.3c-.1-.3-.3-.3-.3-.4z"/><path fill="#D3EAF9" d="M10 1h5v5h-5z"/><path fill="#6DB5E3" d="M12.8 1.4c.4 0 .3-.3.2-.4h-3v2.5l.1.1c.1.1.2.2.4.2.3 0 .5-.4.5-.6-.1-.1 0-.2.2-.2s.3.2.5.2c.3 0 .3-.4.6-.6.4-.2.3-.6.2-.9 0-.1.2-.3.3-.3zm1.7 3.3c-.2-.1-.2-.4-.4-.4-.3 0-.3.4-.6.4-.1 0-.2-.1-.3-.1-.1 0-.2.1-.2.2v.3c0 .2-.3.3-.3.6 0 .1.1.1.1.2V6H15V4.8c-.2 0-.4 0-.5-.1z"/><path fill="#9BC29C" d="M10 1v2c.2.1.3.3.4.4v-.1c0-.4.3-.7.7-.7.2 0 .3.1.5.2.1-.1.2-.4.4-.5v-.4c0-.2 0-.4.2-.5.1-.1.2-.2.4-.3H10zm4.2 4l-.1-.1c-.1.1-.3.3-.5.3h-.1c0 .3-.2.4-.3.5V6H15v-.7c-.3 0-.6-.1-.8-.3zM10 9h5v5h-5z"/><path fill="#F4EEC8" d="M11.7 11.8c.4-.4-.1-.9.2-1.2.3-.3.7-.2.9-.5.1-.2 0-.7 0-1H10v2.3c.7-.9 1.4.7 1.7.4zm3-1c-.3-.7-.3-1.2-1-.6-.3.2-.5.3-.3.7.1.4.4.5.3.9-.3 0-.5-.1-.7.2-.2.2 0 .5-.3.7-.3.2-.7.1-1 .2-.2 0-.3.1-.4.2.2.2.4.3.7.4.4.1.9.2 1.3.4-.2.1-.4.2-.6.2H15v-2.6c-.1-.2-.2-.5-.3-.7z"/><path fill="#F0E498" d="M14.3 10.9l-.1-.2c0-.1-.1-.3-.1-.4l-.2.2-.2.2h-.1v.1c0 .1.1.1.1.2.1.2.3.4.2.8 0 .2-.2.3-.4.3H13v.1c0 .2 0 .5-.4.7-.1.1-.2.1-.4.2.3.1.6.1.9.3.1.1.2.2.2.3 0 .1 0 .2-.1.3H15v-2c-.3-.2-.5-.7-.7-1.1zm-1.8-1.7V9H10v1.8c.1-.1.2-.1.4-.1.4 0 .7.2 1 .5l.1.1c0-.2-.1-.6.2-.9.2-.2.4-.3.6-.3.2 0 .2-.1.3-.1 0-.3 0-.6-.1-.8z"/><path fill="#F7CB93" d="M12.1 9H10v1.3c.1-.1.3-.1.4-.1.3 0 .5.1.7.2.1-.1.1-.3.3-.4.3-.3.6-.4.8-.4v-.3c-.1-.1-.1-.2-.1-.3zm2.3 2.9c-.1.3-.4.6-.7.6h-.1c0 .1-.1.3-.2.4 0 0 .1 0 .1.1.3.1.4.4.5.7 0 .1 0 .2-.1.3H15v-1.6c-.3-.1-.5-.2-.6-.5z"/><path fill="#D3EAF9" d="M1 9h5v5H1z"/><path fill-rule="evenodd" clip-rule="evenodd" fill="#E9DED4" d="M4.8 9.2c0 .1 0 .1 0 0l-.1.1c-.1 0-.2-.1-.3-.1h-.1H4s-.1 0-.1.1l-.1.1c-.1 0-.1.1-.2.1l-.1.1c-.4.3-.4.4-.3.6v.4l-.2.2h-.2c-.3.2-.6.3-.6.5v.1c0 .1 0 .3-.1.4 0 .2-.1.2-.1.2h-.1-.7s-.1 0-.1.1V14h5V9H4.7c.1.1.1.2.1.2z"/><path fill="#D3B490" d="M5 9c0 .1 0 .1.1.2v.2c0 .1-.1.1-.1.2h-.1-.1c-.2 0-.3-.1-.4-.1h-.1-.1-.1l-.1.1c-.1 0-.1.1-.2.1l-.1.1-.1.1c0 .1-.1.1 0 .2v.1c0 .3 0 .6-.1.7h-.1c0 .1-.1.1-.1.2-.1 0-.1 0-.2.1H3c-.2.1-.4.2-.5.4 0 .1 0 .3-.1.4-.1.2-.1.3-.3.3h-.2c-.2 0-.4-.1-.6 0 0 0-.1.1-.2.1V14h5V9H5z"/></svg>