<svg xmlns="http://www.w3.org/2000/svg" width="16" height="16" viewBox="0 0 16 16"><path fill="#6DB5E3" d="M1 4h15v12H1z"/><path fill="#939598" d="M2 13h13v2H2z"/><path fill="#6D6E71" d="M11.3 3c-1.3 0-2.6.5-3.3.8v10.7h.6c.7-.3 1.7-.5 2.6-.5 1.6 0 3.3 1.2 3.7 1.5V4.6c.1 0-1.8-1.6-3.6-1.6z"/><path fill="#F8F8F8" d="M14 3.9c-.7-.4-1.7-.9-2.7-.9-.8 0-1.6.2-2.3.4V6h5V3.9z"/><path fill="#F8F8F8" d="M14 13.7c-.8-.4-1.7-.7-2.7-.7-.7 0-1.5.1-2.3.4V4.5c.6-.3 1.5-.5 2.3-.5 1 0 2.1.7 2.7 1.1v8.6z"/><path fill="#6D6E71" d="M5.7 3c1.3 0 2.6.5 3.3.8v10.7h-.6c-.7-.3-1.7-.5-2.7-.5-1.6 0-3.3 1.2-3.7 1.5V4.6S3.9 3 5.7 3z"/><path fill="#F8F8F8" d="M3 5.1C3.6 4.7 4.7 4 5.7 4c.8 0 1.7.2 2.3.5v8.9c-.8-.3-1.6-.4-2.3-.4-1 0-2 .3-2.7.7V5.1z"/><path fill="none" d="M0 0h16v16H0z"/><path fill="#57A6D9" d="M10 11l1.5-1 1.5 1V0h-3"/></svg>