<svg xmlns="http://www.w3.org/2000/svg" width="16" height="16" viewBox="0 0 16 16"><path clip-rule="evenodd" fill="none" d="M0 0h16v16H0z"/><path fill="#E5D255" d="M16 14.4s-3.2-1.6-8 0-8 0-8 0L2.1 1.6s3.2 1.1 5.9 0 5.9 0 5.9 0L16 14.4z"/><path fill="#F8F8F8" d="M12 3c0-.7-.2-1.3-.4-1.8-1.1-.1-2.4 0-3.6.4-1.3.5-2.7.5-3.9.4 0 .3-.1.7-.1 1v4c0 .3.1.5.3.7l3 3c.2.2.4.3.7.3s.5-.1.7-.3l3-3c.2-.2.3-.4.3-.7V3z"/><path fill="#C7552E" d="M11 3c0-1.7-1.2-3-3-3S5 1.3 5 3v4l3 3 3-3V3z"/><path fill="#E5A894" d="M6 6.6V3c0-1.2.8-2 2-2s2 .8 2 2v3.6l-2 2-2-2z"/><path fill="#C96B4B" d="M8 2v5.2l1-1V3c0-.6-.4-1-1-1z"/><circle fill="#F8F8F8" cx="8" cy="3" r="1.2"/><circle fill="#F8F8F8" cx="8" cy="3" r="1.2"/></svg>