<svg xmlns="http://www.w3.org/2000/svg" width="16" height="16" viewBox="0 0 16 16"><circle fill-rule="evenodd" clip-rule="evenodd" fill="#F8F8F8" cx="8" cy="8" r="7.5"/><circle fill="#D3EAF9" cx="8" cy="8" r="5.8"/><path fill="#9BC29C" d="M4.7 10.8c-.1-.1-.3-.3-.6-.5l-.1-.1c-.1 0-.1-.1-.2-.1 0 0-.2-.1-.2-.2v-.1-.2-.4c-.2-.1-.3-.3-.3-.4v-.1c-.1-.1-.2-.3-.3-.4 0-.1 0-.2-.1-.2 0-.1 0-.1-.1-.2s-.1-.2-.1-.4c0-.1 0-.2-.1-.3l-.1-.1h-.1-.1c0 .3-.1.6-.1.9 0 1.5.6 2.9 1.6 4H4.1s.1 0 .1-.1c0 0 0-.1.1-.1v-.1-.1c0-.1 0-.2.1-.2 0 0 .1-.1.2-.1l.1-.1v-.4c0 .1 0 .1 0 0zm9-2.9l-.1-.1h-.1c-.1 0-.1 0-.1-.1v-.2l.1-.1h.1C13.5 5.6 12.5 4 11 3.1c0 .1-.1.1 0 .2v.4h-.1c-.1 0-.3 0-.3-.1h-.2c-.1 0-.3.1-.4.2l-.1.1V4s0 .1-.1.1c0 0 0 .1-.1.1v.1c0 .1 0 .2.1.3l.3.3h.2c.1 0 .1-.1.1-.2v-.1-.2s0-.1.1-.1h.2v.1l.1.1c.1 0 .1.1.1.1V5c-.1.1-.1.2-.3.2-.1 0-.2 0-.2-.1h-.1-.1l-.1.1c-.2 0-.3.1-.3.1 0 .1-.2.2-.4.3-.1 0-.1.2-.1.3 0 0 0 .1.1.2 0 .1-.1.1-.1.1h-.1H9c-.1 0-.2 0-.2.1v.5c0 .1.1.2.2.2h.1H9c.1 0 .2 0 .2-.1l.1-.1v-.1s0-.1.1-.1.1-.1.2-.1v-.1l.1-.1c.1 0 .1-.1.2-.1h.1l.1.1h.2c.1 0 .1-.1.1-.2h.1c.1 0 .1.1.2.1.3.2.3.3.4.4l.1.1c0 .1 0 .1.1.2 0 .1.1.1.2.1s.1-.1.2-.1c0 0 0-.1.1-.1h.1s0 .1.1.1c-.2.1-.1.1-.1.1h.2c.2 0 .2.1.2.1.1.1.1.2.1.3 0 .1-.1.2-.1.2-.1 0-.1 0-.2.1h-.2-.1-.1-.1c-.1 0-.2.1-.2.2V8h-.1c-.1 0-.6-.2-.7-.3v-.2c0-.1-.1-.2-.2-.2h-.8c-.1 0-.2.1-.3.1h-.1L9 7.2h-.1-.1c-.1 0-.1 0-.1.1l-.1.1v-.1l-.1.1c-.2.1-.3.2-.3.4 0 .1-.1.1-.1.1H8h-.1c-.2.1-.4.4-.5.6-.1.2-.1.2-.1.3V9c0 .1-.1.3-.2.4-.1 0-.1 0-.1.1v.1c0 .1 0 .2.1.2 0 0 0 .1.1.1v.1l.2.2c.1.2.2.3.3.4.2.1.3.2.5.2h1.1c.1 0 .2 0 .3.1h.1c.1 0 .2.1.2.2V11.7c0 .1.1.1.1.3 0 .3 0 .4-.2.6-.2.2-.2.2-.2.4v.5c1.1-.3 2-.9 2.7-1.8v-.1c0-.1.1-.2.1-.4.1-.1.2-.3.3-.5l.1-.1c.1-.1.2-.3.3-.4.1-.2.2-.3.2-.4 0-.1 0-.1-.1-.2 0 0-.1-.1-.2-.1h-.1v-.1-.1c0-.1-.1-.2-.1-.3v-.1c0-.1 0-.1-.1-.2s-.1-.2-.1-.2c-.1-.1-.1-.2-.2-.4 0-.1 0-.2-.1-.2v-.1c.1.1.4.7.4.9v.2c0 .1.1.1.2.1s.1 0 .2-.1l.3-.6c.1-.2.1-.4.1-.5.3.2.3.1.2.1zm-7.5-5h-.1H6s-.1 0-.1.1c0 0-.1 0-.1.1 0 0-.1 0-.1.1h-.1s-.1 0-.1-.1V3c-1.1.4-1.9 1.1-2.4 2h.1c.1 0 .1 0 .2-.1s.2-.1.2-.2l.1-.1.1-.1c.1-.1.3-.2.4-.2h.5c.3.1.3 0 .4-.1 0-.2.1-.2.2-.2H5.6c.1 0 .1 0 .2-.1s.3-.4.4-.6c.1-.1.1-.2.1-.3 0 .1 0-.1-.1-.1zM9 4.7s-.1.1 0 0c-.1.1-.1.2 0 .3 0 0 .1 0 .1.1v.1c0 .1 0 .2.1.2l.1.1h.1c.1 0 .1-.2.1-.2.1-.3 0-.3-.1-.4v-.1c0-.1-.1-.1-.1-.2h-.1c-.2 0-.2 0-.2.1zM7 2.3c-.2 0-.4.1-.6.1 0 .1.1.1.2.1H7v-.2zm.1 1.5c.1 0 .1-.1 0 0 .2-.1.5-.2.7-.3h.6s.1 0 .1-.1c0 0 0-.1.1-.1 0 0 0-.1.1-.1 0-.1.1-.1.2-.2l.1-.1h.1c-.1 0-.1-.1-.1-.2v-.1s-.1-.1-.2-.1-.3-.1-.5-.1h-.4-.1s-.1 0-.1.1l-.1.1v.1s0 .1-.1.1l-.1.1s-.1 0-.1.1l-.1.1c-.2.2-.3.3-.3.4 0 .1 0 .1.1.2.1 0 .1.1.1.1z"/><path clip-rule="evenodd" fill="none" d="M0 0h16v16H0z"/><path fill="#6D6E71" d="M8 0C3.6 0 0 3.6 0 8s3.6 8 8 8 8-3.6 8-8-3.6-8-8-8zm0 15.3C4 15.3.7 12 .7 8S4 .7 8 .7 15.3 4 15.3 8 12 15.3 8 15.3z"/></svg>