<svg xmlns="http://www.w3.org/2000/svg" width="16" height="16" viewBox="0 0 16 16"><path clip-rule="evenodd" fill="none" d="M0 0h16v16H0z"/><path fill="#E5D255" d="M16 14.4s-3.2-1.6-8 0-8 0-8 0L2.1 1.6s3.2 1.1 5.9 0 5.9 0 5.9 0L16 14.4z"/><path fill="#F4EEC8" d="M3.1 13c-.3 0-.6-.1-.7-.3s-.3-.5-.3-.8l.8-8c.1-.5.5-.9 1-.9h8.2c.5 0 .9.4 1 .9l.8 8c0 .3-.1.6-.3.8s-.4.3-.7.3H3.1z"/><path fill="#6D6E71" d="M3.1 12l.8-8h8.2l.8 8"/><path fill="#6D6E71" d="M12 7V6h-2V5H9v1H7V5H6v1H4v1h2v1H4v1h2v2h1V9h2v2h1V9h2V8h-2V7h2zM9 8H7V7h2v1z"/><path fill="#BDDBEE" d="M7 5h2v1H7z"/><path fill="#F4EEC8" d="M6 6V5H4.8l-.1 1"/><path fill="#6DB5E3" d="M7 7h2v1H7z"/><path fill="#F4EEC8" d="M11.4 7H10v1h1.5"/><path fill="#D3EAF9" d="M11.3 6l-.1-1H10v1"/><path fill="#9BC29C" d="M7 9h2v2H7z"/><path fill="#D3EAF9" d="M4.5 8H6V7H4.6"/><path fill="#9BC29C" d="M10 9v2h1.8l-.2-2"/><path fill="#6DB5E3" d="M4.4 9l-.2 2H6V9"/></svg>