<svg xmlns="http://www.w3.org/2000/svg" width="16" height="16" viewBox="0 0 16 16"><path clip-rule="evenodd" fill="none" d="M0 0h16v16H0z"/><path fill="#E5D255" d="M16 14.4s-3.2-1.6-8 0-8 0-8 0L2.1 1.6s3.2 1.1 5.9 0 5.9 0 5.9 0L16 14.4z"/><path fill="#F8F8F8" d="M14.6 5.7l-1.5-1.5c-.2-.1-.4-.2-.7-.2H7c-.6 0-1 .4-1 1v9.9c.6-.1 1.3-.3 2-.5 4.8-1.6 8 0 8 0l-1.4-8.7z"/><path fill="#6D6E71" d="M16 16H7V5h5.4L16 8.6"/><path fill="#F8F8F8" d="M12.3 6H8v9h7V8.7"/><path fill="#6D6E71" d="M11 6h1v4h-1z"/><path fill="#6D6E71" d="M11 9h5v1h-5z"/><path fill="#57A6D9" d="M9 11h5v1H9zM9 13h5v1H9zM9 9h1v1H9zM9 7h1v1H9z"/><path fill="#F8F8F8" d="M7.7 10.8L5.2 8.3C5 8.1 4.8 8 4.5 8H3c-.6 0-1 .4-1 1 0-.5-.4-1-.9-1l-.7 4c.5.4 1.1.7 1.8.9-.1.2-.2.4-.2.6v.5c0 .6.4 1 1 1h1.5c.3 0 .5-.1.7-.3l2.5-2.5c.4-.4.4-1 0-1.4z"/><path fill="#68AA67" d="M3 13.5L4.5 12H3c-1.7 0-3-1.3-3-3h1c0 1.1.9 2 2 2h1.5L3 9.5V9h1.5L7 11.5 4.5 14H3v-.5z"/></svg>