<svg xmlns="http://www.w3.org/2000/svg" width="16" height="16" viewBox="0 0 16 16"><path clip-rule="evenodd" fill="none" d="M-.2 0h16v16h-16z"/><path fill="#E5D255" d="M15.8 14.4s-3.2-1.6-8 0-8 0-8 0L1.9 1.6s3.2 1.1 5.9 0 5.9 0 5.9 0l2.1 12.8z"/><path fill="#F8F8F8" d="M12.7 11.8L9.2 8.3C9 8.1 8.8 8 8.5 8H7c-.6 0-1 .4-1 1v.5c0 .3.1.5.3.7-.5-.4-.9-.9-1.1-1.5-.1-.4-.5-.7-.9-.7H3.2c-.3 0-.6.1-.8.4-.2.2-.3.6-.2.9.7 2.4 2.6 4.1 5 4.6l-.9.9v.1c.6-.1 1.1-.3 1.7-.5 1.6-.5 3-.7 4.2-.7l.5-.5c.4-.4.4-1 0-1.4z"/><path fill="#68AA67" d="M8.5 9H7v.5L9.5 12h-1c-2 0-3.6-1.3-4.2-3H3.2c.7 2.3 2.8 4 5.3 4h1L7 15.5v.5h1.5l3.5-3.5L8.5 9z"/></svg>