<svg xmlns="http://www.w3.org/2000/svg" width="16" height="16" viewBox="0 0 16 16"><path clip-rule="evenodd" fill="none" d="M0-.1h16v16H0z"/><path fill="#E5D255" d="M16 14.3s-3.2-1.6-8 0-8 0-8 0L2.1 1.5s3.2 1.1 5.9 0 5.9 0 5.9 0L16 14.3z"/><path fill="#F8F8F8" d="M12 13.6v-1.7c0-.6-.4-1-1-1h-.5c-.2 0-.3 0-.5.1V8.9c0-.6-.4-1-1-1H8c-.6 0-1 .4-1 1V11c-.2-.1-.3-.1-.5-.1H6c-.6 0-1 .4-1 1v1.5c0 .3.1.5.3.7l.7.7c.6-.1 1.3-.3 2-.5 1.5-.5 2.8-.7 4-.7z"/><path fill="#E67E08" d="M10.5 11.9L9 13.4V8.9H8v4.5l-1.5-1.5H6v1.5l2.5 2.5 2.5-2.5v-1.5"/></svg>