<svg xmlns="http://www.w3.org/2000/svg" width="16" height="16" viewBox="0 0 16 16"><path clip-rule="evenodd" fill="none" d="M0 0h16v16H0z"/><path fill="#E5D255" d="M16 14.4s-3.2-1.6-8 0-8 0-8 0L2.1 1.6s3.2 1.1 5.9 0 5.9 0 5.9 0L16 14.4z"/><path fill="#F8F8F8" d="M15.6 14l-2.9-2.9c-.1-.1-.3-.2-.5-.3 1-2 .7-4.5-1-6.1-1-1-2.4-1.6-3.8-1.6s-2.7.6-3.7 1.6c-2.1 2.1-2.1 5.5 0 7.6 1 1 2.4 1.6 3.8 1.6.8 0 1.6-.2 2.4-.6.1.2.2.3.3.5l.1.1c2.8-.4 4.8.2 5.5.5-.1-.2-.1-.3-.2-.4z"/><path fill="#F8F8F8" d="M7.4 12.4c-1.1 0-2.1-.4-2.8-1.2C3 9.6 3 7.1 4.6 5.5c.8-.8 1.8-1.2 2.8-1.2 1.1 0 2.1.4 2.8 1.2 1.6 1.6 1.6 4.1 0 5.7-.7.8-1.7 1.2-2.8 1.2z"/><path fill="#57A6D9" d="M10.6 5.4c-1.7-1.7-4.5-1.7-6.2 0-1.7 1.7-1.7 4.5 0 6.2 1.7 1.7 4.5 1.7 6.2 0 1.7-1.7 1.7-4.5 0-6.2zm-.9 5.3c-.6.6-1.4.9-2.2.9-.8 0-1.6-.3-2.2-.9C4 9.5 4 7.5 5.3 6.3c.6-.6 1.4-.9 2.2-.9.8 0 1.6.3 2.2.9 1.3 1.2 1.3 3.2 0 4.4z"/><path fill="#6D6E71" d="M11.158 12.756l-.848-.85.566-.565.848.85z"/><path fill="#B88B55" d="M14.3 15.9c-.2.2-.4.2-.6 0L10.9 13c-.2-.2-.2-.4 0-.6l.6-.6c.2-.2.4-.2.6 0l2.9 2.9c.2.2.2.4 0 .6l-.7.6z"/><path fill="#6D6E71" d="M7 6h1v5H7z"/><path fill="#6D6E71" d="M5 8h5v1H5z"/></svg>