<svg xmlns="http://www.w3.org/2000/svg" width="16" height="16" viewBox="0 0 16 16"><path clip-rule="evenodd" fill="none" d="M0 0h16v16H0z"/><path fill="#E5D255" d="M16 14.4s-3.2-1.6-8 0-8 0-8 0L2.1 1.6s3.2 1.1 5.9 0 5.9 0 5.9 0L16 14.4z"/><path fill="#6D6E71" d="M3 3h10l1 10H2"/><path fill="#D3EAF9" d="M3.1 12l.8-8h8.2l.8 8"/><path fill="#6DB5E3" d="M12.8 11.6h-.9c-.8 0-1.5-.1-2.1-.4-.8-.3-1.3-.8-1.7-1.2-.6 0-1.4-.1-2.2-.7-.4-.1-.7-.4-.9-.7l-.1-.1c-.1.1-.4.2-.6.4h-.1c-.1.2-.7.4-.8.5l-.1.5c.1 0 .2-.1.3-.1.5-.2.8-.4.9-.5 0 0 .2-.2.3-.2.2.3.4.5.8.7.9.6 1.8.7 2.3.8.5.5 1.1.9 1.7 1.1l.9.3h2.4l-.1-.4z"/><path fill="#5B945A" d="M13 3H3l-.5 5h.1c.2 0 .3 0 .4-.1.4-.2.7-.3.7-.4.6-.4 1-.8 1.5-.6s.7.7 1.3 1.1c.7.5 1.5.5 2 .5h.1c.1.1.8.8 1.7 1.2s2 .3 2.4.3c.4 0 .8-.1 1.2-.2L13 3z"/><path fill="#DDEEDB" d="M12.1 4H3.9l-.3 2.7c.5-.3.9-.6 1.4-.6.1 0 .3 0 .4.1.5.1.7.5 1 .7.1.2.3.3.5.5.5.4 1.1.4 1.7.4.1 0 .3.1.4.2l.1.1c.2.2.7.7 1.4 1 .3.1.8.2 1.4.2h.7L12.1 4z"/><path fill="#E89D48" d="M8 5h1v1H8zM10 6h1v1h-1z"/></svg>