<svg xmlns="http://www.w3.org/2000/svg" width="16" height="16" viewBox="0 0 16 16"><path fill="#6D6E71" d="M1 0h14v14H1z"/><path fill="#D3EAF9" d="M2 1h12v12H2z"/><path fill="#9BC29C" d="M6.4 13c0-.3.1-.5.2-.7.1-.1.1-.3.1-.5 0-.5-.9-.3-1.1-.6-.4-.7.6-.9.6-1.5 0-.1-.1-.4-.3-.4-.3 0-.4.1-.7.1-.2 0-.4-.1-.4-.3 0-.3.3-.5.3-.8 0-.3-.1-.4-.1-.6 0-.3.2-.6.5-.6s.4.2.5.5c.1.2.3.3.5.3.5 0 .8-.6.8-.9 0-.2.2-.4.4-.4.3 0 .4.3.7.3.5 0 .5-.7.9-.9.5-.3.4-.9.3-1.3 0-.1.3-.4.4-.4.6 0 .4-.5.4-.7v-.1c.1-.3.6-.4.6-.8 0-.2-.2-.4-.2-.6 0-.4.5-.7 1.1-1 .1-.1.2 0 .2-.2H2v12l4.4.1c0-.1 0 0 0 0z"/><path fill="#F8F8F8" d="M2 1v12h12V1H2zm11 11H3V2h10v10z"/><path clip-rule="evenodd" fill="none" d="M1 0h14v14H1z"/><path fill="#F8F8F8" d="M14 11h-.5c-.2 0-.3 0-.5.1V9c0-.6-.4-1-1-1h-1c-.6 0-1 .4-1 1v2.1c-.2-.1-.3-.1-.5-.1H9c-.6 0-1 .4-1 1v1.5c0 .2.1.3.2.5h6.7c.1-.2.2-.3.2-.5V12c-.1-.6-.5-1-1.1-1z"/><path fill="#E67E08" d="M13.5 12L12 13.5V9h-1v4.5L9.5 12H9v1.5l2.5 2.5 2.5-2.5V12"/><path fill="none" d="M0 0h16v16H0z"/><path fill="none" d="M0 0h16v16H0z"/></svg>