<svg xmlns="http://www.w3.org/2000/svg" width="16" height="16" viewBox="0 0 16 16"><path fill="#6D6E71" d="M1 1h14v14H1z"/><path fill="#D3EAF9" d="M2 2h12v12H2z"/><path fill="#9BC29C" d="M7.4 14c0-.3.1-.5.2-.7.1-.1.1-.3.1-.5 0-.5-.9-.3-1.1-.6-.4-.7.6-.9.6-1.5 0-.1-.1-.4-.3-.4-.3 0-.4.1-.7.1-.2 0-.4-.1-.4-.3 0-.3.3-.5.3-.8 0-.3-.1-.4-.1-.6 0-.3.2-.6.5-.6s.4.2.5.5c.1.2.3.3.5.3.5 0 .8-.6.8-.9 0-.2.2-.4.4-.4.3 0 .4.3.7.3.5 0 .5-.7.9-.9.5-.3.4-.9.3-1.3 0-.1.3-.4.4-.4.6 0 .4-.5.4-.7v-.1c.1-.3.6-.4.6-.8 0-.2-.2-.4-.2-.6 0-.4.5-.7 1.1-1 .1-.1.2 0 .2-.2H3v12l4.4.1c0-.1 0 0 0 0z"/><path clip-rule="evenodd" fill="none" d="M1 1h14v14H1z"/><path fill="#9BC29C" d="M14 14v-4c-.3.1-.5.7-.6.7h-.6c-.3 0-.6-.2-.8-.4-.2-.2-.2-.7-.5-.7-.4 0-.5.6-.9.6-.2 0-.3-.2-.5-.2s-.4.1-.4.3v.4c0 .4-.4.4-.4.8 0 .2.2.2.2.4 0 .5-.8.4-.8.9 0 .2.2.3.2.4 0 .2-.3.4-.4.7H14z"/><path fill="none" d="M0 0h16v16H0z"/><path fill="#F8F8F8" d="M2 2v12h12V2H2zm11 11H3V3h10v10z"/><path fill-rule="evenodd" clip-rule="evenodd" fill="#F8F8F8" d="M4 1v3H1v3h3v4c0 .6.4 1 1 1h1c.6 0 1-.4 1-1V7h4c.6 0 1-.4 1-1V5c0-.6-.4-1-1-1H7V1H4z"/><path fill="#6D6E71" d="M7 5h4v1H7zM0 5h4v1H0zM5 7h1v4H5zM5 0h1v4H5zM5 5h1v1H5z"/></svg>