<svg xmlns="http://www.w3.org/2000/svg" width="16" height="16" viewBox="0 0 16 16"><path fill="#68AA67" d="M2 .5l11 3V15H2"/><path fill="#DDEEDB" d="M3 14V1.8l9 2.5V14"/><path fill="none" d="M0 0h16v16H0z"/><path fill="#5B945A" d="M1 0h3v3H1z"/><path fill="#9BC29C" d="M2 1h1v1H2z"/><path fill="#5B945A" d="M1 13h3v3H1z"/><path fill="#9BC29C" d="M2 14h1v1H2z"/><path fill="#5B945A" d="M11 2h3v3h-3z"/><path fill="#9BC29C" d="M12 3h1v1h-1z"/><path fill="#5B945A" d="M11 13h3v3h-3z"/><path fill="#9BC29C" d="M12 14h1v1h-1z"/><path fill-rule="evenodd" clip-rule="evenodd" fill="#F8F8F8" d="M1 7h13v4H1z"/><path fill="#B88B55" d="M0 6v6h15V6H0zm14 5H1V7h13v4z"/><path fill="#B88B55" d="M2 9h1v2H2zM4 8h1v3H4zM6 9h1v2H6zM10 9h1v2h-1zM8 8h1v3H8zM12 8h1v3h-1z"/></svg>