<svg xmlns="http://www.w3.org/2000/svg" width="16" height="16" viewBox="0 0 16 16"><path fill="#6D6E71" d="M0 9v3c0 .6.4 1 1 1h14c.6 0 1-.4 1-1V9H0z"/><path fill="#A7A9AC" d="M0 8h16c0-.2-.1-.4-.2-.6l-1.3-2.8C13.9 3.9 13 4 13 4H3s-.9-.1-1.5.6L.2 7.4c-.1.2-.2.4-.2.6z"/><path fill="#F8F8F8" d="M13 7H3l.5-1h9M3 9h10v2H3z"/><path fill="#6D6E71" d="M4 10h8v5H4z"/><path fill="#F8F8F8" d="M5 11h6v3H5z"/><path fill="#6DB5E3" d="M6 12h4v1H6z"/><path fill="#6D6E71" d="M9.5 0H4v6h8V2.6"/><path fill="#F8F8F8" d="M11 3H9V1"/><path fill="#F8F8F8" d="M9 1v2h2"/><path fill="#F8F8F8" d="M11 5V4H8V1H5v4"/><path fill="none" d="M0 0h16v16H0z"/><path fill="#F8F8F8" d="M0 8h16v1H0z"/></svg>