<svg xmlns="http://www.w3.org/2000/svg" width="16" height="16" viewBox="0 0 16 16"><path clip-rule="evenodd" fill="none" d="M0 0h16v16H0z"/><path fill="#E5D255" d="M16 14.4s-3.2-1.6-8 0-8 0-8 0L2.1 1.6s3.2 1.1 5.9 0 5.9 0 5.9 0L16 14.4z"/><path fill="#F8F8F8" d="M9.6 12l2.1-2.1c.2-.2.3-.4.3-.7V8c0-.6-.4-1-1-1H9.8c-.3 0-.5.1-.7.3L7 9.4 4.9 7.3c-.2-.2-.4-.3-.7-.3H3c-.6 0-1 .4-1 1v1.2c0 .3.1.5.3.7L4.4 12l-2.1 2.1c-.2.2-.3.4-.3.7v.2c1.2.2 2.9.2 4.9-.3l.1-.1.1.1.9-.3c1.2-.4 2.3-.6 3.3-.7L9.6 12z"/><path fill="#C7552E" d="M3 8h1.2l6.8 6.8V16H9.8L3 9.2"/><path fill="#C7552E" d="M3 16v-1.2L9.8 8H11v1.2L4.2 16"/></svg>