<svg xmlns="http://www.w3.org/2000/svg" width="16" height="16" viewBox="0 0 16 16"><path clip-rule="evenodd" fill="none" d="M0 0h16v16H0z"/><path fill="#E5D255" d="M16 14.4s-3.2-1.6-8 0-8 0-8 0L2.1 1.6s3.2 1.1 5.9 0 5.9 0 5.9 0L16 14.4z"/><path fill="#797979" d="M2 7h12v9H2z"/><path fill="#6D6E71" d="M2 7h12v9H2z"/><path fill="#FFF" d="M3 8h10v7H3z"/><path fill="#D3EAF9" d="M8 8h5v7H8z"/><path fill="#57A6D9" d="M9 9h3v1H9zM10 10h1v4h-1z"/><path fill="#6D6E71" d="M5 10v3h1v-3H5zm2-1H6v1h1V9zM4 9v1h1V9H4zm3 5v-1H6v1h1zm-3 0h1v-1H4v1z"/></svg>