<svg xmlns="http://www.w3.org/2000/svg" width="16" height="16" viewBox="0 0 16 16"><path fill="#6D6E71" d="M1 9h14v6H1z"/><path fill="#6DB5E3" d="M2 10h4v2H2zM6 12h4v2H6z"/><path fill="#F8F8F8" d="M6 10h4v2H6zM10 12h4v2h-4zM2 12h4v2H2z"/><path fill="#6DB5E3" d="M10 10h4v2h-4z"/><path clip-rule="evenodd" fill="none" d="M0 0h16v16H0z"/><path fill="#F8F8F8" d="M3.3 9l.4.6c.2.2.5.4.8.4.3 0 .6-.2.8-.4l.4-.6H3.3zM11 10h1c.6 0 1-.4 1-1h-3c0 .6.4 1 1 1z"/><path fill="#6D6E71" d="M6.5 5L5 6.5V2H4v4.5L2.5 5H2v1.5L4.5 9 7 6.5V5M9.5 6L11 4.5V9h1V4.5L13.5 6h.5V4.5L11.5 2 9 4.5V6"/></svg>