<svg xmlns="http://www.w3.org/2000/svg" width="16" height="16" viewBox="0 0 16 16"><path clip-rule="evenodd" fill="none" d="M0 0h16v16H0z"/><path fill="#E5D255" d="M16 14.4s-3.2-1.6-8 0-8 0-8 0L2.1 1.6s3.2 1.1 5.9 0 5.9 0 5.9 0L16 14.4z"/><path fill="#6D6E71" d="M8 4h5v5H8z"/><path fill="#D3EAF9" d="M9 5h3v3H9z"/><path fill="#6D6E71" d="M4 8h5v5H4z"/><path fill="#D3EAF9" d="M5 9h3v3H5z"/><path fill="#6D6E71" d="M8 8h5v5H8z"/><path fill="#9BC29C" d="M9 9h3v3H9zM8 10s-1 .3-1 1c0 1-1 .2-1 1h2v-2z"/><path fill="#F4EEC8" d="M4 4h4v4H4z"/><path fill="#6D6E71" d="M2 2h5v5H2z"/><path fill="#D3EAF9" d="M3 3h3v3H3z"/><path fill="#9BC29C" d="M6 3H3v2.8c.2 0 .5-.1.6-.2.5-.3.4-.9.7-1.2.2-.2.6.1.8-.1.1-.1.2-.6.2-.6.1-.1.3-.5.4-.6.1 0 .2-.1.3-.1z"/></svg>