<svg xmlns="http://www.w3.org/2000/svg" width="16" height="16" viewBox="0 0 16 16"><path fill="#6D6E71" d="M0 0h14v14H0z"/><path fill="#D3EAF9" d="M1 1h12v12H1z"/><path fill="#9BC29C" d="M5.4 13c0-.3.1-.5.2-.7.1-.1.1-.3.1-.5 0-.5-.9-.3-1.1-.6-.4-.7.6-.9.6-1.5 0-.1-.1-.4-.3-.4-.3 0-.4.1-.7.1-.2 0-.4-.1-.4-.3 0-.3.3-.5.3-.8 0-.3-.1-.4-.1-.6 0-.3.2-.6.5-.6s.4.2.5.5c.1.2.3.3.5.3.5 0 .8-.6.8-.9 0-.2.2-.4.4-.4.3 0 .4.3.7.3.5 0 .5-.7.9-.9.5-.3.4-.9.3-1.3 0-.1.3-.4.4-.4.6 0 .4-.5.4-.7v-.1c.1-.3.6-.4.6-.8 0-.2-.2-.4-.2-.6 0-.4.5-.7 1.1-1 .1-.1.2 0 .2-.2H1v12l4.4.1c0-.1 0 0 0 0z"/><path fill="#F8F8F8" d="M1 1v12h12V1H1zm11 11H2V2h10v10z"/><path clip-rule="evenodd" fill="none" d="M0 0h14v14H0z"/><path fill="#E5D255" d="M16 15.6s-2-1-5 0-5 0-5 0l1-8s2.3.7 4 0c1.7-.7 4 0 4 0l1 8z"/><path fill="#D9C44C" d="M14 14V7.3c-.8-.1-2-.2-3 .2-1.7.7-4 0-4 0L6.2 14H14z"/><path fill="#E5D255" d="M13 13V7.2c-.7 0-1.4 0-2 .3-1.7.7-4 0-4 0L6.3 13H13z"/><path fill="#F8F8F8" d="M14 14V6.3c-.2 0-.3 0-.5-.1h-1-.4c-.1 0-.3 0-.5.1l-.3.1c-.3.1-.5.1-.7.2-.4.2-.8.2-1.4.2-1 0-1.9-.3-1.9-.3H7c-.2 0-.4.1-.6.2-.2.2-.4.4-.4.7L5.2 14H14z"/><path fill="#E5D255" d="M15 7.5s-.4-.1-1-.2c-.2 0-.4 0-.6-.1h-.8H11.9h-.1-.1c-.2 0-.4.1-.6.2-1.7.7-4 0-4 0l-1 8s2 1 5 0 5 0 5 0L15 7.5z"/><path fill="#D9C44C" d="M13 13V9c-.3.1-.5.7-.6.7h-.6c-.3 0-.6-.2-.8-.4-.2-.2-.2-.7-.5-.7-.4 0-.5.6-.9.6-.1 0-.3-.2-.5-.2-.1 0-.3.1-.3.3v.4c0 .4-.4.4-.4.8 0 .2.2.2.2.4 0 .5-.8.4-.8.9 0 .2.2.3.2.4 0 .2-.3.4-.4.7H13z"/><path fill="#F3E9AB" d="M13 7.2c-.3 0-.7 0-1 .1V12H6.4l-.1 1H13V7.2z"/><path fill="none" d="M0 0h16v16H0z"/></svg>