<svg xmlns="http://www.w3.org/2000/svg" width="16" height="16" viewBox="0 0 16 16"><path fill="none" d="M0 0h16v16H0z"/><path fill="#6D6E71" d="M16 14c0 .6-.4 1-1 1H1c-.6 0-1-.4-1-1V3c0-.6.4-1 1-1h14c.6 0 1 .4 1 1v11z"/><linearGradient id="a" gradientUnits="userSpaceOnUse" x1="3.869" y1="1.345" x2="12.132" y2="15.657"><stop offset="0" stop-color="#8C8C8C"/><stop offset="1" stop-color="#404040"/></linearGradient><path fill="url(#a)" d="M15 14H1V3h14"/><path fill="#F8F8F8" d="M15 14H1V5h14"/><path fill="#939598" d="M1 3h14v2H1zM4 5h1v9H4z"/><path fill="none" d="M6 6h10v10H6z"/><path fill="#F8F8F8" d="M5 5h10v9H5z"/><path fill="#A7A9AC" d="M8.3 14c0-.2.1-.3.1-.5 0-.1.1-.2.1-.4 0-.4-.7-.3-.8-.5-.3-.5.5-.7.5-1.1 0-.1-.1-.3-.2-.3-.2 0-.3.1-.5.1-.1 0-.3-.1-.3-.2 0-.3.2-.4.2-.6 0-.2-.1-.3-.1-.4 0-.2.2-.4.4-.4.2-.1.3.1.4.3.1.2.2.2.4.2.3 0 .5-.4.5-.7 0-.2.1-.3.3-.3.2 0 .3.2.5.2.4 0 .4-.5.7-.7.4-.2.3-.7.2-.9 0-.1.2-.3.3-.3.5 0 .3-.4.3-.5v-.1c.1-.2.4-.3.4-.5s-.2-.3-.2-.5c0-.3.4-.5.8-.7.1 0 .2 0 .2-.1H5v9l3.3-.1c0-.1 0 0 0 0zM15 14v-3c-.2.1-.4.5-.4.5h-.4c-.2 0-.4-.1-.6-.3-.2-.2-.2-.5-.4-.5-.3 0-.3.4-.7.4-.1 0-.2-.1-.4-.1-.1 0-.3.1-.3.2v.3c0 .3-.3.3-.3.6 0 .1.1.2.1.3 0 .4-.6.3-.6.7 0 .1.1.2.1.3 0 .1-.2.3-.3.5H15z"/></svg>