<svg xmlns="http://www.w3.org/2000/svg" width="72" height="72" viewBox="49 -14.104 72 72"><path fill="#CCC" d="M85.273 57.9h-21.71c-4.728 0-8.49-3.762-8.49-8.49V-5.614c0-4.73 3.762-8.49 8.49-8.49h21.71c4.73 0 8.49 3.76 8.49 8.49V49.41c0 4.73-3.76 8.49-8.49 8.49zm-21.71-69.855c-3.545 0-6.34 2.902-6.34 6.34V49.41c0 3.547 2.902 6.34 6.34 6.34h21.71c3.546 0 6.342-2.9 6.342-6.34V-5.614c0-3.546-2.903-6.34-6.342-6.34h-21.71z"/><path fill="#CCC" d="M92.688-1.208h2.15V5.24h-2.15zM57.224 43.928h34.39v2.15h-34.39zM57.224-4.432h34.39v2.15h-34.39zM54 2.016h2.15V7.39H54zM54 10.613h2.15v5.374H54zM54 17.062h2.15v5.374H54zM71.195-9.805h6.448v2.15h-6.448z"/><circle fill="#7CBA75" cx="99.69" cy="21.249" r="16.815"/><path fill="#7CBA75" stroke="#FFF" stroke-width="4" stroke-miterlimit="10" d="M93.433 20.094l5.277 5.277 9.604-9.603"/></svg>