<svg xmlns="http://www.w3.org/2000/svg" width="72" height="72" viewBox="0 0 72 72"><path fill="#CCC" d="M105.258 16.584c-.158-.478-.642-.732-1.08-.57l-11.86-1.593L85.71 2.028c0-.488-.392-.88-.87-.88s-.87.393-.87.88l-6.63 12.44-11.515 1.546c-.44-.162-.925.093-1.083.57-.154.475.072.988.51 1.15l9.137 9.802-2.317 12.78c-.28.39-.202.945.18 1.253.382.305.923.233 1.202-.15l11.384-5.884 11.384 5.883c.278.386.815.456 1.195.15.386-.307.466-.863.185-1.253L95.338 27.83l9.412-10.098c.438-.16.663-.674.508-1.148z"/></svg>