<svg xmlns="http://www.w3.org/2000/svg" width="72" height="72" viewBox="49 -14.104 72 72"><path fill="#CCC" d="M85 43.307c-6.814 0-13.63-1.926-13.63-6.148 0-4.74 2.445-9.038 6.37-11.556-1.555-1.777-2.443-4.074-2.443-6.445 0-5.334 4.37-9.705 9.704-9.705 5.333 0 9.704 4.37 9.704 9.704 0 2.37-.89 4.666-2.444 6.444 3.926 2.518 6.37 6.814 6.37 11.555 0 4.295-6.815 6.147-13.63 6.147zm0-32.074c-4.37 0-7.926 3.556-7.926 7.926 0 2.295.964 4.444 2.74 6 .224.222.37.52.297.814 0 .296-.22.52-.443.667-4 2-6.444 6.075-6.444 10.52 0 2.52 5.11 4.37 11.852 4.37s11.853-1.852 11.853-4.37c0-4.444-2.445-8.52-6.445-10.52-.296-.147-.443-.37-.443-.666s.073-.593.295-.815c1.705-1.48 2.74-3.704 2.74-6-.148-4.37-3.705-7.927-8.074-7.927zm27.853 8.666c1.333-1.557 2.074-3.482 2.074-5.482 0-4.667-3.778-8.444-8.445-8.444-4.666 0-8.443 3.778-8.443 8.444 0 2 .74 4 2.072 5.48-2.37 1.482-4.073 3.78-4.89 6.37.52.52 1.038 1.038 1.482 1.558.593-2.964 2.52-5.556 5.26-6.964.296-.148.443-.37.443-.667s-.074-.593-.296-.815c-1.48-1.26-2.295-3.11-2.295-5.037 0-3.704 2.963-6.667 6.666-6.667 3.705 0 6.668 2.963 6.668 6.667 0 1.926-.815 3.778-2.296 5.037-.223.222-.37.52-.297.815 0 .296.223.52.445.667 3.406 1.704 5.48 5.11 5.48 8.89 0 2-4.37 3.63-10 3.63-3.037 0-5.703-.445-7.555-1.26.222.667.37 1.333.443 2.073 2.074.667 4.594.963 7.11.963 5.853 0 11.78-1.703 11.78-5.406.002-4-1.998-7.704-5.405-9.853zm-41.78 12.295c-1.85.74-4.517 1.26-7.554 1.26-5.63 0-10-1.63-10-3.63 0-3.777 2.073-7.185 5.48-8.89.296-.147.444-.37.444-.666 0-.297-.074-.594-.296-.816-1.48-1.26-2.296-3.11-2.296-5.037 0-3.704 2.963-6.667 6.667-6.667s6.666 2.963 6.666 6.667c0 1.926-.815 3.778-2.296 5.037-.222.222-.37.52-.296.815 0 .295.223.518.445.666 2.814 1.407 4.666 4 5.258 6.963.444-.594.89-1.11 1.48-1.557-.813-2.592-2.518-4.89-4.888-6.37 1.333-1.556 2.074-3.48 2.074-5.48 0-4.668-3.778-8.445-8.445-8.445-4.668 0-8.446 3.704-8.446 8.37 0 2 .74 4 2.074 5.48-3.407 2.15-5.407 5.854-5.407 9.928 0 3.703 5.927 5.406 11.78 5.406 2.518 0 5.036-.296 7.11-.963.074-.666.297-1.408.444-2.075z"/></svg>