<svg xmlns="http://www.w3.org/2000/svg" width="72" height="72" viewBox="49 -14.104 72 72"><path fill="#CCC" d="M85.56 33.974L53.474 16.646 85.56-.682l32.082 17.328L85.56 33.974zM59.137 16.646l26.42 14.272 26.42-14.272-26.42-14.27-26.42 14.27z"/><path fill="#CCC" d="M104.684 23.646l7.295 3.94-26.42 14.27-26.422-14.27 7.297-3.94-2.83-1.53-10.13 5.47 32.084 17.33 32.082-17.33-10.127-5.47"/><path fill="#CCC" d="M104.684 34.588l7.295 3.94L85.56 52.8 59.137 38.53l7.297-3.94-2.83-1.53-10.13 5.47L85.56 55.857 117.64 38.53l-10.127-5.472"/><circle fill="#007AC2" cx="68.185" cy="1.972" r="9.815"/><g fill="none" stroke="#FFF" stroke-width="2.335" stroke-miterlimit="10"><path d="M63.28-1.833h9.812M63.28 1.972h9.812M63.28 5.776h9.812"/></g></svg>