<svg xmlns="http://www.w3.org/2000/svg" width="72" height="72" viewBox="49 -14.104 72 72"><path fill="#CCC" d="M103.574-11.354L85.614-2.85l-15.587-7.38-1.187-.56-.91.43-16.775 7.942V55.53l17.824-8.438 15.724 7.445 1.05.494 1.046-.493 16.774-7.943v-57.948zM53.254-.58L67.93-7.542v52.56L53.253 51.85V-.58zm16.773 45.465V-7.41L84.704-.58V51.72l-14.677-6.833zm31.452.133L86.8 51.85V-.58l14.68-6.963v52.56z"/><circle fill="#C7552E" cx="104.857" cy="20.807" r="13.565"/><g fill="none" stroke="#FFF" stroke-width="3.227" stroke-miterlimit="10"><path d="M99.993 25.67l9.73-9.728M99.993 15.942l9.73 9.73"/></g></svg>