<svg xmlns="http://www.w3.org/2000/svg" width="72" height="72" viewBox="49 -14.104 72 72"><path fill="#CCC" d="M100.368-6.966l.083 2.353 9.86-.36-26.36 26.36 1.66 1.663 26.365-26.364-.36 9.863 2.35.083.514-14.11"/><path fill="#CCC" d="M96.973 50.003H65.54c-5.602 0-10.158-4.556-10.158-10.156V8.413c0-5.6 4.556-10.157 10.157-10.157h14.625V.608H65.54c-4.306 0-7.806 3.5-7.806 7.806v31.433c0 4.304 3.5 7.806 7.805 7.806h31.433c4.305 0 7.806-3.502 7.806-7.806V26.374h2.352v13.473c-.005 5.6-4.56 10.156-10.16 10.156z"/></svg>