<svg xmlns="http://www.w3.org/2000/svg" width="72" height="72" viewBox="49 -14.104 72 72"><path fill="#CCC" d="M85 38.112c-13.692 0-23.234-14.522-23.634-15.14-.416-.644-.423-1.472-.016-2.122.387-.62 9.624-15.17 23.65-15.17 13.72 0 23.237 14.53 23.633 15.147.428.66.42 1.512-.016 2.168-.41.617-10.224 15.117-23.617 15.117zM65.443 21.88C67.795 25.038 75.42 34.157 85 34.157c9.34 0 17.105-9.096 19.537-12.277C102.165 18.697 94.57 9.637 85 9.637c-9.81 0-17.264 9.085-19.557 12.243z"/><path fill="#CCC" d="M85.27 30.067c-4.577 0-8.3-3.723-8.3-8.3 0-4.578 3.723-8.302 8.3-8.302 4.58 0 8.302 3.724 8.302 8.3 0 4.58-3.722 8.302-8.302 8.302zm0-12.644c-2.394 0-4.344 1.95-4.344 4.344s1.95 4.344 4.344 4.344c2.395 0 4.346-1.948 4.346-4.343s-1.947-4.344-4.346-4.344z"/></svg>