<svg xmlns="http://www.w3.org/2000/svg" width="30" height="30" viewBox="0 0 30 30"><path fill-rule="evenodd" clip-rule="evenodd" fill="#FFF" d="M11.958 14.083v2.63h3.544c-.53 1.395-1.88 2.39-3.465 2.39-2.047 0-3.706-1.658-3.706-3.705s1.66-3.706 3.707-3.706c.913 0 1.747.33 2.392.875l1.856-1.816c-1.12-1.023-2.61-1.65-4.25-1.65-3.476 0-6.295 2.82-6.295 6.298 0 3.477 2.82 6.296 6.297 6.296 3.478 0 6.297-2.82 6.297-6.296 0-.452-.048-.892-.138-1.315h-6.238zm11.438.2V12.09H21.8v2.19h-2.19v1.596h2.19v2.19h1.596v-2.19h2.19V14.28h-2.19z"/></svg>