<svg xmlns="http://www.w3.org/2000/svg" width="30" height="30" viewBox="0 0 30 30"><path fill="#FFF" d="M21.13 7H8.843C7.825 7 7 7.825 7 8.843V21.13C7 22.145 7.825 23 8.843 23H21.13c1.02 0 1.87-.854 1.87-1.87V8.842C23 7.825 22.148 7 21.13 7zm-3.07 2.457c0-.34.274-.614.613-.614h1.843c.34 0 .614.275.614.614V11.3c0 .34-.274.614-.614.614h-1.843c-.34 0-.614-.275-.614-.614V9.457zm-3.074 2.458c1.698 0 3.073 1.375 3.073 3.07s-1.376 3.074-3.074 3.074c-1.696 0-3.072-1.378-3.072-3.074s1.376-3.07 3.072-3.07zm6.414 8.6c0 .34-.545.886-.885.886H9.458c-.34 0-.857-.546-.857-.884V13.4h1.634c-.1 0-.162.938-.162 1.363 0 2.715 2.2 5.05 4.915 5.05s4.914-2.29 4.914-5.005c0-.425-.058-1.408-.158-1.408H21.4v7.116z"/></svg>