<svg xmlns="http://www.w3.org/2000/svg" width="30" height="30" viewBox="0 0 30 30"><path fill="#FFF" d="M21.814 7H8.18C7.53 7 7 7.517 7 8.153v13.692C7 22.482 7.53 23 8.18 23h13.634c.653 0 1.186-.518 1.186-1.154V8.153C23 7.517 22.467 7 21.814 7zM12 21h-2v-7h2v7zm-1-7.65c-.747 0-1.35-.605-1.35-1.35 0-.746.604-1.35 1.35-1.35.745 0 1.35.604 1.35 1.35 0 .745-.605 1.35-1.35 1.35zM20 21h-2v-3.195c0-.906-.498-1.77-1.52-1.77S15 16.72 15 17.738V21h-2v-7h2v1.26s.292-.86 2.057-.86C18.82 14.4 20 15.916 20 18.02V21z"/></svg>