<svg xmlns="http://www.w3.org/2000/svg" width="30" height="30" viewBox="0 0 30 30"><path fill="#FFF" d="M15 7.146c-4.338 0-7.854 3.517-7.854 7.854 0 3.248 1.972 6.035 4.783 7.23-.07-.666-.113-1.554.04-2.215.13-.562.796-3.372.906-3.84-.07-.162-.226-.6-.226-1.185 0-1.182.713-2.108 1.622-2.108.714 0 1.193.525 1.193 1.307 0 .46-.18 1.04-.368 1.65-.103.335-.21.677-.288 1.01-.07.298-.013.584.162.806.186.234.48.368.806.368 1.315 0 2.27-1.43 2.27-3.397 0-1.764-1.267-2.996-3.08-2.996-2.175 0-3.348 1.654-3.348 3.21 0 .594.222 1.28.54 1.665.098.12.13.25.094.398l-.22.892c-.06.265-.25.294-.328.294-.063 0-.133-.02-.21-.055-1.072-.5-1.712-2.032-1.712-3.225 0-2.385 1.687-4.953 5.39-4.953 2.874 0 5.042 2.036 5.042 4.736 0 2.9-1.838 5.085-4.275 5.085-.657 0-1.31-.26-1.71-.655l-.386 1.472c-.184.71-.672 1.574-.967 2.06.677.19 1.387.3 2.124.3 4.34 0 7.855-3.518 7.855-7.855S19.338 7.146 15 7.146z"/><path fill="none" d="M7 7h16v16H7z"/></svg>