<svg xmlns="http://www.w3.org/2000/svg" width="30" height="30" viewBox="0 0 30 30"><path fill="#FFF" d="M19.8 7h-9.6C8.44 7 7 8.44 7 10.2v9.6c0 1.76 1.44 3.2 3.2 3.2h9.6c1.76 0 3.2-1.44 3.2-3.2v-9.6C23 8.44 21.56 7 19.8 7zm.35 4.593c0 1.134-.923 2.058-2.058 2.058h-.186c-.357 0-.708-.094-1.02-.275L13.633 15l3.252 1.626c.313-.18.664-.276 1.02-.276h.187c1.135 0 2.058.923 2.058 2.058v.186c0 1.135-.922 2.058-2.057 2.058h-.186c-1.135 0-2.058-.923-2.058-2.058v-.186c0-.118.012-.237.037-.366l-3.234-1.617c-.39.457-.963.727-1.56.727h-.187c-1.135 0-2.058-.924-2.058-2.058v-.186c0-1.134.923-2.058 2.058-2.058h.186c.598 0 1.17.27 1.56.727l3.235-1.617c-.025-.13-.038-.25-.038-.367v-.186c0-1.134.922-2.058 2.057-2.058h.186c1.135 0 2.058.922 2.058 2.057v.186z"/></svg>