<svg xmlns="http://www.w3.org/2000/svg" width="30" height="30" viewBox="0 0 30 30"><path fill="#FFF" d="M23.156 11.495c.007.158.012.32.012.48 0 4.877-3.717 10.504-10.508 10.504-2.085 0-4.027-.61-5.66-1.66.288.036.582.054.88.054 1.73 0 3.323-.592 4.586-1.582-1.617-.03-2.98-1.098-3.45-2.564.227.044.458.068.695.068.337 0 .665-.047.974-.13-1.69-.34-2.962-1.833-2.962-3.62v-.05c.497.277 1.068.445 1.672.464-.99-.663-1.643-1.793-1.643-3.074 0-.677.183-1.312.5-1.856 1.822 2.232 4.543 3.705 7.612 3.858-.063-.272-.095-.554-.095-.84 0-2.043 1.653-3.694 3.692-3.694 1.062 0 2.02.448 2.694 1.167.842-.166 1.633-.474 2.345-.895-.275.86-.862 1.586-1.625 2.043.747-.09 1.46-.288 2.123-.582-.494.737-1.12 1.388-1.842 1.91z"/></svg>