<svg width="0" height="0" class="visually-hidden">
  <symbol id="esri-map-pin" xmlns="http://www.w3.org/2000/svg" x="0px" y="0px" width="19px" height="36px" viewBox="0 0 19 36">
    <g class="outter-fill"><path d="M19,7.312C19,2.031,14.746,0,9.5,0S0,2.031,0,7.312l0,0v19.125L9.5,36l9.5-9.562V7.318 C19,7.316,19,7.314,19,7.312z" /></g>
    <path class="inner-fill" d="M1,26.025V7.312C1,1.82,6.326,1,9.5,1S18,1.82,18,7.312v18.713l-8.5,8.556L1,26.025z" />
    <path class="half-inner-fill" d="M10,2.009v30.65l7-7.045V7.312C17,3.134,13.307,2.099,10,2.009z" />
    <circle class="circle" cx="9.5" cy="11.5" r="5.15" />
  </symbol>
</svg>
