<svg xmlns="http://www.w3.org/2000/svg" width="32" height="32" viewBox="0 0 32 32"><path clip-rule="evenodd" fill="none" d="M0 0h32v32H0z"/><path fill="#E5D255" d="M31 28s-6-3-15 0-15 0-15 0L5 4s6 2 11 0 11 0 11 0l4 24z"/><path fill="#6D6E71" d="M7 15h9v17H7zM15 11H8l-1 4h9"/><path fill="#F8F8F8" d="M8 15l.8-3h5.4l.8 3"/><path fill="#E0E0E0" d="M8 16h7v15H8z"/><path fill="#6D6E71" d="M18 21h9v11h-9zM26 17h-7l-1 4h9"/><path fill="#F8F8F8" d="M19 21l.7-3h5.5l.8 3"/><path fill="#E0E0E0" d="M19 22h7v9h-7z"/><g fill="#CCC"><path d="M20 23h1v1h-1zM22 23h1v1h-1zM24 23h1v1h-1zM20 25h1v1h-1zM22 25h1v1h-1zM24 25h1v1h-1z"/><g><path d="M20 27h1v1h-1zM22 27h1v1h-1zM24 27h1v1h-1z"/></g><g><path d="M20 29h1v1h-1zM22 29h1v1h-1zM24 29h1v1h-1z"/></g></g><g fill="#CCC"><path d="M9 17h1v1H9zM11 17h1v1h-1zM13 17h1v1h-1zM9 19h1v1H9zM11 19h1v1h-1zM13 19h1v1h-1zM9 21h1v1H9zM11 21h1v1h-1zM13 21h1v1h-1z"/><g><path d="M9 23h1v1H9zM11 23h1v1h-1zM13 23h1v1h-1z"/></g><g><path d="M9 25h1v1H9zM11 25h1v1h-1zM13 25h1v1h-1z"/></g><g><path d="M9 27h1v1H9zM11 27h1v1h-1zM13 27h1v1h-1z"/></g><g><path d="M9 29h1v1H9zM11 29h1v1h-1zM13 29h1v1h-1z"/></g></g><path fill="#F8F8F8" d="M8 16h1v15H8zM19 22h1v9h-1z"/><path fill="#6D6E71" d="M22 14h1v5h-1z"/></svg>