<svg xmlns="http://www.w3.org/2000/svg" width="32" height="32" viewBox="0 0 32 32"><path fill="#C96B4B" d="M9 22H4v-5h5v5"/><path fill="#F4DFD8" d="M5 18h3v3H5z"/><path fill="#57A6D9" d="M9 6H4V1h5v5"/><path fill="#D3EAF9" d="M5 2h3v3H5z"/><linearGradient id="a" gradientUnits="userSpaceOnUse" x1="8.004" y1="12.996" x2="5.004" y2="9.996"><stop offset="0" stop-color="#003068"/><stop offset=".494" stop-color="#0066CF"/><stop offset="1" stop-color="#00C0FF"/></linearGradient><path fill="url(#a)" d="M5 10h3v3H5z"/><path fill="#5B945A" d="M6.5 14C5.1 14 4 12.9 4 11.5S5.1 9 6.5 9 9 10.1 9 11.5 7.9 14 6.5 14z"/><linearGradient id="b" gradientUnits="userSpaceOnUse" x1="7.564" y1="12.557" x2="5.444" y2="10.436"><stop offset="0" stop-color="#005F00"/><stop offset="1" stop-color="#00D400"/></linearGradient><circle fill="url(#b)" cx="6.5" cy="11.5" r="1.5"/><circle fill="#DDEEDB" cx="6.5" cy="11.5" r="1.5"/><path fill="#9182BD" d="M5 30c-.3 0-.7-.2-.9-.5s-.2-.7 0-1l1.5-3c.2-.3.6-.5.9-.5.4 0 .7.2.9.6l1.5 3c.2.3.1.7 0 1s-.6.4-.9.4H5z"/><path fill="#E6E2F0" d="M5 29l1.5-3L8 29"/><path fill="none" d="M0 0h32v32H0z"/><path fill="#57A6D9" d="M13 3h14v1H13zM13 11h10v1H13zM13 19h8v1h-8zM13 27h8v1h-8z"/><path fill="#6D6E71" d="M32 23h-6v-6h-3v6h-6v3h6v6h3v-6h6"/></svg>