<svg xmlns="http://www.w3.org/2000/svg" width="32" height="32" viewBox="0 0 32 32"><linearGradient id="a" gradientUnits="userSpaceOnUse" x2="14.001" y2="14.001"><stop offset="0" stop-color="#FFFBE4"/><stop offset="1" stop-color="#EED865"/></linearGradient><path fill="url(#a)" d="M14 14H0V0h14v14"/><path fill="#F0E498" d="M1 1h12v12H1z"/><linearGradient id="b" gradientUnits="userSpaceOnUse" x1="17" x2="31" y2="14"><stop offset="0" stop-color="#DAEEFF"/><stop offset=".978" stop-color="#8CD9FF"/></linearGradient><path fill="url(#b)" d="M31 14H17V0h14v14"/><path fill="#D3EAF9" d="M18 1h12v12H18z"/><path fill="#5FBA65" d="M31 31H17V17h14v14"/><g fill="#9BC29C"><path d="M8.4 9.9c.4-.1.1.7-.3.6-.2 0-.3-.2-.5-.3-.3-.1-.4-.1-.7 0-.8.1-.4-.4-.1-.8.2-.3.3-.3.6-.2.3.2.6.4.8.6l.2.1zM9.9 4.7c-.2.1-.8.3-.9.5-.2.3.1.6.3.8.2.3.4.5.4.9 0 .3.1 1.1.6.9.5-.2.4-1 .5-1.4.1-.4.6-.6.7-1 .1-.4-.3-1.1-.7-1-.2 0-.3.3-.5.2l-.4.1zM5.8 8.4c.2-.4-1.3-.8-1.6-.7-.6.2-.8 1.3-.3 1.7.5.4.9-.1 1.1-.5 0-.2 0-.2.2-.3h.4l.2-.2z"/></g><path fill="#9BC29C" d="M18 18h12v12H18z"/><path fill="none" d="M0 0h32v32H0z"/><path fill="#D3B490" d="M14 10.4c-.9-.2-1.7-.4-2.6-.8h-.1c.7-.6 1.6-1.1 2.5-1.5 0-.1.1-.1.2-.2v-.7c-.1.1-.3.1-.5.2-1 .5-2 1-2.8 1.8C9.1 8.5 7.8 7.8 7 6.3c-.3-.4-.5-.8-.8-1.1.3-.3.6-.6.8-1C7.4 2.9 8.2 1.5 8.6 0h-.7c-.3 1.3-1.1 2.6-1.6 3.9-.1.4-.3.6-.6.8-1.1-1-2.6-1.6-4.1-1.6-.5 0-1.1.1-1.6.3V4c.5-.2 1.1-.3 1.7-.3 1.3 0 2.5.5 3.5 1.3-.4.2-.8.4-1.3.7-1.1.6-2.2 1-3.3 1.7-.3.1-.4.3-.6.4v1s0-.1.1-.1c1 .5 2 1.1 2.6 1.8.3.3.3.2.4.4v.3c0 .3-.2.8-.3 1.1-.3.6-.7 1.1-1 1.7h.7c.3-.4.5-.8.8-1.4.2-.4.4-.9.4-1.4 0-.2 0-.4-.1-.5-.2-.5-.5-.5-.6-.6-.6-.7-1.6-1.3-2.5-1.8.1-.2.2-.3.4-.4 1-.6 2.2-1.1 3.3-1.7.5-.3 1-.5 1.4-.7.3.3.6.7.8 1.1.9 1.6 2.3 2.4 3.8 3.1l-.1.1c-.8 1-1.5 2.9-2.4 4.2h.8c.8-1.3 1.4-3 2.1-3.8.1-.1.2-.1.2-.2.1.1.2.1.3.1 1 .5 1.9.8 2.9.9v-.6z"/><path fill="#808284" d="M0 0v14h14V0H0zm13 13H1V1h12v12z"/><path fill="#6DB5E3" d="M17 0v14h3.7c0-.1.1-.2.1-.3.1-.2.1-.4.1-.7 0-.7-1.2-.5-1.4-.9-.5-1 .8-1.2.8-2 0-.2-.1-.6-.4-.6-.4 0-.5.2-.9.2-.3 0-.5-.2-.5-.4 0-.5.4-.7.4-1.1 0-.3-.1-.5-.1-.8 0-.4.3-.8.7-.8.4 0 .6.3.7.6.2.3.4.4.7.4.6 0 .9-.7.9-1.2 0-.3.2-.6.5-.6.4 0 .6.4 1 .4.7 0 .7-.9 1.3-1.2.7-.4.5-1.3.4-1.7 0-.2.3-.6.6-.6.9.1.5-.6.5-1v-.2c.1-.4.7-.5.7-1 0-.3-.2-.5-.3-.7H17zm13.8 9.7H30c-.4 0-.8 0-1.1-.3-.3-.3-.3-.8-.7-.8-.6 0-.6.9-1.2.9-.3 0-.4-.2-.6-.2-.2 0-.5.1-.5.4v.6c0 .5-.7.6-.7 1.1 0 .2.2.3.2.5 0 .7-1.2.6-1.2 1.3 0 .2.1.4.1.6v.3H31V9.7h-.2z"/><path fill="#9BC29C" d="M17 0v14h2.8c0-.2.1-.4.2-.6v-.1h-.1c-.4-.1-1-.2-1.2-.8-.4-.9-.1-1.5.2-1.9-.8 0-1.4-.6-1.4-1.3 0-.5.2-.8.3-1 0-.1.1-.1.1-.1V8c0-.1-.1-.3-.1-.6 0-.9.7-1.7 1.6-1.7.8 0 1.2.6 1.4 1 0-.1.1-.2.1-.2 0-.8.6-1.5 1.4-1.5.4 0 .7.1.9.3.2-.3.4-.7.9-1 .1-.1.1-.3 0-.8-.1-.3 0-.7.3-1.1.1-.1.3-.4.7-.5v-.2c0-.1 0-.3.1-.5.1-.4.4-.6.6-.8-.1-.1-.2-.4-.2-.6H17zm13.8 10.5H30c-.5 0-1.1-.1-1.7-.5-.1-.1-.2-.2-.2-.3-.2.2-.6.5-1.1.5h-.2c0 .5-.3.9-.6 1.1 0 .1.1.3.1.4 0 .9-.8 1.3-1.1 1.4h-.1c0 .1 0 .2.1.4v.3H31v-3.4c-.1.2-.2.1-.2.1z"/><path fill="#F4EEC8" d="M17 17v7c.2 0 .3-.2.4-.5 1.5-3.7 3.3.7 4 0 .7-.7-.3-1.7.4-2.5.6-.6 1.4-.3 1.9-1.1.5-.7-.4-3.1.2-2.4 1.2-.1 2.4.3 3.3-.6H17z"/><path fill="#F0E498" d="M17 22.7c.3-.6.9-1.3 1.8-1.3.7 0 1.3.5 1.9 1l.2.2.1.1v-.1c-.1-.5-.2-1.2.4-1.9.4-.4.9-.6 1.2-.7.3-.1.5-.1.6-.3.1-.2 0-.9-.1-1.2-.1-.6-.1-1.1.2-1.4l.1-.1H17v5.7zm7.4-5.7l.1.1c.3.3.5.4.7.4.3 0 .6-.2.9-.5h-1.7z"/><path fill="#F7CB93" d="M20.2 20.9c-.4-.2-.9-.4-1.4-.4-.3 0-.7.1-1 .2 0 0-.5-.1-.8.7V17h5.1c0 .2.2 1.3.2 1.5 0 .3.1.5.1.6-.4.1-1 .3-1.6.9-.3.4-.5.7-.6.9z"/><path fill="#F4EEC8" d="M31 19c-.7 1.1-1 3-1.6 3.7-1.1 1.5-1.6 0-2-1.2-.5-1.5-.7-2.5-2.1-1.2-.5.5-.9.5-.7 1.4.2.7.8 1 .6 1.8-.6 0-1.1-.1-1.5.3-.4.5.1 1-.6 1.5-.6.4-1.3.2-2.1.3-.3 0-.6.1-.8.3.3.4.9.6 1.4.8.9.2 1.8.3 2.6.7-1.1.6-2.4.5-3.1 1.6-.5.7-.9 1.3-1.4 1.9h4.5c.2-.1.5-.3.7-.4.6-.4 1.5-.5 2.1-.8.4.6-.3.7.1 1.2 0 0 .1 0 .1.1H31V19z"/><path fill="#F0E498" d="M31 20.8c-.1.2-.1.4-.2.5-.2.8-.5 1.4-.8 1.8-.2.2-.7.9-1.4.9-1.1 0-1.5-1.2-1.9-2.3l-.1-.4c-.1-.3-.2-.6-.3-.8-.1.1-.2.2-.4.3-.1.1-.3.2-.4.3-.1 0-.1.1-.1.1v.3c0 .2.1.3.2.4.2.4.5.9.4 1.7-.1.3-.4.6-.7.6h-1v.2c0 .3 0 1-.7 1.4-.2.2-.5.3-.7.3.6.1 1.2.3 1.8.5.3.1.4.4.5.6 0 .3-.1.6-.4.7-.5.3-1 .5-1.5.6-.7.2-1.1.3-1.4.8-.4.5-.7 1-1.1 1.5h1.9c.6-.2 1.1-.6 1.8-1 .4-.3.9-.4 1.3-.6.3-.1.6-.2.8-.3.3.1.4.1.6.1.2 0 .5.1.6.3.3.5.3.9.2 1.2.1 0 .2.1.3.1.2.1.4.1.6.2 0 0 .1.1.2.1h2V20.8z"/><path fill="#F7CB93" d="M31 23.1l-.3.6c-.6.8-1.3 1.2-2.1 1.2s-1.4-.4-1.8-1c-.1.7-.7 1.2-1.4 1.2h-.3c-.1.3-.2.6-.4.9.1 0 .2.1.3.1.5.2.9.7.9 1.3 0 .5-.2 1-.6 1.3.1 0 .3-.1.4-.1.2-.1.5-.2.6-.2.2-.1.5-.2.8-.2.5 0 1 .3 1.3.7.3.4.4.8.4 1.2.1.1.3.1.4.2.2.1.5.3.8.5.1.1.3.2.5.3h.5v-8z"/><path fill="#FFAD8C" d="M17 17v4.4c.3-.8.8-.7.8-.7.1 0 .1 0 .2-.1V18h4.2c-.1-.4-.1-.8-.1-1H17zm13.7 6.7c-.2.3-.4.5-.7.7V30h-1.2c.1.1.3.1.4.2.2.1.5.3.8.5.1.1.3.2.5.3h.5v-7.9l-.3.6z"/><path fill="#808284" d="M17 0v14h14V0H17zm13 13H18V1h12v12zM17 17v14h14V17H17zm13 13H18V18h12v12zM0 17v14h14V17H0zm13 13H1V18h12v12z"/><path fill="#D3EAF9" d="M1 18h12v12H1z"/><path fill-rule="evenodd" clip-rule="evenodd" fill="#E9DED4" d="M10.1 18.6l-.1.1h-.2c-.3-.1-.6-.1-.7-.2l-.2-.1c-.1 0-.2-.1-.3-.1h-.1c-.1 0-.2 0-.4.1H8l-.1.1-.2.2-.1.1c-.3.2-.4.2-.5.3l-.1.1c-.1.1-.3.2-.4.3-.1.1-.2.2-.2.3-.3.4-.2.8-.2 1 0 .1 0 .2.1.2.1.3.1.6 0 .8l-.5.4c-.1 0-.2.1-.2.1l-.2.1c-.8.4-1.3.8-1.5 1.3l-.1.2v.1c0 .3-.1.6-.2.9-.1.3-.2.4-.2.4H2c-.2 0-.4 0-.5.1h-.1c-.1 0-.2.1-.3.1V30h12V18h-3v.1c-.1.2 0 .4 0 .5z"/><path fill="#D3B490" d="M10.6 18c0 .3.1.3.2.6v.2c0 .1-.1.1-.1.2-.1.1-.2.3-.3.4H9.8h-.1c-.4-.1-.7-.2-.9-.2h-.1c-.1 0-.2 0-.2-.1h-.2s-.1 0-.1.1l-.1.1-.2.2c-.1.1-.3.2-.5.3-.1.1-.2.1-.3.2-.1-.1-.2 0-.2.1-.1.1-.1.3-.1.5 0 .1.1.2.1.3.1.6.1 1.5-.2 1.7l-.1-.1-.1-.1c0 .2-.2.2-.2.4v-.1c-.1 0-.3.1-.4.2-.1 0-.1 0-.2.1-.5.2-1 .6-1.2 1v.1c0 .3-.1.7-.2 1-.1.4-.4.7-.7.8h-.5c-.5 0-1-.1-1.4 0h-.1c-.1 0-.3.2-.6.3V30h12V18h-2.4zm-2.1 1.8zm3.3.4s0 .1 0 0c0 .1 0 .1 0 0z"/></svg>