<svg xmlns="http://www.w3.org/2000/svg" width="32" height="32" viewBox="0 0 32 32"><path fill="#6DB5E3" d="M1 8h31v23H1z"/><path fill="#939598" d="M3 27h27v3H3z"/><path fill="#6D6E71" d="M23 5c-2.8 0-5.6 1-7 1.6V29h1.4c1.5-.5 3.6-1 5.6-1 3.5 0 7.1 2.4 8 3.1V8.2S27 5 23 5z"/><path fill="#6D6E71" d="M10 5c2.8 0 5.6 1 7 1.6V29h-1.4c-1.5-.5-3.6-1-5.6-1-3.5 0-7.1 2.4-8 3.1V8.2S6 5 10 5z"/><path fill="#F8F8F8" d="M30 29.2c-1.6-1-4.3-2.2-7-2.2-1.8 0-3.7.4-5.8 1H17V7.2c1.5-.5 3.7-1.2 6-1.2 2.9 0 6 2 7 2.7v20.5z"/><path fill="#CCC" d="M29 28.6c.4.2.7.4 1 .5V8.7c-.2-.2-.6-.4-1-.7v20.6z"/><path fill="#F8F8F8" d="M3 29.2c1.6-1 4.3-2.2 7-2.2 1.8 0 3.7.4 5.8 1h.2V7.2C14.5 6.7 12.3 6 10 6 7.1 6 4 8 3 8.7v20.5z"/><path fill="#CCC" d="M4 28.6c-.4.2-.7.4-1 .5V8.7c.2-.2.6-.4 1-.7v20.6z"/><path fill="#F8F8F8" d="M23 5c-1 0-2 .1-3 .3V21c0 .4.2.7.6.9.1.1.3.1.4.1.2 0 .4-.1.6-.2l1.9-1.5 1.9 1.5c.2.1.4.2.6.2.1 0 .3 0 .4-.1.3-.2.6-.5.6-.9V5.9c-1.2-.5-2.6-.9-4-.9z"/><path fill="#57A6D9" d="M21 0h5v21l-2.5-2-2.5 2"/><path fill="none" d="M0 0h32v32H0z"/></svg>