<svg xmlns="http://www.w3.org/2000/svg" width="32" height="32" viewBox="0 0 32 32"><linearGradient id="a" gradientUnits="userSpaceOnUse" x1="30" y1="30" x2="1" y2="1"><stop offset="0" stop-color="#333"/><stop offset="1" stop-color="#A6A6A6"/></linearGradient><path fill="url(#a)" d="M2 31c-1.1 0-2-.9-2-2V2C0 .9.9 0 2 0h27c1.1 0 2 .9 2 2v27c0 1.1-.9 2-2 2H2z"/><path fill="#6D6E71" d="M2 31c-1.1 0-2-.9-2-2V2C0 .9.9 0 2 0h27c1.1 0 2 .9 2 2v27c0 1.1-.9 2-2 2H2z"/><path fill="#F8F8F8" d="M2 30c-.6 0-1-.4-1-1V2c0-.6.4-1 1-1h27c.6 0 1 .4 1 1v27c0 .6-.5 1-1 1H2z"/><path fill="#F8F8F8" d="M3 3h25v25H3z"/><path fill="none" d="M0 0h32v32H0z"/><path opacity=".8" fill="#939598" d="M2 2v27h27V2H2zm26 26H3V3h25v25z"/><path fill="#6DB5E3" d="M9 6h12v1H9zM6 6h1v1H6zM11 9h7v1h-7zM8 9h1v1H8zM9 18h11v1H9zM6 18h1v1H6zM11 21h12v1H11zM8 21h1v1H8zM11 24h9v1h-9zM8 24h1v1H8zM13 12h12v1H13zM10 12h1v1h-1zM13 15h10v1H13zM10 15h1v1h-1z"/></svg>