<svg xmlns="http://www.w3.org/2000/svg" width="32" height="32" viewBox="0 0 32 32"><path clip-rule="evenodd" fill="none" d="M0 0h32v32H0z"/><path fill="#E5D255" d="M31 28s-6-3-15 0-15 0-15 0L5 4s6 2 11 0 11 0 11 0l4 24z"/><path fill="#F4EEC8" d="M16 4c-2.4.9-4.9 1-7 .8v11.6c0 .3.1.5.3.7l5.5 5.6c.2.2.4.3.7.3s.5-.1.7-.3l5.5-5.6c.2-.2.3-.4.3-.7V4.1c0-.3-.1-.7-.1-1-1.9 0-4 .1-5.9.9z"/><path fill="#C7552E" d="M21 4.1C21 1.8 18 0 15.5 0S10 1.8 10 4.1v12.3l5.5 5.6 5.5-5.6V4.1z"/><path fill="#E5A894" d="M11 15.8V4.1C11 2.7 13.7 1 15.5 1S20 2.7 20 4.1v11.7L15.5 20 11 15.8z"/><path fill="#C96B4B" d="M16 2.4v15.7l3-2.7V4.1c0-.5-1.6-1.5-3-1.7z"/><circle fill="#F8F8F8" cx="15.5" cy="6.5" r="2.5"/></svg>