<svg xmlns="http://www.w3.org/2000/svg" width="32" height="32" viewBox="0 0 32 32"><path clip-rule="evenodd" fill="none" d="M0 0h32v32H0z"/><path fill="#E5D255" d="M31 28s-6-3-15 0-15 0-15 0L5 4s6 2 11 0 11 0 11 0l4 24z"/><path fill="#F4EEC8" d="M16 4c-2.4.9-4.9 1-7 .8v11.6c0 .3.1.5.3.7l5.5 5.6c.2.2.4.3.7.3s.5-.1.7-.3l5.5-5.6c.2-.2.3-.4.3-.7V4.1c0-.3-.1-.7-.1-1-1.9 0-4 .1-5.9.9z"/><path fill="#C7552E" d="M21 4.1C21 1.8 18 0 15.5 0S10 1.8 10 4.1v12.3l5.5 5.6 5.5-5.6V4.1z"/><path fill="#E5A894" d="M11 15.8V4.1C11 2.7 13.7 1 15.5 1S20 2.7 20 4.1v11.7L15.5 20 11 15.8z"/><path fill="#C96B4B" d="M16 2.4v15.7l3-2.7V4.1c0-.5-1.6-1.5-3-1.7z"/><circle fill="#F8F8F8" cx="15.5" cy="6.5" r="2.5"/><path fill="#6D6E71" d="M18 22.1v7.1c0 1.5 2.4 2.7 6.9 2.7s7.1-1.2 7.1-2.7v-7.1H18z"/><path fill="#F3F4F4" d="M24.9 31c-4.7 0-5.9-1.3-5.9-1.7v-6.1h12v6.1c0 .4-1.4 1.7-6.1 1.7z"/><path fill="#E0E0E0" d="M27 30.9c3.3-.3 4-1.3 4-1.7v-5.9h-4v7.6z"/><path fill="#6D6E71" d="M32 22.1c0 1.5-2.6 2.7-7.1 2.7S18 23.6 18 22.1s2.4-2.7 6.9-2.7 7.1 1.2 7.1 2.7z"/><path fill="#F3F4F4" d="M24.9 23.9c-4.7 0-5.9-1.3-5.9-1.7 0-.4 1.2-1.7 5.9-1.7s6.1 1.3 6.1 1.7c0 .4-1.4 1.7-6.1 1.7z"/></svg>