<svg xmlns="http://www.w3.org/2000/svg" width="32" height="32" viewBox="0 0 32 32"><circle fill-rule="evenodd" clip-rule="evenodd" fill="#F8F8F8" cx="16" cy="16" r="14.5"/><circle fill="#D3EAF9" cx="16" cy="16" r="12.5"/><path fill="#9BC29C" d="M8.7 22.1c-.2-.2-.6-.5-1.3-1l-.2-.1c-.2-.1-.3-.2-.5-.3-.1-.1-.3-.2-.4-.3-.1-.1-.1-.2-.1-.3v-.3c0-.3.1-.6-.1-.9-.1-.5-.2-.9-.4-1.2l-.1-.1c-.2-.3-.3-.6-.4-.9-.1-.2-.2-.3-.2-.5-.1-.1-.1-.2-.2-.3l-.1-.1c-.2-.2-.3-.4-.3-.8 0-.3-.1-.5-.2-.6l-.2-.2c-.1 0-.1-.1-.2-.1h-.2c-.1.6-.2 1.3-.2 1.9 0 3.4 1.3 6.4 3.5 8.6h.4c.1 0 .2 0 .2-.1.1 0 .1-.1.2-.1l.2-.2c.1-.1.1-.3.1-.3v-.3c0-.2 0-.3.3-.5.1-.1.2-.1.3-.2.1-.1.2-.2.2-.3v-.3c0-.1 0-.1-.1-.2zm19.7-6.4c0-.1-.2-.2-.3-.3 0 0-.1 0-.2-.1-.1 0-.2-.1-.2-.2s0-.3.1-.3c.1-.1.2-.1.3-.1H28.4c-.4-4-2.7-7.4-5.9-9.4-.1.1-.1.2-.1.4 0 .1 0 .1.1.2l.1.1.1.2c0 .1 0 .1.1.1v.1c0 .1-.1.1-.2.1-.2 0-.6-.1-.8-.2h-.1c-.1 0-.2-.1-.3-.1-.2-.1-.3-.1-.3-.1-.3 0-.7.3-.8.5 0 0-.1.1-.1.2l-.1.2c0 .1-.1.2-.1.3 0 .1-.1.2-.1.2 0 .1-.1.1-.1.1-.1.2 0 .4.1.6.2.2.5.4.7.6.1.1.2.1.2.1.1 0 .1 0 .2-.1s.2-.2.2-.4v-.1-.4c0-.1.1-.2.1-.3 0 0 .1-.1.2-.1l.1.1.1.1s.1.1.2.1c.1.1.3.2.3.3.1.3.1.6-.1.9-.1.6-.1.7-.6.7-.2 0-.4-.1-.5-.1H20.7c-.1 0-.2 0-.3.1-.1.1-.2.1-.2.2-.2.1-.3.3-.4.4-.1.1-.4.4-.8.6-.2.1-.3.3-.2.6v.1c0 .1.1.3.1.4 0 .2-.1.2-.2.2h-.2-.1c-.1 0-.2 0-.3-.1H18h-.1c-.2 0-.4.1-.4.3 0 .1-.1.2-.1.3v.7c0 .2.1.4.3.5.1 0 .1 0 .2.1h.1c.1 0 .2 0 .2.1h.1c.2 0 .3-.1.4-.2l.2-.2c0-.1.1-.1.1-.2v-.1s0-.1.1-.1c0-.1.1-.1.2-.2.2-.1.2-.2.3-.3l.1-.1c0-.1.1-.1.1-.1.1-.1.3-.2.5-.2.1 0 .2 0 .3.1.1 0 .2.1.3.2.1.1.2.1.3.1h.2c.2-.1.3-.2.3-.4 0 0 .1 0 .1.1.1.1.2.2.4.3l.4.4c.1.1.2.2.2.3 0 .1.1.3.2.4.1.1.2.2.4.2s.3-.1.4-.2c0-.1.1-.1.1-.1s.1 0 .1.1.1.1.1.2c.1.2.2.3.4.3H24.8c.4 0 .4.2.5.3.1.3.2.5.2.6 0 .3-.2.4-.3.4-.2.1-.3.1-.4.2-.1 0-.2.1-.4.1h-.2c-.1 0-.2-.1-.3-.1-.1 0-.2-.1-.3-.1h-.1c-.2 0-.4.1-.4.3v.2c0 .1-.1.1-.2.1-.3 0-1.3-.4-1.5-.7-.1-.1-.1-.2-.1-.2v-.2c0-.2-.2-.5-.4-.5-.1 0-.3 0-.5-.1h-.9c-.2 0-.4.1-.6.2h-.1-.1-.1-.1c-.1 0-.1 0-.2-.1l-.1-.1h-.1c-.1-.1-.2-.1-.2-.1h-.1c-.1 0-.2 0-.3.1l-.1.1-.1.1-.2.2c-.3.2-.5.4-.7.8-.1.2-.1.3-.2.3 0 0-.1.1-.2.1s-.1 0-.2.1c-.4.1-.9.7-1.2 1.2-.1.2-.2.4-.2.5v.4c0 .3-.1.7-.4.9-.1.1-.1.1-.1.2v.3c0 .2.1.4.2.5 0 .1.1.1.2.2l.1.1.1.1c.1.1.3.3.4.5.1.4.3.7.6 1 .4.3.7.5 1 .5h.5c.2 0 .4-.1.6-.1.2 0 .5-.1.7-.1.2 0 .4 0 .5.1.2.1.4.1.6.1.1 0 .2 0 .3.1.3.1.4.2.5.4.1.2 0 .4 0 .5v.1c0 .1 0 .1-.1.2 0 .2 0 .3.1.4l.1.1c.1.1.3.3.3.6 0 .6-.1.9-.4 1.2-.3.3-.5.5-.5.9v1.2c2.3-.7 4.4-2 5.9-3.8 0-.1 0-.2.1-.3 0-.2.1-.5.3-.8.1-.3.4-.7.6-1l.2-.3.6-.9c.2-.4.4-.7.5-1 0-.1 0-.3-.1-.4-.1-.1-.2-.1-.4-.1h-.2l-.1-.1c0-.1-.1-.1-.1-.2-.1-.2-.1-.4-.2-.6v-.1c0-.2-.1-.3-.1-.5-.1-.3-.2-.4-.2-.4-.1-.1-.3-.5-.4-.9-.1-.2-.1-.3-.1-.5v-.2c.3.2.9 1.6 1 1.9 0 .1 0 .3.1.4.1.2.2.3.4.3s.3-.1.4-.2l.6-1.2c.2-.5.2-.8.3-1.1-.3-.5-.3-.6-.4-.8zM12.1 4.9c-.1 0-.2-.1-.3-.1-.1 0-.2 0-.3.1-.1 0-.1.1-.2.1l-.1.1c-.1 0-.1.1-.2.1-.1.1-.2.1-.3.1-.1 0-.2.1-.2.1s-.2 0-.1-.3v-.3C8.3 5.9 6.5 7.6 5.3 9.6c.1 0 .1.1.2.1h.1c.1 0 .3-.1.3-.2.1-.2.3-.3.5-.4.1 0 .2-.1.3-.1.1-.1.2-.1.3-.2.2-.2.6-.5 1-.5h1.1c.4 0 .6-.4.6-.5.1-.4.2-.5.4-.5h.1c.1 0 .2 0 .3.1.1 0 .2 0 .3.1h.1c.1 0 .3-.1.3-.2.3-.3.7-.9.9-1.2.1-.2.2-.4.2-.6 0-.3-.1-.5-.2-.6zm6 3.9c0 .1-.1.1-.1.2-.1.1 0 .3.1.4.1.1.2.2.3.2h.1v.1c0 .2 0 .4.2.4.1.1.2.1.3.1h.1c.2-.1.3-.4.3-.5 0-.2-.2-.4-.4-.4V9c0-.1-.1-.3-.3-.4-.1-.1-.2-.1-.3-.1h-.1c0 .1-.1.2-.2.3zm-4.3-5.1c-.5.1-.9.2-1.4.3 0 .2.2.3.4.3H13.4c.1 0 .1 0 .2-.1l.1-.1c.1-.1.2-.2.1-.4zm.3 3.1c.1 0 .2 0 .2-.1.3-.2.8-.4 1.2-.5H16.8c.1 0 .3-.1.3-.2.1-.1.1-.1.1-.2s.1-.1.1-.2c.1-.2.2-.3.3-.5.2 0 .3-.1.4-.1l.1-.1c.1-.1.2-.2.2-.3 0-.1 0-.2-.1-.3-.2-.1-.3-.2-.4-.3-.2-.1-.5-.1-1-.2h-.3c-.2 0-.4 0-.6.1-.1.1-.2.1-.2.1h-.1c-.1 0-.2.1-.2.1l-.1.1-.1.2-.2.2-.2.2c-.1 0-.1.1-.2.2-.2.1-.3.2-.4.4-.3.3-.5.6-.5.9 0 .2.1.3.2.4.1.1.1.1.2.1z"/><path clip-rule="evenodd" fill="none" d="M0 0h32v32H0z"/><path fill="#6D6E71" d="M16 1C7.7 1 1 7.7 1 16s6.7 15 15 15 15-6.7 15-15S24.3 1 16 1zm0 29.3C8.1 30.3 1.7 23.9 1.7 16S8.1 1.7 16 1.7 30.3 8.1 30.3 16 23.9 30.3 16 30.3z"/></svg>