<svg xmlns="http://www.w3.org/2000/svg" width="32" height="32" viewBox="0 0 32 32"><path clip-rule="evenodd" fill="none" d="M0 0h32v32H0z"/><path fill="#E5D255" d="M31 28s-6-3-15 0-15 0-15 0L5 4s6 2 11 0 11 0 11 0l4 24z"/><path fill="#F4EEC8" d="M8.1 27.3c-1.4 0-2.7-.1-3.9-.4-.5-.1-.9-.6-.8-1.1L6.5 7.5c0-.5.5-.9.9-.9h.2c1.1.2 2.3.3 3.3.3 2.1 0 4.1-.3 5.8-1 1.2-.5 2.7-.7 4.3-.7 1.1 0 2.3.1 3.5.3.4.1.7.4.8.8l2.9 17.5c.1.3 0 .6-.3.9-.2.2-.4.3-.7.3h-.1c-1.1-.1-2.2-.2-3.2-.2-2.8 0-5.7.5-8.5 1.4-2.5.7-4.9 1.1-7.3 1.1z"/><path fill="#6D6E71" d="M8.1 26.3c-1.5 0-2.8-.2-3.7-.4l3-18.3c1 .2 2.2.3 3.5.3 2.3 0 4.4-.4 6.2-1.1 1.1-.4 2.5-.7 4-.7 1.3 0 2.4.2 3.3.3l2.9 17.5c-1-.1-2.1-.2-3.4-.2-2.9 0-5.9.5-8.8 1.5-2.4.7-4.7 1.1-7 1.1z"/><path fill="#6DB5E3" d="M19 17v-4.6c-1.4.3-2.8.6-4.3 1.1-.6.2-1.2.4-1.7.5v4.6c.6-.1 1.2-.3 1.7-.5 1.5-.5 2.9-.8 4.3-1.1z"/><path fill="#6D6E71" d="M25.2 17.6l-.2-1h-1.2c-1.3 0-2.6.1-3.9.3v-4.6c1.3-.2 2.6-.3 3.9-.3h.4l-.2-1h-.2c-1.3 0-2.6.1-3.9.3V7.2c-.3 0-.7.1-1 .1v4.2c-1.4.3-2.8.6-4.3 1.1-.6.2-1.2.4-1.7.5V8.8c-.3 0-.7.1-1 .1v4.4c-1.3.3-2.6.4-3.9.4h-.7l-.1.6-.1.4h.8c1.3 0 2.6-.2 3.9-.4v4.6c-1.3.3-2.6.4-3.9.4-.5 0-1.1 0-1.6-.1l-.2 1c.6.1 1.2.1 1.7.1 1.3 0 2.6-.1 3.9-.4V25c.3-.1.7-.1 1-.2v-5.1c.6-.1 1.2-.3 1.7-.5 1.4-.5 2.8-.8 4.3-1.1v5.1c.3-.1.7-.1 1-.2v-5.1c1.3-.2 2.6-.3 3.9-.3h1.6zM19 17c-1.4.3-2.8.6-4.3 1.1-.6.2-1.2.4-1.7.5V14c.6-.1 1.2-.3 1.7-.5 1.4-.5 2.8-.8 4.3-1.1V17z"/><path fill="none" d="M8.1 13.7h-.5l-.2 1H8c1.3 0 2.6-.2 3.9-.4v4.6c-1.3.3-2.6.4-3.9.4-.5 0-.9 0-1.4-.1l-.2 1c.5 0 1 .1 1.5.1 1.3 0 2.6-.1 3.9-.4v4.8c.3-.1.7-.1 1-.2v-4.9c.6-.1 1.2-.3 1.7-.5 1.4-.5 2.8-.8 4.3-1.1v4.9c.3-.1.7-.1 1-.2v-4.9c1.3-.2 2.6-.3 3.9-.3h1.1l-.2-1h-1c-1.3 0-2.6.1-3.9.3v-4.6c1.3-.2 2.6-.3 3.9-.3h.2l-.2-1c-1.3 0-2.6.1-3.9.3V7.4c-.3 0-.7.1-1 .1v4c-1.4.3-2.8.6-4.3 1.1-.6.2-1.2.4-1.7.5V9H12v4.2c-1.3.3-2.6.5-3.9.5z"/><path fill="#9BC29C" d="M20 17.9v4.9c1.3-.2 2.6-.3 3.9-.3.6 0 1.3 0 1.9.1l-.8-5h-1.1c-1.3 0-2.6.1-3.9.3z"/><path fill="#BDDBEE" d="M14.7 12.5c1.4-.5 2.8-.8 4.3-1.1v-4c-.5.1-1 .2-1.4.4-1.4.7-3 1-4.6 1.2v4c.6-.1 1.2-.3 1.7-.5z"/><path fill="#F4EEC8" d="M20 12.3v4.6c1.3-.2 2.6-.3 3.9-.3h1l-.8-4.6h-.2c-1.3 0-2.6.1-3.9.3z"/><path fill="#D3EAF9" d="M23.9 11l-.6-3.5c-.8-.1-1.5-.2-2.2-.2H20v3.9c1.3-.1 2.6-.2 3.9-.2z"/><path fill="#F4EEC8" d="M8.1 13.7c1.3 0 2.6-.2 3.9-.4V9h-1.1c-.8 0-1.6 0-2.5-.1l-.8 4.7c.2.1.4.1.5.1z"/><path fill="#D3EAF9" d="M12 18.8v-4.6c-1.3.3-2.6.4-3.9.4h-.6l-.8 4.5c.5 0 .9.1 1.4.1 1.3 0 2.6-.1 3.9-.4z"/><path fill="#6DB5E3" d="M12 19.8c-1.3.3-2.6.4-3.9.4-.5 0-1 0-1.5-.1L5.8 25c.8.1 1.5.2 2.3.2 1.3 0 2.6-.2 3.9-.4v-5z"/><path fill="#9BC29C" d="M14.7 19.1c-.6.2-1.2.4-1.7.5v4.9c.6-.1 1.1-.3 1.7-.5 1.4-.5 2.9-.8 4.3-1.1V18c-1.4.3-2.8.6-4.3 1.1z"/></svg>