<svg xmlns="http://www.w3.org/2000/svg" width="32" height="32" viewBox="0 0 32 32"><path clip-rule="evenodd" fill="none" d="M-.2 0h32v32h-32z"/><path fill="#E5D255" d="M30.8 28s-6-3-15 0-15 0-15 0l4-24s6 2 11 0 11 0 11 0l4 24z"/><path fill-rule="evenodd" clip-rule="evenodd" fill="#F8F8F8" d="M24.7 23.8l-6.5-6.5c-.2-.2-.4-.3-.7-.3H14c-.4 0-.8.2-.9.6s-.1.8.2 1.1l3.3 3.3H14c-1.7 0-3-1.3-3-3 0-.6-.4-1-1-1H7c-.6 0-1 .4-1 1 0 4.4 3.6 8 8 8h2.6l-1.1 1.1c.1 0 .2-.1.3-.1 2.8-.9 5.3-1.3 7.5-1.3l1.5-1.5c.3-.4.3-1-.1-1.4z"/><path fill-rule="evenodd" clip-rule="evenodd" fill="#68AA67" d="M17.5 18H14l5 5h-5c-2.2 0-4-1.8-4-4H7c0 3.9 3.1 7 7 7h5l-5 5h3.5l6.5-6.5-6.5-6.5z"/></svg>