<svg xmlns="http://www.w3.org/2000/svg" width="32" height="32" viewBox="0 0 32 32"><path clip-rule="evenodd" fill="none" d="M0 0h32v32H0z"/><path fill="#E5D255" d="M29.8 28s-6-3-15 0-15 0-15 0l4-24s6 2 11 0 11 0 11 0l4 24z"/><path fill="#F8F8F8" d="M27.4 16H19c-.6 0-1 .4-1 1v10.1c7.2-1.4 11.8.9 11.8.9l-2-11.9c-.1-.1-.3-.1-.4-.1z"/><path fill="#6D6E71" d="M31 32H19V17h8.4l3.6 3.6"/><path fill="#F8F8F8" d="M27.3 18H20v13h10V20.7"/><path fill="#6D6E71" d="M26 18h1v4h-1z"/><path fill="#6D6E71" d="M26 21h5v1h-5z"/><path fill="#57A6D9" d="M21 23h8v1h-8zM21 25h8v1h-8zM21 27h8v1h-8zM21 29h8v1h-8zM21 21h4v1h-4z"/><path fill="#F8F8F8" d="M16.7 21.8l-3.5-3.5c-.2-.2-.4-.3-.7-.3H11c-.6 0-1 .4-1 1v.5c0 .3.1.5.3.7l.3.3C9.1 20 8 18.6 8 17v-1c0-.6-.4-1-1-1H6c-.6 0-1 .4-1 1v1c0 3.7 2.6 6.5 6.1 6.9l-.8.8c-.2.3-.3.5-.3.8v.5c0 .6.4 1 1 1h1.5c.3 0 .5-.1.7-.3l3.5-3.5c.4-.4.4-1 0-1.4z"/><path fill="#68AA67" d="M15 21.9l-3.2-.1C9.2 21.8 7 19.7 7 17v-1H6v1c0 3.4 2.6 6 6 6h3v.2-1.3z"/><path fill="#68AA67" d="M16 22.5L12.5 26H11v-.5l3-3-3-3V19h1.5"/></svg>