<svg xmlns="http://www.w3.org/2000/svg" width="32" height="32" viewBox="0 0 32 32"><path clip-rule="evenodd" fill="none" d="M0-.1h32v32H0z"/><path fill="#E5D255" d="M31 27.9s-6-3-15 0-15 0-15 0l4-24s6 2 11 0 11 0 11 0l4 24z"/><path fill-rule="evenodd" clip-rule="evenodd" fill="#F8F8F8" d="M23.2 26.6l.5-.5c.2-.2.3-.4.3-.7v-3.5c0-.4-.2-.8-.6-.9-.1-.1-.3-.1-.4-.1-.3 0-.5.1-.7.3L19 24.4v-8.6c0-.6-.4-1-1-1h-3c-.6 0-1 .4-1 1v8.6l-3.3-3.3c-.2-.2-.4-.3-.7-.3-.1 0-.3 0-.4.1-.4.2-.6.6-.6 1v3.5c0 .3.1.5.3.7l2.8 2.8c1.2-.2 2.5-.5 3.9-1 2.7-.9 5.1-1.3 7.2-1.3z"/><path fill-rule="evenodd" clip-rule="evenodd" fill="#E67E08" d="M18 26.9l5-5v3.5l-6.5 6.5-6.5-6.5v-3.5l5 5v-11h3"/></svg>