<svg xmlns="http://www.w3.org/2000/svg" width="32" height="32" viewBox="0 0 32 32"><path clip-rule="evenodd" fill="none" d="M0 0h32v32H0z"/><path fill="#E5D255" d="M31 28s-6-3-15 0-15 0-15 0L5 4s6 2 11 0 11 0 11 0l4 24z"/><path fill="#F8F8F8" d="M30.4 27.7l-4.5-4.5c-.3-.3-.8-.5-1.3-.5h-.3l-.8-.7c2.3-3.5 1.9-8.3-1.1-11.4C20.7 8.9 18.4 8 16 8c-2.4 0-4.7.9-6.4 2.6-3.5 3.5-3.5 9.2 0 12.7 1.7 1.7 4 2.6 6.4 2.6 1.8 0 3.5-.5 5-1.5l.8.8c-.1.5 0 1 .4 1.5 4-.3 6.9.6 8.2 1z"/><circle fill="#F8F8F8" cx="16" cy="17" r="7"/><path fill="#6D6E71" d="M23.51 25.648l-2.475-2.476 1.132-1.13 2.474 2.475z"/><path fill="#B88B55" d="M29.6 31.8c-.3.3-.8.3-1.1 0l-5.6-5.6c-.3-.3-.3-.8 0-1.1L24 24c.3-.3.8-.3 1.1 0l5.6 5.6c.3.3.3.8 0 1.1l-1.1 1.1z"/><path fill="#57A6D9" d="M21.7 11.3c-3.1-3.1-8.2-3.1-11.3 0-3.1 3.1-3.1 8.2 0 11.3 3.1 3.1 8.2 3.1 11.3 0 3.1-3.1 3.1-8.2 0-11.3zm-1.1 10.3c-2.6 2.6-6.7 2.6-9.3 0-2.6-2.6-2.6-6.7 0-9.3 2.6-2.6 6.7-2.6 9.3 0 2.6 2.6 2.6 6.7 0 9.3z"/><path fill="#6D6E71" d="M15 12h2v10h-2z"/><path fill="#6D6E71" d="M11 16h10v2H11z"/></svg>