<svg xmlns="http://www.w3.org/2000/svg" width="32" height="32" viewBox="0 0 32 32"><path clip-rule="evenodd" fill="none" d="M0 0h32v32H0z"/><path fill="#6D6E71" d="M2 0h27v27H2z"/><path fill="#D3EAF9" d="M3 1h25v25H3z"/><path fill="#D3EAF9" d="M3 1h25v25H3z"/><path fill="#9BC29C" d="M12.2 25.8c0-.5.2-.9.3-1.4.1-.3.2-.6.2-1 0-1-1.9-.7-2.2-1.3-.7-1.5 1.2-1.8 1.2-3 0-.3-.1-.9-.6-.9-.6-.1-.8.3-1.4.3-.4 0-.8-.3-.8-.6 0-.7.6-1 .6-1.7 0-.5-.2-.7-.2-1.2 0-.6.5-1.2 1.1-1.2.6 0 .8.5 1.1 1 .2.4.6.6 1.1.6.9 0 1.4-1.1 1.4-1.8 0-.5.3-.9.8-.9.6 0 .9.6 1.5.6 1 0 1-1.4 1.9-1.9 1.1-.6.8-1.9.6-2.6 0-.2.6-.8.9-.8 1.3.1.7-1 .7-1.5v-.3c.2-.6 1.1-.8 1.1-1.5 0-.5-.4-.7-.4-1.2 0-.8 1.1-1.4 2.3-2 .3-.1.4-.2.5-.5H3v25h9.3l-.1-.2z"/><path fill="#9BC29C" d="M12.2 25.8c0-.5.2-.9.3-1.4.1-.3.2-.6.2-1 0-1-1.9-.7-2.2-1.3-.7-1.5 1.2-1.8 1.2-3 0-.3-.1-.9-.6-.9-.6-.1-.8.3-1.4.3-.4 0-.8-.3-.8-.6 0-.7.6-1 .6-1.7 0-.5-.2-.7-.2-1.2 0-.6.5-1.2 1.1-1.2.6 0 .8.5 1.1 1 .2.4.6.6 1.1.6.9 0 1.4-1.1 1.4-1.8 0-.5.3-.9.8-.9.6 0 .9.6 1.5.6 1 0 1-1.4 1.9-1.9 1.1-.6.8-1.9.6-2.6 0-.2.6-.8.9-.8 1.3.1.7-1 .7-1.5v-.3c.2-.6 1.1-.8 1.1-1.5 0-.5-.4-.7-.4-1.2 0-.8 1.1-1.4 2.3-2 .3-.1.4-.2.5-.5H3v25h9.3l-.1-.2z"/><path fill-rule="evenodd" clip-rule="evenodd" fill="#F8F8F8" d="M29 26.9V21c-.3 0-.5.1-.7.3L25 24.6V16c0-.6-.4-1-1-1h-3c-.6 0-1 .4-1 1v8.6l-3.3-3.3c-.2-.2-.4-.3-.7-.3-.1 0-.3 0-.4.1-.4.1-.6.5-.6.9v3.5c0 .3.1.5.3.7l.8.8 12.9-.1z"/><path fill-rule="evenodd" clip-rule="evenodd" fill="#E67E08" d="M24 27l5-5v3.5L22.5 32 16 25.5V22l5 5V16h3"/></svg>