<svg xmlns="http://www.w3.org/2000/svg" width="32" height="32" viewBox="0 0 32 32"><path clip-rule="evenodd" fill="none" d="M0 0h32v32H0z"/><path fill="#E5D255" d="M31 28s-6-3-15 0-15 0-15 0L5 4s6 2 11 0 11 0 11 0l4 24z"/><path fill="#6D6E71" d="M8.1 27.2c-2.1 0-3.8-.2-4.9-.5L6.6 6.5c1.2.2 2.7.4 4.3.4 2.1 0 4.1-.3 5.8-1 1.2-.5 2.7-.7 4.3-.7 1.7 0 3.2.3 4.2.5l3.3 19.5c-1.2-.3-2.8-.4-4.6-.4-2.8 0-5.7.4-8.5 1.3-2.5.8-4.9 1.1-7.3 1.1z"/><path fill="#D3EAF9" d="M8.1 25.9c-1.2 0-2.3 0-3.4-.2L7.7 8c1.1.2 2.2.2 3.2.2 2.3 0 4.4-.4 6.3-1.1 1.1-.4 2.4-.7 3.8-.7 1 0 2 .1 3 .3l2.8 16.9c-1-.1-2-.1-3-.1-2.9 0-5.9.4-8.9 1.4-2.3.7-4.6 1-6.8 1z"/><path fill="#6DB5E3" d="M26.6 21.7l-.1-.6c-.6.2-1.2.3-1.8.3-.7 0-1.4-.1-2.1-.3-2-.7-3.2-1.9-4.1-3.1-.3-.4-.8-.9-1-1.2h-.3c-.8 0-2.2 0-3.4-.9-1.1-.7-1.6-1.7-2-2.4-1.2.2-3.2 1-4.3 2.1-.1.1-.2.2-.3.2-.3.2-.6.3-.9.3l-.1.6c.5 0 1-.2 1.3-.5.1-.1.3-.2.4-.3.8-.8 2.4-1.6 3.5-1.9.3.6.9 1.5 2 2.2 1.4.9 2.9 1 3.7 1h.1c.2.2.6.6.8.9 1 1.2 2.2 2.5 4.4 3.3.7.2 1.5.4 2.3.4.6.2 1.3.1 1.9-.1z"/><path fill="#5B945A" d="M25.2 5.6c-1-.2-2.5-.5-4.2-.5-1.6 0-3.1.3-4.3.7-1.7.7-3.7 1-5.8 1-1.6 0-3.2-.2-4.3-.4L5.2 15c1.1-.5 2.1-1 2.2-1.1 1.5-1 3.5-1.8 4.7-1.8.2 0 .4 0 .5.1.1.1.3.4.4.6.3.6.7 1.4 1.5 2 .9.6 1.9.6 2.6.6.2 0 .7 0 .9.1.5.3 1.1.9 1.6 1.6.9 1.1 1.9 2.3 3.5 2.8.5.2 1.1.3 1.6.3.6 0 1.1-.1 1.7-.3.2 0 .6-.2 1.1-.4L25.2 5.6z"/><path fill="#DDEEDB" d="M26.1 18.9l-2-12.2c-1-.2-2.1-.3-3-.3-1.5 0-2.8.2-3.8.7-1.9.7-4 .9-6.3.9-1.1 0-2.2-.1-3.3-.2l-.9 5.3c1.6-1.1 3.8-2 5.2-2 .4 0 .7.1 1 .2.3.2.5.5.8 1 .3.5.6 1.2 1.2 1.6.7.4 1.4.5 2.1.5.5 0 1 0 1.3.2.7.4 1.3 1.1 1.9 1.9.8 1 1.7 2.1 3 2.5.4.1.9.2 1.3.2.6 0 1.1-.1 1.5-.3z"/><path fill-rule="evenodd" clip-rule="evenodd" fill="#E89D48" d="M21 13.2c0-.4.5-.8 1-.8s1 .3 1 .7c0 .4-.4.8-1 .9-.6 0-1-.4-1-.8zM17 9.8c0-.4.5-.8 1-.8s1 .3 1 .7c0 .4-.4.8-1 .9-.6 0-1-.4-1-.8z"/></svg>