<svg xmlns="http://www.w3.org/2000/svg" width="32" height="32" viewBox="0 0 32 32"><path fill-rule="evenodd" clip-rule="evenodd" fill="#F8F8F8" d="M1 18h30v8H1z"/><path fill-rule="evenodd" clip-rule="evenodd" fill="#6D6E71" d="M13 7H5.3l3.4-3.4-1.3-1.3L1.8 8l5.6 5.7 1.3-1.3L5.3 9H13M19 9h7.7l-3.4 3.4 1.3 1.3L30.2 8l-5.6-5.7-1.3 1.3L26.7 7H19"/><path fill="none" d="M0-1h32v32H0z"/><g fill="#B88B55"><path d="M0 17v10h32V17H0zm31 9H1v-8h30v8z"/><path d="M2 23h1v3H2zM4 22h1v4H4zM6 23h1v3H6zM8 19h1v7H8zM10 23h1v3h-1zM12 22h1v4h-1zM14 23h1v3h-1zM16 19h1v7h-1zM18 23h1v3h-1zM20 22h1v4h-1zM22 23h1v3h-1zM26 23h1v3h-1zM28 22h1v4h-1zM30 23h1v3h-1zM24 19h1v7h-1z"/></g></svg>