<svg xmlns="http://www.w3.org/2000/svg" width="32" height="32" viewBox="0 0 32 32"><path clip-rule="evenodd" fill="none" d="M0 0h32v32H0z"/><path fill="#6D6E71" d="M3 3h27v27H3z"/><path fill="#D3EAF9" d="M4 4h25v25H4z"/><path fill="#D3EAF9" d="M4 4h25v25H4z"/><path fill="#9BC29C" d="M29 29v-8.5c-.6.2-1.2.5-1.3.5h-1.1c-.6 0-1.2.1-1.6-.3-.5-.4-.5-1.2-1.1-1.2-.9 0-.9 1.3-1.8 1.3-.4 0-.7-.3-1.1-.3-.3 0-.8.2-.8.6v.9c0 .8-.9.9-.9 1.7 0 .3.3.4.3.7 0 1-1.6.9-1.6 1.9 0 .3-.5.5.4.9v.1c0 .4-.6 1-.7 1.7H29zM13.2 28.8c0-.5.2-.9.3-1.4.1-.3.2-.6.2-1 0-1-1.9-.7-2.2-1.3-.7-1.5 1.2-1.8 1.2-3 0-.3-.1-.9-.6-.9-.6-.1-.8.3-1.4.3-.4 0-.8-.3-.8-.6 0-.7.6-1 .6-1.7 0-.5-.2-.7-.2-1.2 0-.6.5-1.2 1.1-1.2.6 0 .8.5 1.1 1 .2.4.6.6 1.1.6.9 0 1.4-1.1 1.4-1.8 0-.5.3-.9.8-.9.6 0 .9.6 1.5.6 1 0 1-1.4 1.9-1.9 1.1-.6.8-1.9.6-2.6-.1-.3.5-.9.8-.9 1.3.1.7-1 .7-1.5v-.3c.2-.6 1.1-.8 1.1-1.5 0-.5-.4-.7-.4-1.2 0-.8 1.1-1.4 2.3-2 .3-.1.4-.2.5-.5H4v25h9.3l-.1-.1z"/><path fill="#9BC29C" d="M13.2 28.8c0-.5.2-.9.3-1.4.1-.3.2-.6.2-1 0-1-1.9-.7-2.2-1.3-.7-1.5 1.2-1.8 1.2-3 0-.3-.1-.9-.6-.9-.6-.1-.8.3-1.4.3-.4 0-.8-.3-.8-.6 0-.7.6-1 .6-1.7 0-.5-.2-.7-.2-1.2 0-.6.5-1.2 1.1-1.2.6 0 .8.5 1.1 1 .2.4.6.6 1.1.6.9 0 1.4-1.1 1.4-1.8 0-.5.3-.9.8-.9.6 0 .9.6 1.5.6 1 0 1-1.4 1.9-1.9 1.1-.6.8-1.9.6-2.6-.1-.3.5-.9.8-.9 1.3.1.7-1 .7-1.5v-.3c.2-.6 1.1-.8 1.1-1.5 0-.5-.4-.7-.4-1.2 0-.8 1.1-1.4 2.3-2 .3-.1.4-.2.5-.5H4v25h9.3l-.1-.1z"/><path fill="#F8F8F8" d="M4 4v25h25V4H4zm24 24H5V5h23v23z"/><path fill-rule="evenodd" clip-rule="evenodd" fill="#F8F8F8" d="M8 3v5H3v3h5v8c0 .6.4 1 1 1h1c.6 0 1-.4 1-1v-8h8c.6 0 1-.4 1-1V9c0-.6-.4-1-1-1h-8V3H8z"/><path fill="#6D6E71" d="M12 9h7v1h-7zM0 9h7v1H0zM9 12h1v7H9zM9 0h1v7H9zM9 9h1v1H9z"/></svg>