<svg xmlns="http://www.w3.org/2000/svg" width="32" height="32" viewBox="0 0 32 32"><path fill="#68AA67" d="M4 2l23 6v21H4"/><path fill="#DDEEDB" d="M5 28V3.3l21 5.5V28"/><path fill="none" d="M0 0h32v32H0z"/><path fill="#5B945A" d="M25 7h3v3h-3z"/><path fill="#9BC29C" d="M26 8h1v1h-1z"/><path fill="#5B945A" d="M25 27h3v3h-3z"/><path fill="#9BC29C" d="M26 28h1v1h-1z"/><path fill="#5B945A" d="M3 1h3v3H3z"/><path fill="#9BC29C" d="M4 2h1v1H4z"/><path fill="#5B945A" d="M3 27h3v3H3z"/><path fill="#9BC29C" d="M4 28h1v1H4z"/><path fill-rule="evenodd" clip-rule="evenodd" fill="#F8F8F8" d="M1 16h29v8H1z"/><path fill="#B88B55" d="M0 15v10h31V15H0zm30 9H1v-8h29v8z"/><path fill="#B88B55" d="M2 21h1v3H2zM4 20h1v4H4zM6 21h1v3H6zM8 17h1v7H8zM10 21h1v3h-1zM12 20h1v4h-1zM14 21h1v3h-1zM16 17h1v7h-1zM18 21h1v3h-1zM20 20h1v4h-1zM22 21h1v3h-1zM26 21h1v3h-1zM28 20h1v4h-1zM24 17h1v7h-1z"/></svg>