<svg xmlns="http://www.w3.org/2000/svg" width="32" height="32" viewBox="0 0 32 32"><path fill="#A7A9AC" d="M31.9 20v-.2c-.1-.8-1.4-4.7-1.9-5.8-1-2-1.6-3-3.2-3H5.2C3.6 11 3 12 2 14c-.5 1.1-1.8 5-1.9 5.8v.2h31.8z"/><path fill="#6D6E71" d="M0 26c0 1.7 1.3 3 3 3h26c1.7 0 3-1.3 3-3v-5H0v5z"/><path fill="#F8F8F8" d="M26 16H6l.5-3h19M6 23h20v3H6z"/><path fill="#6D6E71" d="M7 24h18v8H7z"/><path fill="#F8F8F8" d="M8 25h16v6H8z"/><path fill="#6DB5E3" d="M11 28h10v1H11zM11 26h10v1H11z"/><path clip-rule="evenodd" fill="none" d="M0 0h32v32H0z"/><path fill="#6D6E71" d="M25 15H7V0h11.3L25 6.7"/><path fill="#F8F8F8" d="M24 7l-6-6H8v13h16"/><path fill="#6D6E71" d="M17 1h1v7h-1z"/><path fill="#6D6E71" d="M17 7h8v1h-8z"/><path fill="#F8F8F8" d="M0 20h32v1H0z"/></svg>