<svg xmlns="http://www.w3.org/2000/svg" width="32" height="32" viewBox="0 0 32 32"><path clip-rule="evenodd" fill="none" d="M0 0h32v32H0z"/><path fill="#E5D255" d="M31 28s-6-3-15 0-15 0-15 0L5 4s6 2 11 0 11 0 11 0l4 24z"/><path fill="#F8F8F8" d="M21 15h-2.4c-.3 0-.5.1-.7.3L13 20.2l-4.9-4.9c-.2-.2-.4-.3-.7-.3H5c-.6 0-1 .4-1 1v2.4c0 .3.1.5.3.7L9.2 24l-4.9 4.9s0 .1-.1.1c1.9.4 4.4.5 7.5.1l2-.4c.7-.2 1.4-.4 2.2-.6 1.4-.5 2.6-.8 3.8-1l-3-3 4.9-4.9c.2-.2.3-.4.3-.7V16c.1-.6-.3-1-.9-1z"/><path fill="#C96B4B" d="M5 16h2.4L21 29.6V32h-2.4L5 18.4"/><path fill="#C96B4B" d="M5 32v-2.4L18.6 16H21v2.4L7.4 32"/></svg>