<svg xmlns="http://www.w3.org/2000/svg" width="32" height="32" viewBox="0 0 32 32"><path clip-rule="evenodd" fill="none" d="M0 0h32v32H0z"/><path fill="#E5D255" d="M31 28s-6-3-15 0-15 0-15 0L5 4s6 2 11 0 11 0 11 0l4 24z"/><path fill="#797979" d="M7 16h19v15H7z"/><path fill="#6D6E71" d="M7 16h19v15H7z"/><path fill="#FFF" d="M8 17h17v13H8z"/><path fill="#D3EAF9" d="M16 17h9v13h-9z"/><path fill="#57A6D9" d="M20 19h1v9h-1z"/><path fill="#57A6D9" d="M17 19h7v1h-7z"/><path fill="#6D6E71" d="M12 20l2-2h-1l-1.5 1.5L10 18H9l2 2v7l-2 2h1l1.5-1.5L13 29h1l-2-2"/></svg>