<svg xmlns="http://www.w3.org/2000/svg" width="32" height="32" viewBox="0 0 32 32"><path clip-rule="evenodd" fill="none" d="M0 0h32v32H0z"/><path fill="#6D6E71" d="M0 14h32v10H0z"/><path fill="#6D6E71" d="M0 14h32v10H0z"/><path fill="#F8F8F8" d="M1 19h10v4H1zM21 19h10v4H21zM11 15h10v4H11z"/><path fill="#6DB5E3" d="M11 19h10v4H11zM21 15h10v4H21zM1 15h10v4H1z"/><path fill-rule="evenodd" clip-rule="evenodd" fill="#F8F8F8" d="M23 14v1c0 .6.4 1 1 1h2c.6 0 1-.4 1-1v-1h-4z"/><path fill-rule="evenodd" clip-rule="evenodd" fill="#6D6E71" d="M30 7.8L25 3l-5 4.8v1.3l.6.6L24 6.3V15h2V6.3l3.4 3.4.6-.6"/><path fill-rule="evenodd" clip-rule="evenodd" fill="#F8F8F8" d="M5.6 14l1.7 1.7c.2.2.4.3.7.3s.5-.1.7-.3l1.7-1.7H5.6z"/><path fill-rule="evenodd" clip-rule="evenodd" fill="#6D6E71" d="M3 10l5 5 5-5V8.7l-.6-.6L9 11.5V3H7v8.5L3.6 8.1l-.6.6"/></svg>