<svg xmlns="http://www.w3.org/2000/svg" width="32" height="32" viewBox="0 0 32 32"><circle fill-rule="evenodd" clip-rule="evenodd" fill="#F8F8F8" cx="14" cy="13" r="8.5"/><path clip-rule="evenodd" fill="none" d="M0 0h32v32H0z"/><path fill="#6D6E71" d="M20.4 6.6c-3.5-3.5-9.2-3.5-12.7 0s-3.5 9.2 0 12.7 9.2 3.5 12.7 0 3.5-9.1 0-12.7zm-1.2 11.6c-2.9 2.9-7.5 2.9-10.4 0-2.9-2.9-2.9-7.5 0-10.4 2.9-2.9 7.5-2.9 10.4 0 2.9 2.9 2.9 7.5 0 10.4z"/><path fill="#6D6E71" d="M21.192 22.663l-2.122-2.12 1.415-1.415 2.12 2.12z"/><path fill="#6D6E71" d="M27.4 28.8c-.4.4-1 .4-1.4 0l-5.5-5.5c-.4-.4-.4-1 0-1.4l1.4-1.4c.4-.4 1-.4 1.4 0l5.5 5.5c.4.4.4 1 0 1.4l-1.4 1.4z"/></svg>