<svg xmlns="http://www.w3.org/2000/svg" width="32" height="32" viewBox="0 0 32 32"><path clip-rule="evenodd" fill="none" d="M0 0h32v32H0z"/><path fill="#E5D255" d="M31 28s-6-3-15 0-15 0-15 0L5 4s6 2 11 0 11 0 11 0l4 24z"/><path fill="#6D6E71" d="M16 8h9v9h-9z"/><path fill="#6D6E71" d="M8 16h9v9H8z"/><path fill="#6D6E71" d="M16 16h9v9h-9z"/><path fill="#D3EAF9" d="M17 9h7v7h-7zM9 17h7v7H9z"/><path fill="#9BC29C" d="M17 17h7v7h-7zM14.3 20.8c0 .4.4.7.4 1.1v.1c0 .5-.7 1.3-.9 2.1H16v-4.9c-.6.5-1.7.6-1.7 1.6z"/><path fill="#F4EEC8" d="M8 8h8v8H8z"/><path fill="#6D6E71" d="M6 6h9v9H6z"/><path fill="#D3EAF9" d="M7 7h7v7H7z"/><path fill="#9BC29C" d="M7 12.7c1.1 0 1.8-1.3 1.8-2.1 0-.5.4-1.1.9-1.1.8 0 1 .8 1.8.8 1.2 0 1.2-1.6 2.3-2.2.1 0 .1-.1.2-.1V7H7v5.7z"/></svg>