<svg xmlns="http://www.w3.org/2000/svg" width="32" height="32" viewBox="0 0 32 32"><path clip-rule="evenodd" fill="none" d="M0 0h32v32H0z"/><path fill="#6D6E71" d="M0 0h27v27H0z"/><path fill="#D3EAF9" d="M1 1h25v25H1z"/><path fill="#D3EAF9" d="M1 1h25v25H1z"/><path fill="#9BC29C" d="M26 26v-8.5c-.6.2-1.2.5-1.3.5h-1.1c-.6 0-1.2.1-1.6-.3-.5-.4-.5-1.2-1.1-1.2-.9 0-.9 1.3-1.8 1.3-.4 0-.7-.3-1.1-.3-.3 0-.8.2-.8.6v.9c0 .8-.9.9-.9 1.7 0 .3.3.4.3.7 0 1-1.6.9-1.6 1.9 0 .3-.5.5.4.9v.1c0 .4-.6 1-.7 1.7H26zM10.2 25.8c0-.5.2-.9.3-1.4.1-.3.2-.6.2-1 0-1-1.9-.7-2.2-1.3-.7-1.5 1.2-1.8 1.2-3 0-.3-.1-.9-.6-.9-.6-.1-.8.3-1.4.3-.4 0-.8-.3-.8-.6 0-.7.6-1 .6-1.7 0-.5-.2-.7-.2-1.2 0-.6.5-1.2 1.1-1.2.6 0 .8.5 1.1 1 .2.4.6.6 1.1.6.9 0 1.4-1.1 1.4-1.8 0-.5.3-.9.8-.9.6 0 .9.6 1.5.6 1 0 1-1.4 1.9-1.9 1.1-.6.8-1.9.6-2.6 0-.2.6-.8.9-.8 1.3.1.7-1 .7-1.5v-.3c.2-.6 1.1-.8 1.1-1.5 0-.5-.4-.7-.4-1.2 0-.8 1.1-1.4 2.3-2 .3-.1.4-.2.5-.5H1v25h9.3l-.1-.2z"/><path fill="#9BC29C" d="M10.2 25.8c0-.5.2-.9.3-1.4.1-.3.2-.6.2-1 0-1-1.9-.7-2.2-1.3-.7-1.5 1.2-1.8 1.2-3 0-.3-.1-.9-.6-.9-.6-.1-.8.3-1.4.3-.4 0-.8-.3-.8-.6 0-.7.6-1 .6-1.7 0-.5-.2-.7-.2-1.2 0-.6.5-1.2 1.1-1.2.6 0 .8.5 1.1 1 .2.4.6.6 1.1.6.9 0 1.4-1.1 1.4-1.8 0-.5.3-.9.8-.9.6 0 .9.6 1.5.6 1 0 1-1.4 1.9-1.9 1.1-.6.8-1.9.6-2.6 0-.2.6-.8.9-.8 1.3.1.7-1 .7-1.5v-.3c.2-.6 1.1-.8 1.1-1.5 0-.5-.4-.7-.4-1.2 0-.8 1.1-1.4 2.3-2 .3-.1.4-.2.5-.5H1v25h9.3l-.1-.2z"/><path fill="#F8F8F8" d="M1 1v25h25V1H1zm24 24H2V2h23v23zM26 12h1v2h-1zM10.5 26h2v1h-2z"/><path fill="#E5D255" d="M32 31.1s-4.1-2.1-10.5 0-10.5 0-10.5 0L13.6 14s4.3 1.4 7.9 0c3.6-1.4 7.9 0 7.9 0L32 31.1z"/><path fill="#F8F8F8" d="M11.8 27c-.3 0-.6-.1-.8-.3-.2-.2-.3-.5-.2-.8l1.8-12c0-.3.2-.5.5-.7.2-.1.3-.1.5-.1h.3s1.8.6 3.9.6c1.2 0 2.3-.2 3.3-.6 1.2-.5 2.5-.7 4-.7h.9c.5 0 .9.5.9 1V26c0 .6-.4 1-1 1H11.8z"/><path fill="#D9C44C" d="M27 27V13.5c-1.6-.2-3.6-.2-5.5.5-3.6 1.4-7.9 0-7.9 0l-2 13H27z"/><path fill="#E5D255" d="M26 26V13.4c-1.4-.1-3 0-4.5.6-3.6 1.4-7.9 0-7.9 0l-1.8 12H26z"/><path fill="#D9C44C" d="M26 26v-8.5c-.6.2-1.2.5-1.3.5h-1.1c-.6 0-1.2.1-1.6-.3-.5-.4-.5-1.2-1.1-1.2-.9 0-.9 1.3-1.8 1.3-.4 0-.7-.3-1.1-.3-.3 0-.8.2-.8.6v.9c0 .8-.9.9-.9 1.7 0 .3.3.4.3.7 0 1-1.6.9-1.6 1.9 0 .3-.5.5.4.9v.1c0 .4-.6 1-.7 1.7H26z"/><path fill="#F1E7A2" d="M26 13.4h-1V25H11.9l-.2 1H26V13.4z"/></svg>