<svg xmlns="http://www.w3.org/2000/svg" width="32" height="32" viewBox="0 0 32 32"><path fill="#6D6E71" d="M31 27c0 1.1-.9 2-2 2H3c-1.1 0-2-.9-2-2V6c0-1.1.9-2 2-2h26c1.1 0 2 .9 2 2v21z"/><path fill="#F8F8F8" d="M30 27c0 .6-.4 1-1 1H3c-.6 0-1-.4-1-1V6c0-.6.4-1 1-1h26c.6 0 1 .4 1 1v21z"/><path fill="#6D6E71" d="M29 27H3V6h26"/><path fill="#F8F8F8" d="M28 26H4V7h24"/><path fill="#939598" d="M4 7h24v3H4z"/><path fill="none" d="M0 0h32v32H0z"/><path fill="#939598" d="M8 10h1v16H8z"/><path fill="#F8F8F8" d="M9 10h19v16H9z"/><path fill="#A7A9AC" d="M28 26v-6.1c-.3.1-.7.3-.8.3h-.7c-.4 0-.7 0-1-.2-.3-.2-.3-.7-.7-.7-.5 0-.6.8-1.1.8-.2 0-.4-.2-.6-.2-.2 0-.5.1-.5.3v.5c0 .5-.5.5-.5 1 0 .2.2.3.2.4 0 .6-1 .5-1 1.2 0 .2-.3 1.3.2 1.5 0 .2-.3.6-.4 1H28zM14.5 25.9c0-.3.1-.6.2-.8.1-.2.1-1.4.1-1.6 0-.6-1.1-.4-1.3-.8-.4-.9.7-1.1.7-1.8 0-.2-.1-.5-.4-.6-.4 0-.5.2-.9.2-.2 0-.5-.2-.5-.4 0-.4.3-.6.3-1 0-.3-.1-.4-.1-.7 0-.4.3-.7.6-.7s.5.3.7.6c.1.3.4.3.7.3.5 0 .9-.7.9-1.1 0-.3.2-.5.5-.5.4 0 .5.4.9.4.6 0 .6-.8 1.1-1.1.7-.4.5-1.1.4-1.6 0-.2.3-.5.5-.5.8.1.4-.6.4-.9v-.2c.1-.4.6-.5.6-.9 0-.3-.2-.4-.2-.8 0-.5.7-.9 1.4-1.2.2-.1.2-.1.3-.3H9v16h5.6-.1z"/></svg>