<svg xmlns="http://www.w3.org/2000/svg" width="32" height="32" viewBox="0 0 32 32"><path clip-rule="evenodd" fill="none" d="M0 0h32v32H0z"/><path fill="#6D6E71" d="M1 1h30v30H1z"/><path fill="#D3EAF9" d="M2 2h28v28H2z"/><path fill="#9BC29C" d="M30 30v-9.5c-.6.2-1.4.5-1.6.5h-1.3c-.7 0-1.3.1-1.8-.4s-.5-1.3-1.2-1.3c-1 0-1 1.5-2 1.5-.4 0-.8-.3-1.2-.3-.4 0-.9.3-.9.6v1c0 .8-1 1-1 1.9 0 .3.4.5.4.8 0 1.2-1.8 1-1.8 2.2 0 .4-.6.6.4 1v.1c0 .4-.6 1.2-.8 2H30zM12.4 29.6c0-.6.2-1 .4-1.5.1-.3.2-.7.2-1.1 0-1.1-2.1-.8-2.4-1.4-.8-1.6 1.4-2 1.4-3.3 0-.3-.2-1-.7-1-.7-.1-.9.3-1.6.3-.4 0-.9-.3-.9-.7 0-.8.6-1.1.6-1.9 0-.5-.2-.8-.2-1.3 0-.7.5-1.3 1.2-1.3.6 0 .9.5 1.2 1.1.3.5.7.6 1.2.6 1 0 1.6-1.2 1.6-2 0-.5.4-1 .9-1 .7 0 1 .7 1.6.7 1.1 0 1.1-1.5 2.1-2.1 1.2-.7.9-2.1.7-2.9-.1-.3.6-1 .9-1 1.4.1.8-1.1.8-1.6v-.3c.2-.7 1.2-.9 1.2-1.7 0-.6-.5-.8-.5-1.4 0-.8 1.2-1.6 2.5-2.2.3-.1.5-.4.5-.7H2v28h10.4v-.3z"/><path fill="#F8F8F8" d="M2 2v28h28V2H2zm27 27H3V3h26v26z"/></svg>