<svg xmlns="http://www.w3.org/2000/svg" width="32" height="32" viewBox="0 0 32 32"><path clip-rule="evenodd" fill="none" d="M0 0h32v32H0z"/><path fill="#6D6E71" d="M11 29v-2H5v-6H3v8"/><path fill="#6D6E71" d="M13.013 20.414L4.457 28.97l-1.414-1.415L11.6 19z"/><path fill="none" d="M3 19h10v10H3z"/><path fill="#6D6E71" d="M29 21h-2v6h-6v2h8"/><path fill="#6D6E71" d="M20.402 18.976l8.555 8.556-1.414 1.414-8.556-8.556z"/><path fill="none" d="M19 19h10v10H19z"/><path fill="#6D6E71" d="M21 3v2h6v6h2V3"/><path fill="#6D6E71" d="M18.987 11.61l8.556-8.555 1.414 1.414-8.556 8.555z"/><path fill="none" d="M19 3h10v10H19z"/><path fill="#6D6E71" d="M3 11h2V5h6V3H3"/><path fill="#6D6E71" d="M11.597 13.004L3.043 4.447l1.414-1.414 8.555 8.557z"/><path fill="none" d="M3 3h10v10H3z"/></svg>